<?xml version="1.0" encoding="utf-8"?>
<!-- Generator: Adobe Illustrator 14.0.0, SVG Export Plug-In  -->
<!DOCTYPE svg PUBLIC "-//W3C//DTD SVG 1.1//EN" "http://www.w3.org/Graphics/SVG/1.1/DTD/svg11.dtd" [
	<!ENTITY ns_flows "http://ns.adobe.com/Flows/1.0/">
]>
<svg version="1.1"
	 xmlns="http://www.w3.org/2000/svg" xmlns:xlink="http://www.w3.org/1999/xlink" xmlns:a="http://ns.adobe.com/AdobeSVGViewerExtensions/3.0/"
	 x="0px" y="0px" width="337px" height="95px" viewBox="0 0 337 95" enable-background="new 0 0 337 95" xml:space="preserve">
<defs>
</defs>
<path fill="#57ACC1" d="M228.62109,0h-1.14746H0v95.48926h227.47363h1.14746h108.02637V0H228.62109z M221.72754,88.59619H6.89307
	V6.89307h214.83447V88.59619z"/>
<path fill="#57ACC1" d="M33.17969,34.27881v30.58154l0.13135,3.14355c0.13135,1.39795,0.4917,2.45557,1.08057,3.17578
	c0.58984,0.72021,1.56104,1.16895,2.91406,1.34277l4.58398,0.32764v1.04736H23.03027V72.8501
	c0.65479-0.04297,1.36426-0.07568,2.12793-0.09863c0.76318-0.021,1.69141-0.1084,2.78369-0.26172
	c1.09033-0.15234,1.95313-0.59961,2.58643-1.34277c0.63232-0.74121,1.01514-1.78906,1.14648-3.14307l0.13037-3.14355V34.47607
	l-0.13232-3.0127c-0.30811-1.04736-0.77979-1.91992-1.41846-2.61914c-0.63867-0.69775-1.40771-1.11328-2.31006-1.24463
	c-0.90186-0.13037-1.79199-0.21777-2.67236-0.26172c-0.88037-0.04297-1.54004-0.08691-1.97998-0.13135v-1.04736h24.25635
	l11.01221,28.42041l9.89941-28.42041h23.59082v1.04736h-1.50635c-0.43652,0-1.3418,0.08838-2.7168,0.2627
	c-1.37598,0.1748-2.32471,0.5459-2.84912,1.11328c-0.52344,0.56787-0.85059,1.5498-0.98193,2.94678l-0.13135,3.01221v31.03906
	l0.13135,3.0127c0.13135,1.39746,0.42578,2.36865,0.88428,2.91357c0.45801,0.54736,1.36328,0.90723,2.7168,1.08154l3.27441,0.26172
	v1.04736H61.01172V72.8501l3.01221-0.19678c1.396-0.17334,2.31299-0.50098,2.75-0.98242
	c0.43555-0.47949,0.72021-1.4624,0.85156-2.94629l0.13135-3.0127V41.41699c0-1.35205,0.05371-2.95703,0.16309-4.81299
	c0.1084-1.85449,0.22949-3.59033,0.35986-5.20605h-0.39258l-2.68506,8.44775L53.61182,73.89746h-4.06055L33.57275,34.27881H33.17969
	z"/>
<path fill="#57ACC1" d="M118.96436,72.58838c1.8335-0.04395,3.70996-0.07568,5.63184-0.09863
	c1.92041-0.02197,3.95068-0.17432,6.09033-0.4585c2.13818-0.28369,4.78027-2.44434,7.92334-6.4834
	c3.14355-4.03711,5.45654-8.1958,6.94189-12.47461h1.04736v20.82422H95.12793V72.8501c0.56738,0,1.22168-0.03271,1.96484-0.09863
	c0.74219-0.06543,1.58203-0.15234,2.521-0.26172c0.93799-0.1084,1.65869-0.43555,2.16064-0.98291
	c0.50146-0.54492,0.81885-1.51611,0.9502-2.91357l0.13037-3.0127V34.5415l-0.13037-3.01221
	c-0.13135-1.39697-0.4585-2.37891-0.98291-2.94678c-0.52344-0.56738-1.25537-0.91748-2.19336-1.04785
	c-0.93945-0.13135-1.79102-0.20703-2.5542-0.22949c-0.76367-0.021-1.45117-0.0542-2.06201-0.09863v-1.04736h50.35693v19.3833
	h-1.04736c-2.22656-4.88867-4.93359-9.00439-8.12012-12.34375c-3.1875-3.33984-5.86084-5.11768-8.02148-5.33643
	c-2.16162-0.21826-3.98438-0.34961-5.46875-0.39307c-1.48389-0.04297-2.46631-0.06592-2.94678-0.06592h-0.58887l-0.13135,21.479
	l2.75098-0.13037c2.53076-0.2627,4.44092-1.45166,5.729-3.56934c1.2876-2.11719,1.93213-4.61621,1.93213-7.49854h1.24463V61.521
	h-1.24463c0-2.92432-0.64453-5.47803-1.93213-7.66162c-1.28809-2.18262-3.19824-3.40527-5.729-3.66699l-2.75098-0.13135V72.58838z"
	/>
<path fill="#57ACC1" d="M183.79395,73.89746h-31.95605V72.8501h2.02979c0.91699-0.13135,1.81104-0.25098,2.68506-0.36035
	c0.87256-0.1084,1.56006-0.43555,2.0625-0.98291c0.50146-0.54492,0.81885-1.51611,0.94971-2.91357l0.13037-3.0127V34.5415
	l-0.13037-3.01221c-0.13086-1.39697-0.4585-2.37891-0.98242-2.94678c-0.52344-0.56738-1.25586-0.91748-2.19385-1.04785
	c-0.93896-0.13135-1.79053-0.20703-2.55371-0.22949c-0.76416-0.021-1.45166-0.0542-2.0625-0.09863v-1.04736l30.58203-0.06592
	c7.11523,0,11.83984,0.78613,14.17578,2.35791s3.96191,3.26367,4.87891,5.07568c0.91699,1.81152,1.375,3.76465,1.375,5.86035
	c0,1.96436-0.30469,3.84229-0.91504,5.63184c-0.61328,1.79053-1.55176,3.26416-2.81738,4.42041
	c-1.26563,1.15674-2.83789,2.01953-4.71387,2.58643c-1.87793,0.56787-4.30176,0.85059-7.27051,0.85059
	c-2.83691,0-5.12891,0.01172-6.87402,0.03271c-1.74707,0.02295-3.20996,0.05566-4.3877,0.09863v12.57275l0.12988,3.0127
	c0.13184,1.39746,0.44824,2.36865,0.9502,2.91357c0.50195,0.54736,1.23242,0.88477,2.19336,1.01563
	c0.95898,0.13086,1.90039,0.20801,2.81543,0.229c0.91699,0.02295,1.5498,0.05566,1.89941,0.09863V73.89746z M186.41309,39.25586
	c0-2.48779-0.32617-4.91113-0.98047-7.26807c-0.65527-2.35791-1.65039-3.72168-2.98047-4.09277
	c-1.33203-0.37109-2.61914-0.56738-3.86426-0.58984c-1.24316-0.021-2.1709-0.03271-2.78223-0.03271v24.49072
	c0.87207-0.04248,1.76758-0.08643,2.68457-0.13037c0.91699-0.04297,2.12891-0.20703,3.63477-0.49121
	c1.50684-0.28369,2.59668-1.59277,3.27344-3.92871C186.0752,44.87793,186.41309,42.22559,186.41309,39.25586z"/>
<path fill="#FFFFFF" d="M276.53125,20.82568c0.27734,0.21387,0.41602,0.43799,0.41602,0.67188
	c0,0.40527-0.24609,0.60742-0.73535,0.60742c-0.21387,0-0.43848-0.06396-0.67188-0.19189
	c-0.98145-0.48975-1.7168-0.73535-2.20605-0.73535c-1.34277,0-2.81445,1.30078-4.41309,3.90088
	c-5.79688,9.44336-9.92383,21.64697-12.37402,36.61133c-0.06445,0.40576-0.17188,0.94922-0.31934,1.63086
	c0.48926-0.51172,1.21484-1.34326,2.17383-2.49414c0.55371-0.66064,0.95898-0.99121,1.21484-0.99121
	c0.55371,0,0.5957,0.33057,0.12793,0.99121c-2.0459,2.92041-3.39941,5.979-4.06055,9.17676
	c-0.23438,0.78857-0.5332,1.18311-0.89551,1.18311c-0.16992,0-0.39551-0.09619-0.6709-0.28809
	c-1.08789-0.72412-1.70703-1.15088-1.85449-1.27881c-0.42773-0.42578-0.63965-0.97998-0.63965-1.6626
	c0-0.34082,0.05371-0.75635,0.15918-1.24707c2.47266-13.57861,5.66016-25.14258,9.56055-34.69287
	c2.94238-7.20459,5.57422-11.87256,7.89844-14.00488c0.63965-0.59668,1.27832-0.88428,1.91797-0.86328
	c0.57617,0.02197,1.32129,0.38379,2.23828,1.08691C274.44238,19.08936,275.48633,19.95264,276.53125,20.82568z"/>
<path fill="#FFFFFF" d="M272.4707,48.70801c-0.51172,2.87793-1.84473,7.66406-3.99707,14.35693
	c0.61719-0.55371,1.4707-1.56689,2.55762-3.0376c0.15039-0.19189,0.29785-0.28809,0.44824-0.28809
	c0.34082,0,0.38379,0.29883,0.12793,0.89551c-0.10645,0.23486-1.00195,1.69482-2.68652,4.38037
	c-1.27832,2.04639-2.21582,3.85889-2.81348,5.43604c-0.19238,0.48975-0.54395,0.73535-1.05566,0.73535
	c-0.51074,0-1.2041-0.24561-2.07813-0.73535c-0.55371-0.29785-0.83105-0.52197-0.83105-0.67139
	c0-0.12793,0.11621-0.40479,0.35156-0.83154c1.15137-2.02441,2.42969-5.41406,3.83691-10.16797
	c1.34277-4.60449,2.10059-8.02588,2.27051-10.26416c0.06348-0.95898-0.03223-1.43896-0.28809-1.43896
	c-0.19141,0-0.5332,0.23486-1.02344,0.70361l-1.98242,1.85449c-0.70313,0.63965-1.05469,0.67139-1.05469,0.09619
	c0-0.16992,0.0957-0.38379,0.28809-0.63965c1.00098-1.40674,2.06641-2.73877,3.19727-3.99707
	c0.33984-0.36182,0.6709-0.54346,0.99121-0.54346c0.3418,0,0.84082,0.23486,1.50293,0.70361
	c0.97949,0.25586,1.52441,0.41553,1.63086,0.47949c0.48926,0.29883,0.73535,0.85303,0.73535,1.6626
	C272.59863,47.78076,272.55469,48.21826,272.4707,48.70801z M276.97852,34.70313c0.3418,0.25586,0.51172,0.54346,0.51172,0.86328
	c0,0.61816-0.91699,1.57764-2.75,2.87793c-1.21484,0.83105-2.3877,1.12988-3.5166,0.89502
	c-0.63965-0.12793-1.19336-0.36182-1.66309-0.70361c-0.14941-0.12793-0.26074-0.26074-0.33496-0.39941
	c-0.0752-0.13818-0.09082-0.25-0.04883-0.33594c0.06445-0.08496,0.19238-0.10596,0.38379-0.06396
	c1.96094-1.70459,3.25-2.93066,3.86914-3.67676c0.48926-0.55371,0.8418-0.83154,1.05469-0.83154
	C274.86816,33.32813,275.7002,33.78662,276.97852,34.70313z"/>
<path fill="#FFFFFF" d="M302.71875,22.45654c0.31934,0.23486,0.47949,0.49072,0.47949,0.76758
	c0,0.42627-0.26758,0.63916-0.7998,0.63916c-0.23535,0-0.45703-0.05273-0.6709-0.15967
	c-1.21484-0.66064-2.29199-0.99121-3.22949-0.99121c-0.70313,0-1.33301,0.1709-1.88672,0.51172
	c-2.13184,1.36475-5.51172,8.48438-10.13574,21.35938c3.45313,0.5332,5.6377,0.79932,6.55469,0.79932
	c0.48926,0,0.73535,0.18164,0.73535,0.54346c0,0.40576-0.24609,0.66113-0.73535,0.76758
	c-2.49414,0.46924-5.03027,0.76709-7.61035,0.89502c-2.91992,8.6333-5.20117,16.65918-6.84277,24.07715
	c-1.32031,5.98926-1.98242,10.26416-1.98242,12.82227c0,0.21289,0.03223,0.5376,0.09668,0.9751
	c0.06348,0.43652,0.0957,0.77246,0.0957,1.00732c0,0.34082-0.11816,0.51123-0.35156,0.51123
	c-0.32031,0-1.07715-0.3623-2.27051-1.08691c-1.42871-0.83154-2.04688-1.8125-1.85449-2.94189
	c1.79004-9.46436,4.93457-21.23145,9.43262-35.30029c-1.66309,0.10693-2.66602,0.1499-3.00586,0.12793
	c-0.44727-0.06396-0.75684-0.27686-0.92676-0.63965c-0.23438-0.5752-0.35254-0.89502-0.35254-0.95898
	c0-0.31982,0.34082-0.56494,1.02344-0.73535c0.97949-0.23389,1.96094-0.45801,2.94141-0.67139
	c0.89551-0.25586,1.41797-0.60791,1.56738-1.05566c3.43164-9.93311,6.12695-16.71191,8.08984-20.33594
	c1.61816-2.9834,3.16504-4.47656,4.63574-4.47656C297.12305,18.90723,299.45703,20.09033,302.71875,22.45654z"/>
<path fill="#FFFFFF" d="M308.47461,61.33838c-5.18066,6.62939-8.8252,9.94385-10.93555,9.94385
	c-1.00293,0-2.27051-0.69336-3.80566-2.07813c-1.59863-0.74561-2.39746-1.74756-2.39746-3.00586
	c0-0.23389,0.01953-0.47949,0.06348-0.73535c0.38379-2.91992,1.16113-6.14941,2.33398-9.68848
	c-0.78906-0.40479-1.18262-0.78809-1.18262-1.15088c0-0.29785,0.22363-0.44775,0.6709-0.44775
	c0.3418,0,0.69238,0.0957,1.05566,0.2876c1.89648-4.2627,3.60156-7.29004,5.11621-9.08057
	c0.97949-1.19336,1.86426-1.79053,2.65332-1.79053c0.3623,0,1.25781,0.30957,2.68652,0.92725
	c-0.10645-0.63965,0.07422-1.0127,0.54297-1.11914c0.02051,0,0.52246,0,1.50293,0c0.91699,0,1.375,0.15967,1.375,0.47949
	c0,0.06396-0.03223,0.24561-0.0957,0.54346c-0.06445,0.29883-0.0957,0.57568-0.0957,0.83154
	c0,0.76709,0.00977,1.71631,0.03125,2.8457c0.02246,1.12988,0.03223,1.88672,0.03223,2.27002
	c0,2.64404-0.72559,4.48779-2.17383,5.53174c-1.32324,0.95947-2.81445,1.43896-4.47656,1.43896
	c-0.875,0-2.32422-0.23389-4.34863-0.70361c-0.36328,0.66162-0.76758,1.95068-1.21484,3.86914
	c-0.59766,2.43018-0.87598,4.5835-0.83203,6.45898c0.02051,1.10889,0.37402,1.6626,1.05566,1.6626
	c0.25586,0,0.58496-0.06396,0.99121-0.19189c2.47168-0.87354,5.91504-3.53809,10.32813-7.99365
	c0.27734-0.27686,0.55371-0.41553,0.83105-0.41553c0.40527,0,0.60742,0.19189,0.60742,0.5752
	C308.79395,60.8374,308.68652,61.08252,308.47461,61.33838z M304.7334,47.20508c0-0.83105-0.18164-1.24707-0.54395-1.24707
	c-0.23535,0-0.5752,0.1709-1.02344,0.51172c-2.08984,1.68457-3.92285,4.63672-5.49902,8.85693
	c0.42578,0.06396,1.1709,0.12793,2.23828,0.19189c1.72656,0.06396,3.01563-0.32959,3.86816-1.18311
	c0.63965-0.63916,0.99121-1.69434,1.05566-3.16553C304.76465,52.25732,304.7334,50.93604,304.7334,47.20508z"/>
</svg>
