<?xml version="1.0" standalone="no"?>
<!DOCTYPE svg PUBLIC "-//W3C//DTD SVG 1.1//EN" "http://www.w3.org/Graphics/SVG/1.1/DTD/svg11.dtd" >
<svg>
<metadata>
Created by FontForge 20090622 at Sat Oct 22 10:22:17 2016
 By deploy user
Copyright (C) 2000, 2007 Hoefler &#38; Frere-Jones. http://www.typography.com
</metadata>
<defs>
<font id="Archer-Medium" horiz-adv-x="353" >
  <font-face 
    font-family="Archer Medium"
    font-weight="350"
    font-stretch="normal"
    units-per-em="1000"
    panose-1="0 0 0 0 0 0 0 0 0 0"
    ascent="800"
    descent="-200"
    x-height="426"
    cap-height="658"
    bbox="-52 -282 1432 1052"
    underline-thickness="50"
    underline-position="-50"
    unicode-range="U+0020-U+FB04"
  />
<missing-glyph horiz-adv-x="500" 
d="M0 -200v1000h500v-1000h-500zM71 750l179 -390l179 390h-358zM50 -76l172 376l-172 376v-752zM450 676l-172 -376l172 -376v752zM250 240l-179 -390h358z" />
    <glyph glyph-name="f_f" unicode="ff" horiz-adv-x="606" 
d="M182 426h222v127q0 103 45 148q41 39 97 39q35 0 57 -15.5t22 -41.5q0 -21 -13 -34t-31 -13q-38 0 -52 42q-22 -5 -33 -20q-23 -28 -23 -89v-143h110v-61h-110v-305h83v-60h-219v60h67v305h-222v-305h81v-60h-219v60h69v305h-76v61h76v107q0 104 45 149q38 38 94 38
q35 0 56.5 -15.5t21.5 -41.5q0 -21 -12.5 -34t-30.5 -13q-39 0 -52 42q-17 -3 -29 -18q-24 -26 -24 -91v-123z" />
    <glyph glyph-name="fi" unicode="fi" horiz-adv-x="570" 
d="M464 426v-366h72v-60h-210v60h69v305h-213v-305h80v-60h-218v60h69v305h-76v61h76v114q0 108 54 159q44 41 107 41q45 0 72 -21.5t27 -50.5q0 -21 -14 -35.5t-34 -14.5q-22 0 -36 17.5t-12 40.5l2 1q-5 1 -15 1q-32 0 -54 -28q-28 -33 -28 -94v-130h282z" />
    <glyph glyph-name="fl" unicode="fl" horiz-adv-x="573" 
d="M329 60h71v305h-218v-305h81v-60h-219v60h69v305h-76v61h76v118q0 94 50 146q50 50 131 50q70 0 114 -41l18 37h43v-676h72v-60h-212v60zM291 679q-48 0 -76 -30q-33 -33 -33 -99v-124h218v122v12q-17 4 -28 17.5t-11 31.5t11 34l-4 5q-31 31 -77 31z" />
    <glyph glyph-name="f_f_i" unicode="ffi" horiz-adv-x="857" 
d="M660 668q0 -21 -14 -35.5t-34 -14.5q-23 0 -36.5 17.5t-11.5 40.5q-10 2 -14 2q-27 0 -50 -24q-31 -33 -31 -98v-130h282v-366h72v-60h-210v60h69v305h-213v-305h80v-60h-216v60h67v305h-218v-305h81v-60h-219v60h69v305h-76v61h76v112q0 90 45 136q43 46 114 46
q34 0 61 -11q48 -20 48 -63q0 -20 -11.5 -32t-31.5 -12q-21 0 -35 16t-14 39q-9 3 -18 3q-44 0 -66 -30q-23 -31 -23 -87v-117h218v114q0 108 54 159q44 41 107 41q45 0 72 -21.5t27 -50.5z" />
    <glyph glyph-name="f_f_l" unicode="ffl" horiz-adv-x="860" 
d="M182 543v-117h218v118q0 94 50 146q48 50 131 50q70 0 114 -41l18 37h43v-676h72v-60h-212v60h71v305h-218v-305h81v-60h-217v60h67v305h-218v-305h81v-60h-219v60h69v305h-76v61h76v112q0 90 45 136q43 46 114 46q34 0 61 -11q48 -20 48 -63q0 -20 -11.5 -32t-31.5 -12
q-21 0 -35 16t-14 40q-12 2 -18 2q-44 0 -66 -30q-23 -31 -23 -87zM469 550v-124h218v122v12q-17 3 -28 17t-11 32t11 34l-4 5q-31 31 -77 31q-47 0 -77 -30q-32 -34 -32 -99z" />
    <glyph glyph-name="f_b" unicode="fb" horiz-adv-x="863" 
d="M469 736v-366q66 64 146 64q85 0 144 -62t59 -159q0 -93 -60.5 -157t-153.5 -64q-78 0 -140 52l-21 -45h-43v366h-218v-305h81v-60h-219v60h69v305h-76v61h76v118q0 94 50 146q50 50 131 50q70 0 114 -41l18 37h43zM600 52q63 0 105 44.5t42 115.5q0 72 -40.5 117
t-103.5 45q-72 0 -134 -64v-210q61 -48 131 -48zM361 609q0 18 11 34l-4 5q-31 31 -77 31q-48 0 -76 -30q-33 -33 -33 -99v-124h218v122v12q-17 4 -28 17.5t-11 31.5z" />
    <glyph glyph-name="f_h" unicode="fh" horiz-adv-x="857" 
d="M400 60v305h-218v-305h81v-60h-219v60h69v305h-76v61h76v118q0 94 50 146q50 50 131 50q70 0 114 -41l18 37h43v-387q74 85 157 85q73 0 109 -46q28 -37 28 -98v-230h68v-60h-204v60h67v216q0 45 -19 67q-21 27 -66 27q-72 0 -140 -75v-235h67v-60h-204v60h68zM361 609
q0 18 11 34l-4 5q-31 31 -77 31q-48 0 -76 -30q-33 -33 -33 -99v-124h218v122v12q-17 4 -28 17.5t-11 31.5z" />
    <glyph glyph-name="f_j" unicode="fj" horiz-adv-x="539" 
d="M395 365h-213v-305h80v-60h-218v60h69v305h-76v61h76v114q0 108 54 159q44 41 107 41q45 0 72 -21.5t27 -50.5q0 -21 -14 -35.5t-34 -14.5q-22 0 -36 17.5t-12 40.5l2 1q-5 1 -15 1q-32 0 -54 -28q-28 -33 -28 -94v-130h282v-416q0 -72 -19 -121q-33 -89 -126 -89
q-42 0 -66 19t-24 46q0 19 12.5 33t32.5 14q19 0 30.5 -12.5t11.5 -32.5q0 -7 -1 -11h7q44 0 63 59q10 33 10 87v363z" />
    <glyph glyph-name="f_k" unicode="fk" horiz-adv-x="824" 
d="M469 736v-522l178 154h-84v58h242v-61h-76l-134 -115l131 -190h79v-60h-118l-143 212l-75 -64v-89h69v-59h-206v60h68v305h-218v-305h81v-60h-219v60h69v305h-76v61h76v118q0 94 50 146q50 50 131 50q70 0 114 -41l18 37h43zM182 550v-124h218v122v12q-17 4 -28 17.5
t-11 31.5t11 34l-4 5q-31 31 -77 31q-48 0 -76 -30q-33 -33 -33 -99z" />
    <glyph glyph-name="f_f_b" unicode="ffb" horiz-adv-x="1150" 
d="M756 736v-366q66 64 146 64q85 0 144 -62t59 -159q0 -93 -60.5 -157t-153.5 -64q-78 0 -140 52l-21 -45h-43v366h-218v-305h82v-60h-218v60h67v305h-218v-305h81v-60h-219v60h69v305h-76v61h76v112q0 90 45 136q43 46 114 46q34 0 61 -11q48 -20 48 -63q0 -20 -11.5 -32
t-31.5 -12q-21 0 -35 16t-14 40q-12 2 -18 2q-44 0 -66 -30q-23 -31 -23 -87v-117h218v118q0 94 50 146q48 50 131 50q70 0 114 -41l18 37h43zM887 52q63 0 105 44.5t42 115.5q0 72 -40.5 117t-103.5 45q-72 0 -134 -64v-210q61 -48 131 -48zM648 609q0 18 11 34l-4 5
q-31 31 -77 31q-47 0 -77 -30q-32 -34 -32 -99v-124h218v122v12q-17 3 -28 17t-11 32z" />
    <glyph glyph-name="f_f_h" unicode="ffh" horiz-adv-x="1144" 
d="M756 736v-387q74 85 157 85q73 0 108 -46q29 -38 29 -98v-230h68v-60h-204v60h67v216q0 43 -19 67q-22 27 -66 27q-74 0 -140 -75v-235h67v-60h-204v60h68v305h-218v-305h81v-60h-217v60h67v305h-218v-305h81v-60h-219v60h69v305h-76v61h76v112q0 90 45 136q43 46 114 46
q34 0 61 -11q48 -20 48 -63q0 -20 -11.5 -32t-31.5 -12q-21 0 -35 16t-14 40q-12 2 -18 2q-44 0 -66 -30q-23 -31 -23 -87v-117h218v118q0 94 50 146q48 50 131 50q70 0 114 -41l18 37h43zM469 550v-124h218v122v12q-17 3 -28 17t-11 32t11 34l-4 5q-31 31 -77 31
q-47 0 -77 -30q-32 -34 -32 -99z" />
    <glyph glyph-name="f_f_j" unicode="ffj" horiz-adv-x="826" 
d="M751 426v-416q0 -72 -19 -121q-34 -89 -126 -89q-42 0 -66 19t-24 46q0 19 12.5 33t32.5 14q19 0 30.5 -12.5t11.5 -32.5q0 -7 -1 -11h7q45 0 62 59q11 32 11 87v363h-213v-305h80v-60h-216v60h67v305h-218v-305h81v-60h-219v60h69v305h-76v61h76v112q0 90 45 136
q43 46 114 46q34 0 61 -11q48 -20 48 -63q0 -20 -11.5 -32t-31.5 -12q-21 0 -35 16t-14 39q-9 3 -18 3q-44 0 -66 -30q-23 -31 -23 -87v-117h218v114q0 108 54 159q44 41 107 41q45 0 72 -21.5t27 -50.5q0 -21 -14 -35.5t-34 -14.5q-23 0 -36.5 17.5t-11.5 40.5q-10 2 -14 2
q-27 0 -50 -24q-31 -33 -31 -98v-130h282z" />
    <glyph glyph-name="f_f_k" unicode="ffk" horiz-adv-x="1111" 
d="M756 736v-522l177 154h-83v58h241v-61h-75l-135 -115l132 -190h78v-60h-117l-143 212l-75 -64v-89h69v-59h-206v60h68v305h-218v-305h81v-60h-217v60h67v305h-218v-305h81v-60h-219v60h69v305h-76v61h76v112q0 90 45 136q43 46 114 46q34 0 61 -11q48 -20 48 -63
q0 -20 -11.5 -32t-31.5 -12q-21 0 -35 16t-14 40q-12 2 -18 2q-44 0 -66 -30q-23 -31 -23 -87v-117h218v118q0 94 50 146q48 50 131 50q70 0 114 -41l18 37h43zM469 550v-124h218v122v12q-17 3 -28 17t-11 32t11 34l-4 5q-31 31 -77 31q-47 0 -77 -30q-32 -34 -32 -99z" />
    <glyph glyph-name=".notdef" horiz-adv-x="500" 
d="M0 -200v1000h500v-1000h-500zM71 750l179 -390l179 390h-358zM50 -76l172 376l-172 376v-752zM450 676l-172 -376l172 -376v752zM250 240l-179 -390h358z" />
    <glyph glyph-name=".null" horiz-adv-x="0" 
 />
    <glyph glyph-name="nonmarkingreturn" horiz-adv-x="333" 
 />
    <glyph glyph-name="space" unicode=" " horiz-adv-x="227" 
 />
    <glyph glyph-name="exclam" unicode="!" horiz-adv-x="255" 
d="M108 182l-26 475h90l-26 -475h-38zM127 -8q-24 0 -40.5 17t-16.5 41t16.5 41.5t40.5 17.5t41 -17.5t17 -41.5t-17 -41t-41 -17z" />
    <glyph glyph-name="quotedbl" unicode="&#x22;" horiz-adv-x="338" 
d="M239 420l-33 179q-7 31 7 51t40 20t40.5 -19.5t7.5 -51.5l-34 -179h-28zM69 420l-33 179q-7 31 7 51t40 20t40 -19.5t8 -51.5l-34 -179h-28z" />
    <glyph glyph-name="numbersign" unicode="#" horiz-adv-x="519" 
d="M50 326v59h102l19 123h63l-19 -123h127l20 123h63l-20 -123h94v-59h-103l-21 -139h93v-59h-102l-20 -128h-63l19 128h-127l-20 -128h-62l19 128h-93v59h102l22 139h-93zM204 328l-22 -142h131l22 142h-131z" />
    <glyph glyph-name="dollar" unicode="$" horiz-adv-x="465" 
d="M290 574l-6 -69q56 -7 94 -32t38 -61q0 -22 -12 -35t-31 -13q-20 0 -33.5 13t-13.5 33q0 14 6 26q-19 11 -56 15l-12 -162q74 -23 115.5 -55t41.5 -92q0 -69 -51.5 -104.5t-128.5 -37.5l-8 -106l-55 5l8 104q-62 8 -105 34.5t-43 69.5q0 20 13 34t32 14q21 0 34 -12.5
t13 -31.5q0 -11 -7 -29q20 -18 72 -24l14 178q-70 22 -109 51t-39 86t47 94t121 40l6 71zM353 139q0 30 -24.5 49t-71.5 34l-14 -167q48 2 79 23t31 61zM129 377q0 -26 22 -43t65 -31l11 150q-44 -2 -71 -22t-27 -54z" />
    <glyph glyph-name="percent" unicode="%" horiz-adv-x="646" 
d="M171 274q-51 0 -86 35.5t-35 85.5q0 51 35 86.5t86 35.5q50 0 85.5 -35.5t35.5 -86.5q0 -50 -35.5 -85.5t-85.5 -35.5zM475 235q51 0 86 -35.5t35 -85.5q0 -51 -35 -86.5t-86 -35.5q-50 0 -85 36t-35 86t35 85.5t85 35.5zM130 -22l-36 31q15 15 210 252l206 256l37 -30
q-24 -27 -211 -254l-81.5 -100.5l-82.5 -103t-42 -51.5zM171 323q28 0 47 21t19 51t-19 51t-47 21t-47 -21t-19 -51t19 -51t47 -21zM475 185q-28 0 -46.5 -21t-18.5 -51t18.5 -51t46.5 -21q29 0 47.5 21t18.5 51t-18.5 51t-47.5 21z" />
    <glyph glyph-name="ampersand" unicode="&#x26;" horiz-adv-x="619" 
d="M595 267h-59q-30 -89 -62 -138q73 -69 106 -95l-43 -47l-103 93q-83 -89 -207 -89q-94 0 -146 47t-52 115q0 58 34.5 101.5t102.5 82.5q-40 46 -53 77t-13 67q0 57 43 103t115 46q62 0 103.5 -36.5t41.5 -93.5q0 -48 -32 -87t-108 -85q21 -22 60 -58l106 -101
q29 43 48 98h-57v59h175v-59zM227 53q93 0 162 69l-110 103q-45 41 -75 72q-54 -33 -78 -66t-24 -76q0 -41 33 -71.5t92 -30.5zM171 479q0 -50 53 -112q62 38 85 67.5t23 65.5q0 31 -21 51.5t-53 20.5q-38 0 -62.5 -26.5t-24.5 -66.5z" />
    <glyph glyph-name="quotesingle" unicode="'" horiz-adv-x="168" 
d="M69 420l-33 179q-7 31 7 51t40 20t40 -19.5t8 -51.5l-34 -179h-28z" />
    <glyph glyph-name="parenleft" unicode="(" horiz-adv-x="364" 
d="M350 -226q-124 71 -202.5 201t-78.5 285t78.5 285t202.5 202l36 -52q-112 -69 -178 -182.5t-66 -252.5q0 -137 66.5 -251t177.5 -183z" />
    <glyph glyph-name="parenright" unicode=")" horiz-adv-x="364" 
d="M14 -226l-36 52q112 69 178 182.5t66 251.5t-66.5 252t-177.5 183l36 52q124 -72 202.5 -202t78.5 -285t-78.5 -285t-202.5 -201z" />
    <glyph glyph-name="asterisk" unicode="*" horiz-adv-x="405" 
d="M324 533l-104 -9l77 -68q19 -16 20.5 -35t-14.5 -30q-17 -12 -34.5 -5t-26.5 30l-40 95l-39 -95q-10 -23 -27 -30t-34 5q-16 11 -14.5 30t20.5 35l77 68l-104 9q-24 2 -36 17t-6 34q6 18 25 22t39 -8l89 -52l-24 101q-5 23 5 39.5t29 16.5q20 0 30 -16.5t4 -39.5
l-23 -101l89 52q20 12 39 8t25 -22q6 -19 -6 -34t-36 -17z" />
    <glyph glyph-name="plus" unicode="+" horiz-adv-x="416" 
d="M176 104v136h-134v61h134v136h63v-136h135v-61h-135v-136h-63z" />
    <glyph glyph-name="comma" unicode="," horiz-adv-x="206" 
d="M20 -151l-19 27q87 66 91 123q-21 4 -36.5 21t-15.5 39q0 24 18 41t42 17q28 0 46.5 -20.5t18.5 -57.5q0 -47 -35 -98.5t-110 -91.5z" />
    <glyph glyph-name="hyphen" unicode="-" horiz-adv-x="305" 
d="M35 243v70h235v-70h-235z" />
    <glyph glyph-name="period" unicode="." horiz-adv-x="206" 
d="M103 -8q-26 0 -43.5 18.5t-17.5 44.5t17.5 44.5t43.5 18.5t43.5 -18.5t17.5 -44.5t-17.5 -44.5t-43.5 -18.5z" />
    <glyph glyph-name="slash" unicode="/" horiz-adv-x="465" 
d="M39 -209l-61 27l410 924l61 -27z" />
    <glyph glyph-name="zero" unicode="0" horiz-adv-x="554" 
d="M277 -8q-100 0 -165 75t-65 187q0 114 64.5 188t165.5 74q100 0 165.5 -74.5t65.5 -187.5t-65 -187.5t-166 -74.5zM277 53q71 0 114.5 56.5t43.5 144.5t-43.5 144.5t-114.5 56.5q-70 0 -114 -56.5t-44 -144.5t44 -144.5t114 -56.5z" />
    <glyph glyph-name="one" unicode="1" horiz-adv-x="409" 
d="M63 0v60h120v374l-107 -27l-16 60l162 43h31v-450h118v-60h-308z" />
    <glyph glyph-name="two" unicode="2" horiz-adv-x="495" 
d="M235 455q-71 0 -104 -40l-3 -5q25 -12 25 -38q0 -20 -14 -34.5t-34 -14.5q-22 0 -37 17t-15 44t19 55q24 33 68.5 55t98.5 22q86 0 135 -43t49 -103q0 -30 -11 -55.5t-35 -48.5t-46 -38.5t-59 -38.5q-112 -68 -147 -130h253v86h62v-145h-394l-9 35q26 64 75.5 109.5
t124.5 93.5q41 26 61 41.5t37.5 39.5t17.5 50q0 38 -32 62t-86 24z" />
    <glyph glyph-name="three" unicode="3" horiz-adv-x="492" 
d="M35 8q0 25 16 42.5t38 17.5q20 0 33 -13.5t13 -32.5q0 -29 -25 -41l4 -6q37 -39 121 -39q62 0 102 33t40 83q0 72 -73 105q-47 22 -113 22h-22v59h25q65 0 115 28q61 36 61 91q0 46 -35 71.5t-93 25.5q-77 0 -108 -38l-3 -4q27 -13 27 -40q0 -20 -14.5 -33t-33.5 -13
q-22 0 -37.5 17t-15.5 43q0 27 19 55q22 33 66.5 54t103.5 21q85 0 139.5 -46t54.5 -112q0 -37 -23 -70.5t-60 -54.5q-32 -18 -65 -22q33 -6 62 -20q93 -47 93 -139q0 -80 -60.5 -129t-152.5 -49q-59 0 -107.5 21.5t-72.5 56.5q-19 27 -19 56z" />
    <glyph glyph-name="four" unicode="4" horiz-adv-x="514" 
d="M317 -120v178h-287l-13 30l322 431l52 -39l-270 -363h196v142l67 27v-169h112v-59h-112v-178h-67z" />
    <glyph glyph-name="five" unicode="5" horiz-adv-x="485" 
d="M42 -14q0 24 15 41t37 17q20 0 34 -13t14 -33q0 -22 -17 -36q0 -1 1 -1q32 -24 99 -24q65 0 105.5 39t40.5 100q0 60 -39 97t-105 37q-71 0 -134 -29l-31 18l37 309h310v-66h-256l-21 -187q47 15 102 15q91 0 150 -53.5t59 -140.5t-61.5 -143.5t-152.5 -56.5
q-105 0 -158 48q-29 27 -29 62z" />
    <glyph glyph-name="six" unicode="6" horiz-adv-x="532" 
d="M298 579q-71 0 -122.5 -74t-55.5 -202q21 37 65 61.5t96 24.5q89 0 147.5 -55.5t58.5 -135.5q0 -87 -60.5 -147t-153.5 -60t-153 60q-68 69 -68 217q0 184 74.5 278t177.5 94q84 0 129 -47q26 -26 26 -57q0 -26 -16 -42.5t-37 -16.5q-22 0 -35.5 14t-13.5 35q0 20 13 31
q-25 22 -72 22zM273 52q64 0 103.5 41t39.5 105q0 57 -38 94t-100 37q-65 0 -107.5 -42t-42.5 -99q0 -56 40 -96q42 -40 105 -40z" />
    <glyph glyph-name="seven" unicode="7" horiz-adv-x="470" 
d="M156 -122l-61 29l255 543h-255v-100h-64v158h393l14 -30z" />
    <glyph glyph-name="eight" unicode="8" horiz-adv-x="504" 
d="M251 -8q-91 0 -149 50.5t-58 126.5q0 53 33 95t85 61q-47 20 -76 61t-29 81q0 75 56 123.5t138 48.5q83 0 139 -48.5t56 -123.5q0 -43 -29 -82t-77 -60q52 -19 86 -61.5t34 -94.5q0 -76 -59 -126.5t-150 -50.5zM251 352q51 0 87.5 33t36.5 79q0 49 -35.5 81.5t-88.5 32.5
q-52 0 -87 -32.5t-35 -81.5q0 -46 36 -79t86 -33zM251 53q58 0 96.5 34.5t38.5 85.5q0 52 -38.5 87t-96.5 35q-57 0 -95.5 -35t-38.5 -87q0 -51 38.5 -85.5t95.5 -34.5z" />
    <glyph glyph-name="nine" unicode="9" horiz-adv-x="532" 
d="M221 -124q-86 0 -131 50q-23 25 -23 55q0 27 15.5 43t36.5 16q22 0 36 -14.5t14 -34.5t-13 -31q25 -22 72 -22q74 0 126.5 70t56.5 194q-21 -36 -65 -59t-96 -23q-89 0 -147.5 54.5t-58.5 134.5q0 88 60.5 147.5t153.5 59.5q94 0 152 -58q69 -70 69 -219
q0 -183 -76.5 -273t-181.5 -90zM363 416q-41 39 -105 39t-103 -41t-39 -105q0 -56 37.5 -92t99.5 -36q65 0 107.5 40.5t42.5 98.5q0 56 -40 96z" />
    <glyph glyph-name="colon" unicode=":" horiz-adv-x="225" 
d="M113 258q-25 0 -43 18t-18 44t18 44t43 18t43 -18t18 -44t-18 -44t-43 -18zM113 -8q-25 0 -43 18t-18 44t18 44t43 18t43 -18t18 -44t-18 -44t-43 -18z" />
    <glyph glyph-name="semicolon" unicode=";" horiz-adv-x="225" 
d="M113 258q-25 0 -43 18t-18 44t18 44t43 18t43 -18t18 -44t-18 -44t-43 -18zM31 -149l-19 27q88 65 90 121q-21 4 -36 21t-15 38q0 23 17.5 40t41.5 17q28 0 46.5 -20t18.5 -56q0 -46 -35 -97.5t-109 -90.5z" />
    <glyph glyph-name="less" unicode="&#x3c;" horiz-adv-x="389" 
d="M292 79l-251 170v33l251 170l33 -48l-204 -139l204 -138z" />
    <glyph glyph-name="equal" unicode="=" horiz-adv-x="416" 
d="M42 314v61h332v-61h-332zM42 153v61h332v-61h-332z" />
    <glyph glyph-name="greater" unicode="&#x3e;" horiz-adv-x="389" 
d="M98 79l-34 48l204 138l-204 139l34 48l251 -170v-33z" />
    <glyph glyph-name="question" unicode="?" horiz-adv-x="446" 
d="M21 528q0 37 25 70q25 32 69 52t96 20q93 0 149.5 -50t56.5 -127q0 -68 -49 -121t-135 -73l-10 -117h-42l-16 161q88 17 133 55.5t45 92.5q0 52 -35.5 83.5t-97.5 31.5q-77 0 -109 -43q-4 -6 -5 -9q14 -4 22.5 -16t8.5 -26q0 -21 -13 -35t-34 -14q-23 0 -41 18.5
t-18 46.5zM203 -8q-24 0 -40.5 17t-16.5 41t16.5 41.5t40.5 17.5t40.5 -17.5t16.5 -41.5t-16.5 -41t-40.5 -17z" />
    <glyph glyph-name="at" unicode="@" horiz-adv-x="805" 
d="M337 -176q-130 0 -211 86t-81 219q0 199 126.5 339t300.5 140q132 0 211.5 -79t79.5 -208q0 -119 -56.5 -202t-137.5 -83q-46 0 -70 24.5t-22 59.5q-22 -39 -57 -61.5t-75 -22.5q-54 0 -88.5 38t-34.5 101q0 87 54.5 151.5t128.5 64.5q43 0 70.5 -23t37.5 -59l22 78h64
l-56 -224q-22 -79 36 -79q56 0 97 71.5t41 165.5q0 107 -66.5 176t-178.5 69q-157 0 -269 -128t-112 -310q0 -112 68.5 -187t178.5 -75q85 0 160 40l19 -36q-83 -46 -180 -46zM370 95q52 0 89.5 46t37.5 104q0 40 -22 62.5t-61 22.5q-50 0 -85 -44.5t-35 -104.5
q0 -39 19.5 -62.5t56.5 -23.5z" />
    <glyph glyph-name="A" unicode="A" horiz-adv-x="706" 
d="M18 0v66h63l197 527h-75v65h300v-65h-75l197 -527h63v-66h-220v65h77l-59 162h-269l-59 -162h80v-65h-220zM239 290h225l-112 307z" />
    <glyph glyph-name="B" unicode="B" horiz-adv-x="605" 
d="M47 0v66h84v526h-84v66h264q110 0 165.5 -47.5t55.5 -119.5q0 -57 -32.5 -97t-87.5 -57q139 -36 139 -157q0 -80 -61 -130t-167 -50h-276zM205 65h120q71 0 111.5 32.5t40.5 86.5q0 59 -45.5 90t-127.5 31h-99v-240zM205 366h97q76 0 116 32t40 86q0 52 -38.5 80.5
t-110.5 28.5h-104v-227z" />
    <glyph glyph-name="C" unicode="C" horiz-adv-x="702" 
d="M393 -12q-148 0 -242.5 99t-94.5 239q0 149 98.5 246.5t235.5 97.5q101 0 173.5 -50.5t72.5 -111.5q0 -28 -16.5 -46.5t-41.5 -18.5q-23 0 -39 15.5t-16 37.5q0 30 25 40q-16 25 -58.5 45.5t-100.5 20.5q-111 0 -184 -81t-73 -194q0 -109 74 -190t187 -81t204 85l44 -53
q-100 -100 -248 -100z" />
    <glyph glyph-name="D" unicode="D" horiz-adv-x="728" 
d="M47 0v66h84v526h-84v66h247q172 0 275 -88t103 -234q0 -152 -101 -244t-280 -92h-244zM206 66h94q144 0 220 73.5t76 197.5q0 118 -82 186.5t-222 68.5h-86v-526z" />
    <glyph glyph-name="E" unicode="E" horiz-adv-x="588" 
d="M47 0v66h84v526h-84v66h478v-161h-71v96h-248v-226h215v-64h-215v-238h248v96h72v-161h-479z" />
    <glyph glyph-name="F" unicode="F" horiz-adv-x="567" 
d="M47 0v66h84v526h-84v66h471v-161h-72v96h-240v-238h211v-64h-211v-225h91v-66h-250z" />
    <glyph glyph-name="G" unicode="G" horiz-adv-x="737" 
d="M376 -12q-131 0 -225.5 92.5t-94.5 243.5q0 152 100 249t241 97q105 0 176 -48t71 -104q0 -27 -16 -44.5t-40 -17.5q-23 0 -38.5 15t-15.5 38q0 24 17 38q-21 23 -62.5 39t-93.5 16q-116 0 -189.5 -79.5t-73.5 -198.5t73.5 -194.5t178.5 -75.5t195 63v140h-182v63h255
v-320h-71v57q-91 -69 -205 -69z" />
    <glyph glyph-name="H" unicode="H" horiz-adv-x="776" 
d="M47 0v66h84v526h-84v66h245v-66h-86v-222h364v222h-86v66h245v-66h-84v-526h84v-66h-245v66h86v238h-364v-238h86v-66h-245z" />
    <glyph glyph-name="I" unicode="I" horiz-adv-x="348" 
d="M48 0v66h89v526h-89v66h252v-66h-89v-526h89v-66h-252z" />
    <glyph glyph-name="J" unicode="J" horiz-adv-x="529" 
d="M216 -12q-77 0 -131.5 47t-54.5 114q0 34 17.5 55.5t44.5 21.5q20 0 35.5 -14.5t15.5 -36.5q0 -17 -10 -29.5t-26 -16.5q3 -26 32.5 -49t76.5 -23q54 0 87 34q38 37 38 133v368h-101v66h254v-66h-79v-369q0 -123 -58 -181q-54 -54 -141 -54z" />
    <glyph glyph-name="K" unicode="K" horiz-adv-x="675" 
d="M47 0v66h84v526h-84v66h245v-65h-86v-287l285 287h-88v65h254v-66h-74l-214 -213l210 -313h83v-66h-131l-217 330l-108 -108v-156h86v-66h-245z" />
    <glyph glyph-name="L" unicode="L" horiz-adv-x="554" 
d="M47 0v66h84v526h-84v66h250v-66h-91v-527h228v101h71v-166h-458z" />
    <glyph glyph-name="M" unicode="M" horiz-adv-x="882" 
d="M42 0v66h86l24 526h-88v66h160l215 -447l216 447h159v-66h-88l24 -526h85v-66h-242v66h84l-17 460l-212 -433h-20l-212 433l-16 -460h83v-66h-241z" />
    <glyph glyph-name="N" unicode="N" horiz-adv-x="764" 
d="M606 -3l-403 531v-462h86v-66h-242v66h84v526h-84v66h149l380 -501v435h-87v66h239v-66h-81v-594z" />
    <glyph glyph-name="O" unicode="O" horiz-adv-x="777" 
d="M387 -12q-143 0 -237 98t-94 242q0 146 95 244t240 98q142 0 236.5 -98t94.5 -242q0 -145 -95.5 -243.5t-239.5 -98.5zM389 56q112 0 184 78t72 194q0 117 -72 195.5t-184 78.5t-184.5 -77.5t-72.5 -194.5t72.5 -195.5t184.5 -78.5z" />
    <glyph glyph-name="P" unicode="P" horiz-adv-x="581" 
d="M47 0v66h84v526h-84v66h253q105 0 174 -56.5t69 -150.5q0 -100 -66.5 -157t-177.5 -57q-55 0 -93 2v-173h89v-66h-248zM303 302q76 0 120.5 40t44.5 108q0 66 -47 104t-120 38h-95v-288q40 -2 97 -2z" />
    <glyph glyph-name="Q" unicode="Q" horiz-adv-x="777" 
d="M655 -139q-32 0 -65 11t-53 23t-52 33.5l-43 28.5q-42 26 -99 36q-109 17 -181 83q-49 44 -77.5 110.5t-28.5 141.5q0 146 95 244t240 98q142 0 236.5 -98t94.5 -242q0 -122 -67 -210t-176 -112q22 -8 56 -29q40 -26 64 -36.5t53 -10.5q43 0 81 26l34 -60
q-47 -37 -112 -37zM389 56q112 0 184 78t72 194q0 117 -72 195.5t-184 78.5t-184.5 -77.5t-72.5 -194.5q0 -128 83 -206q71 -68 174 -68z" />
    <glyph glyph-name="R" unicode="R" horiz-adv-x="618" 
d="M47 0v66h84v526h-84v66h250q109 0 174 -51.5t65 -139.5q0 -66 -38.5 -112.5t-102.5 -67.5l138 -221h79v-66h-130l-162 269q-24 -2 -38 -2q-38 0 -76 2v-203h86v-66h-245zM286 332q78 0 126.5 35t48.5 98q0 61 -45 94t-123 33h-87v-258q40 -2 80 -2z" />
    <glyph glyph-name="S" unicode="S" horiz-adv-x="549" 
d="M274 -11q-93 0 -156 42.5t-63 93.5q0 28 15 45.5t38 17.5t37.5 -14.5t14.5 -34.5q0 -23 -16 -44q41 -41 131 -41q66 0 103.5 31t37.5 85q0 46 -34.5 73.5t-102.5 53.5q-50 19 -80 34t-60.5 38t-44.5 54t-14 72q0 77 56 126t147 49q80 0 138 -39t58 -91q0 -27 -15 -42.5
t-37 -15.5q-23 0 -38 15t-15 36q0 20 14 38q-13 15 -44 24t-63 9q-58 0 -92.5 -28.5t-34.5 -74.5q0 -48 35.5 -75t109.5 -56q48 -18 77 -33t58 -37.5t42.5 -53t13.5 -70.5q0 -85 -60.5 -136t-155.5 -51z" />
    <glyph glyph-name="T" unicode="T" horiz-adv-x="631" 
d="M189 0v66h89v529h-165v-106h-71v169h547v-169h-71v106h-165v-529h89v-66h-253z" />
    <glyph glyph-name="U" unicode="U" horiz-adv-x="710" 
d="M354 -12q-113 0 -175.5 62t-62.5 177v365h-83v66h243v-66h-87v-360q0 -87 43 -131.5t123 -44.5t123.5 43.5t43.5 130.5v362h-87v66h242v-66h-83v-362q0 -116 -64 -179t-176 -63z" />
    <glyph glyph-name="V" unicode="V" horiz-adv-x="696" 
d="M327 -10l-244 602h-65v66h222v-66h-75l185 -475l185 475h-79v66h222v-66h-64l-244 -602h-43z" />
    <glyph glyph-name="W" unicode="W" horiz-adv-x="990" 
d="M284 -10l-187 602h-76v66h238v-66h-83l138 -461l165 448h41l166 -447l134 460h-86v66h237v-66h-76l-184 -602h-43l-170 453l-171 -453h-43z" />
    <glyph glyph-name="X" unicode="X" horiz-adv-x="721" 
d="M40 0v66h69l208 271l-193 255h-72v66h229v-64h-72l153 -214l156 214h-77v64h229v-66h-71l-194 -254l207 -272h69v-66h-227v64h73l-167 231l-170 -231h77v-64h-227z" />
    <glyph glyph-name="Y" unicode="Y" horiz-adv-x="642" 
d="M191 0v66h92v197l-194 329h-70v66h221v-66h-68l150 -265l151 265h-71v66h222v-66h-71l-195 -328v-198h93v-66h-260z" />
    <glyph glyph-name="Z" unicode="Z" horiz-adv-x="606" 
d="M45 0v36l403 560h-314v-104h-68v166h488v-36l-403 -560h343v104h67v-166h-516z" />
    <glyph glyph-name="bracketleft" unicode="[" 
d="M101 -200v932h229v-64h-158v-804h158v-64h-229z" />
    <glyph glyph-name="backslash" unicode="\" horiz-adv-x="465" 
d="M426 -209l-410 924l61 27l410 -924z" />
    <glyph glyph-name="bracketright" unicode="]" 
d="M23 -200v64h159v804h-159v64h229v-932h-229z" />
    <glyph glyph-name="asciicircum" unicode="^" horiz-adv-x="446" 
d="M101 357l-32 38l154 147l154 -147l-32 -38l-122 89z" />
    <glyph glyph-name="underscore" unicode="_" horiz-adv-x="533" 
d="M-6 -148v67h545v-67h-545z" />
    <glyph glyph-name="grave" unicode="`" horiz-adv-x="418" 
d="M266 503l-151 86q-34 21 -34 44q0 19 11.5 31t28.5 12q20 0 43 -23l120 -126z" />
    <glyph glyph-name="a" unicode="a" horiz-adv-x="492" 
d="M186 -8q-62 0 -101.5 34t-39.5 88q0 58 46 93.5t118 35.5q68 0 123 -20v59q0 36 -19 60q-31 34 -93 34q-38 0 -66 -18q6 -14 6 -25q0 -19 -12.5 -31.5t-32.5 -12.5q-19 0 -31.5 13t-12.5 33q0 40 42.5 69.5t115.5 29.5q92 0 137 -50q32 -35 32 -92v-232h69v-60h-133v54
q-64 -62 -148 -62zM204 48q69 0 128 59v71q-60 17 -115 17q-49 0 -75.5 -21t-26.5 -55q0 -32 23.5 -51.5t65.5 -19.5z" />
    <glyph glyph-name="b" unicode="b" horiz-adv-x="545" 
d="M285 -8q-78 0 -140 52l-21 -45h-43v673h-68v60h137v-362q66 64 146 64q85 0 144 -62t59 -159q0 -93 -60.5 -157t-153.5 -64zM281 52q63 0 105 44.5t42 115.5q0 72 -40.5 117t-103.5 45q-72 0 -134 -64v-210q61 -48 131 -48z" />
    <glyph glyph-name="c" unicode="c" horiz-adv-x="473" 
d="M268 -8q-97 0 -161.5 63t-64.5 157q0 90 62.5 156t150.5 66q71 0 122.5 -39.5t51.5 -88.5q0 -24 -15.5 -41t-38.5 -17q-18 0 -32 13t-14 34q0 22 21 35q-8 19 -35.5 32t-60.5 13q-53 0 -97 -44t-44 -120q0 -70 45 -114t118 -44q69 0 142 47l-6 -67q-61 -41 -144 -41z" />
    <glyph glyph-name="d" unicode="d" horiz-adv-x="550" 
d="M246 -8q-86 0 -144 61t-58 157q0 93 58.5 158.5t152.5 65.5q78 0 132 -51v289h-80v60h149v-672h69v-60h-136v60q-61 -68 -143 -68zM256 52q71 0 131 64v209q-58 49 -128 49q-63 0 -103 -46t-40 -117q-1 -71 39 -115t101 -44z" />
    <glyph glyph-name="e" unicode="e" horiz-adv-x="485" 
d="M441 193h-328q7 -69 50 -104.5t114 -35.5q69 0 150 47l-6 -67q-67 -41 -153 -41q-102 0 -164.5 61t-62.5 159q0 92 57.5 157t151.5 65q91 0 143 -58.5t52 -142.5q0 -25 -4 -40zM246 375q-50 0 -87.5 -34t-44.5 -93h261q-4 58 -37 92.5t-92 34.5z" />
    <glyph glyph-name="f" unicode="f" horiz-adv-x="318" 
d="M291 636q-38 0 -52 42q-22 -5 -33 -20q-23 -28 -23 -89v-143h110v-61h-110v-305h83v-60h-221v60h69v305h-76v61h76v127q0 103 45 148q41 39 97 39q35 0 56.5 -15.5t21.5 -41.5q0 -21 -12.5 -34t-30.5 -13z" />
    <glyph glyph-name="g" unicode="g" horiz-adv-x="556" 
d="M457 365v-379q0 -77 -39 -124q-51 -62 -162 -62q-97 0 -145 46q-22 22 -22 49q0 22 14 37t36 15q18 0 30 -12.5t12 -30.5q0 -16 -9 -28q28 -17 84 -17q73 0 107 42q25 31 25 82v83q-61 -63 -142 -63q-85 0 -143.5 60t-58.5 152q0 89 59 154t152 65q78 0 136 -55v47h135
v-61h-69zM261 373q-64 0 -104.5 -44.5t-40.5 -112.5q0 -67 39.5 -110t101.5 -43q72 0 131 62v200q-55 48 -127 48z" />
    <glyph glyph-name="h" unicode="h" horiz-adv-x="556" 
d="M99 672h-68v60h137v-383q74 85 158 85q73 0 108 -46q28 -37 28 -98v-230h69v-60h-205v60h67v216q0 45 -19 67q-21 27 -66 27q-72 0 -140 -75v-235h67v-60h-204v60h68v612z" />
    <glyph glyph-name="i" unicode="i" horiz-adv-x="290" 
d="M140 535q-22 0 -38.5 16.5t-16.5 38.5t16.5 39t39.5 17q22 0 38 -16.5t16 -39.5q0 -22 -16.5 -38.5t-38.5 -16.5zM43 0v60h72v305h-72v61h141v-366h72v-60h-213z" />
    <glyph glyph-name="j" unicode="j" horiz-adv-x="259" 
d="M-52 -135q0 19 12.5 33t32.5 14q19 0 31 -12.5t12 -32.5q0 -1 -0.5 -5t-0.5 -6h6q46 0 63 59q11 36 11 87v363h-82v61h151v-416q0 -72 -19 -121q-34 -89 -126 -89q-42 0 -66.5 19t-24.5 46zM137 535q-23 0 -39 16.5t-16 38.5t17 39t39 17t38 -16.5t16 -39.5
q0 -22 -16 -38.5t-39 -16.5z" />
    <glyph glyph-name="k" unicode="k" horiz-adv-x="524" 
d="M31 0v60h68v612h-68v60h137v-518l178 154h-83v58h241v-61h-76l-134 -115l132 -190h78v-60h-118l-142 212l-76 -64v-89h69v-59h-206z" />
    <glyph glyph-name="l" unicode="l" horiz-adv-x="278" 
d="M33 0v60h72v612h-72v60h141v-672h72v-60h-213z" />
    <glyph glyph-name="m" unicode="m" horiz-adv-x="831" 
d="M41 0v60h68v305h-68v61h134v-79q70 87 155 87q76 0 106 -51q8 -14 13 -33q82 84 157 84q86 0 116 -62q15 -34 15 -82v-230h68v-60h-203v60h66v217q0 32 -8 54q-16 39 -67 39q-64 0 -135 -73v-237h66v-60h-203v60h68v217q0 32 -8 54q-16 39 -68 39q-64 0 -135 -75v-235h66
v-60h-203z" />
    <glyph glyph-name="n" unicode="n" horiz-adv-x="563" 
d="M175 426v-79q74 87 160 87q79 0 113 -55q21 -36 21 -89v-230h68v-60h-204v60h67v216q0 36 -11 57q-18 37 -71 37q-72 0 -140 -75v-235h67v-60h-204v60h68v305h-68v61h134z" />
    <glyph glyph-name="o" unicode="o" horiz-adv-x="526" 
d="M263 -8q-98 0 -158.5 63.5t-60.5 157.5q0 92 61 156.5t158 64.5t158 -64t61 -157t-61 -157t-158 -64zM263 52q65 0 106 45t41 116t-41 116t-106 45t-106 -45t-41 -116t41 -116t106 -45z" />
    <glyph glyph-name="p" unicode="p" horiz-adv-x="555" 
d="M31 -196v60h68v501h-68v61h135v-61q62 69 143 69q85 0 143 -61t58 -158q0 -93 -58.5 -158t-151.5 -65q-75 0 -132 49v-177h82v-60h-219zM296 53q62 0 101.5 45.5t40.5 115.5q1 71 -38.5 115t-100.5 44q-70 0 -131 -63v-210q56 -47 128 -47z" />
    <glyph glyph-name="q" unicode="q" horiz-adv-x="531" 
d="M308 -196v60h85v192q-64 -64 -146 -64q-85 0 -144 62t-59 159q0 93 60.5 157t153.5 64q79 0 140 -53l21 45h43v-562h69v-60h-223zM259 53q74 0 134 62v211q-60 47 -131 47q-63 0 -104.5 -44t-41.5 -116q0 -71 40.5 -115.5t102.5 -44.5z" />
    <glyph glyph-name="r" unicode="r" horiz-adv-x="380" 
d="M305 434q30 0 47 -16.5t17 -39.5q0 -21 -14 -36t-34 -15q-38 0 -51 36q-24 -7 -50 -32.5t-42 -57.5v-213h80v-60h-217v60h68v305h-68v61h134v-97q26 46 61.5 75.5t68.5 29.5z" />
    <glyph glyph-name="s" unicode="s" horiz-adv-x="437" 
d="M376 341q0 -20 -12 -33t-30 -13q-20 0 -33 12.5t-13 31.5q0 14 5 24q-22 15 -75 15q-42 0 -67.5 -18.5t-25.5 -43.5q0 -26 24.5 -39.5t84.5 -28.5q79 -19 118.5 -45.5t39.5 -82.5q0 -59 -49.5 -93.5t-120.5 -34.5q-47 0 -89.5 13.5t-64.5 35.5q-23 23 -23 53
q0 19 12.5 33t30.5 14q20 0 33 -12.5t13 -31.5q0 -10 -7 -26q31 -24 95 -24q45 0 74.5 18t29.5 48q0 27 -24.5 41.5t-76.5 27.5q-88 22 -127.5 48t-39.5 81q0 50 44 86.5t118 36.5q90 0 134 -44q22 -22 22 -49z" />
    <glyph glyph-name="t" unicode="t" horiz-adv-x="333" 
d="M200 -8q-68 0 -94 50q-11 22 -11 59v264h-79v61h79v103l68 27v-130h131v-61h-131v-254q0 -20 7 -33q12 -22 50 -22q35 0 80 26l-9 -66q-44 -24 -91 -24z" />
    <glyph glyph-name="u" unicode="u" horiz-adv-x="553" 
d="M228 -8q-81 0 -114 57q-20 35 -20 87v229h-68v61h137v-277q0 -36 12 -57q19 -36 70 -36q67 0 140 75v234h-70v61h139v-366h68v-60h-135v79q-74 -87 -159 -87z" />
    <glyph glyph-name="v" unicode="v" horiz-adv-x="522" 
d="M242 -14l-179 379h-56v61h198v-59h-68l126 -281l125 281h-70v59h197v-61h-56l-179 -379h-38z" />
    <glyph glyph-name="w" unicode="w" horiz-adv-x="696" 
d="M187 -18l-117 383h-63v61h197v-59h-68l77 -269l119 280h37l118 -280l77 269h-72v59h197v-61h-64l-116 -383h-38l-123 290l-124 -290h-37z" />
    <glyph glyph-name="x" unicode="x" horiz-adv-x="503" 
d="M20 0v60h58l136 156l-128 149h-59v61h186v-57h-54l93 -119l94 119h-56v57h185v-61h-59l-127 -147l137 -158h57v-60h-190v56h59l-102 129l-103 -129h62v-56h-189z" />
    <glyph glyph-name="y" unicode="y" horiz-adv-x="513" 
d="M212 -128q-50 -72 -110 -72q-31 0 -52.5 16t-21.5 40q0 20 12 32t31 12q33 0 45 -37q26 10 51 48q8 12 32 60l26 53l-160 341h-59v61h199v-59h-67l20.5 -45.5l39 -88.5l43.5 -100l17 -40l122 274h-70v59h196v-61h-58l-201 -432q-18 -37 -35 -61z" />
    <glyph glyph-name="z" unicode="z" horiz-adv-x="450" 
d="M37 0v31l273 338h-195v-83h-61v140h356v-31l-273 -338h216v83h61v-140h-377z" />
    <glyph glyph-name="braceleft" unicode="{" horiz-adv-x="347" 
d="M295 -217q-111 3 -170 45.5t-59 110.5q0 39 18 67t60 69q47 47 47 78q0 36 -34 58t-86 22h-19v62h19q52 0 86 22t34 58q0 31 -47 78q-42 41 -60 69t-18 67q0 68 59 110.5t170 45.5v-55q-83 -4 -121.5 -33t-38.5 -68q0 -34 61 -98q33 -35 50 -61.5t17 -55.5
q0 -36 -28.5 -66.5t-88.5 -43.5q60 -13 88.5 -43.5t28.5 -66.5q0 -29 -17 -55.5t-50 -61.5q-61 -64 -61 -98q0 -39 38.5 -68t121.5 -33v-55z" />
    <glyph glyph-name="bar" unicode="|" horiz-adv-x="270" 
d="M104 -200v932h62v-932h-62z" />
    <glyph glyph-name="braceright" unicode="}" horiz-adv-x="347" 
d="M52 -217v55q83 4 121.5 33t38.5 68q0 34 -61 98q-33 35 -50 61.5t-17 55.5q0 36 28.5 66.5t88.5 43.5q-60 13 -88.5 43.5t-28.5 66.5q0 29 17 55.5t50 61.5q61 64 61 98q0 39 -38.5 68t-121.5 33v55q111 -3 169.5 -45.5t58.5 -110.5q0 -38 -18 -66.5t-59 -69.5
q-48 -46 -48 -78q0 -36 34.5 -58t86.5 -22h18v-62h-18q-52 0 -86.5 -22t-34.5 -58q0 -32 48 -78q41 -41 59 -69.5t18 -66.5q0 -68 -58.5 -110.5t-169.5 -45.5z" />
    <glyph glyph-name="asciitilde" unicode="~" horiz-adv-x="432" 
d="M287 191q-44 0 -87 39q-34 28 -51 28q-36 0 -47 -59l-54 13q4 51 32.5 83.5t64.5 32.5q43 0 88 -39q32 -28 51 -28q35 0 46 59l54 -13q-4 -50 -32.5 -83t-64.5 -33z" />
    <glyph glyph-name="uni00A0" unicode="&#xa0;" horiz-adv-x="227" 
 />
    <glyph glyph-name="exclamdown" unicode="&#xa1;" horiz-adv-x="255" 
d="M127 548q-24 0 -40.5 17.5t-16.5 41.5t16.5 41t40.5 17t41 -17t17 -41t-17 -41.5t-41 -17.5zM82 0l26 475h38l26 -475h-90z" />
    <glyph glyph-name="cent" unicode="&#xa2;" horiz-adv-x="502" 
d="M455 348q0 -22 -15.5 -39t-37.5 -17q-18 0 -31 12t-13 33q0 22 21 36q-16 31 -77 42l-29 -323h20q78 0 151 47l-6 -65q-58 -40 -150 -40h-19l-12 -140l-55 5l12 145q-76 21 -122.5 79t-46.5 132q0 83 60.5 147t148.5 71l9 106l55 -5l-9 -103q61 -10 103.5 -46t42.5 -77z
M116 254q0 -53 28 -93t78 -58l27 313q-55 -8 -94 -51t-39 -111z" />
    <glyph glyph-name="sterling" unicode="&#xa3;" horiz-adv-x="479" 
d="M363 121h-164v-16q0 -74 -50 -126q47 -4 96 -20q61 -20 98 -20q30 0 47.5 12.5t35.5 43.5l49 -27q-21 -49 -52 -70.5t-78 -21.5q-53 0 -120 26q-52 20 -96 20h-15q-33 -46 -80 -46q-21 0 -34 11t-13 26q0 27 26 46t74 21q49 54 49 124q0 11 -1 17h-103v57h93l-10 29
q-25 73 -25 124q0 77 50.5 131t133.5 54q66 0 112.5 -32t46.5 -76q0 -28 -14 -43t-34 -15q-19 0 -31.5 12.5t-12.5 32.5q0 21 13 34q-22 28 -81 28q-54 0 -85.5 -37.5t-31.5 -88.5q0 -53 22 -116q1 -4 5.5 -17t6.5 -20h173v-57z" />
    <glyph glyph-name="yen" unicode="&#xa5;" horiz-adv-x="500" 
d="M78 235v55h104l-103 161h-61v57h183v-56h-56l105 -171l104 171h-57v56h182v-57h-62l-103 -161h105v-55h-137l-3 -5v-54h140v-55h-140v-66h80v-55h-220v55h80v66h-141v55h141v54l-3 5h-138z" />
    <glyph glyph-name="section" unicode="&#xa7;" horiz-adv-x="455" 
d="M234 516q60 0 102.5 -23.5t42.5 -59.5q0 -18 -11.5 -30.5t-29.5 -12.5q-19 0 -31 11.5t-12 29.5q0 10 3 16q-22 16 -66 16q-36 0 -56.5 -12t-20.5 -31q0 -20 25 -33t81 -29q68 -19 101.5 -41.5t33.5 -61.5q0 -58 -78 -86q51 -27 51 -77q0 -42 -40.5 -72t-108.5 -30
q-59 0 -102 23t-43 60q0 18 11 30t30 12t31 -11t12 -29q0 -10 -4 -17q21 -16 66 -16q37 0 57 12t20 31q0 20 -23 32t-84 30q-66 18 -100 40.5t-34 60.5q0 62 79 88q-53 27 -53 78q0 41 42 71.5t109 30.5zM227 200l33 -9q66 20 66 54q0 21 -23 33.5t-77 27.5l-33 9
q-66 -20 -66 -55q0 -21 23 -33.5t77 -26.5z" />
    <glyph glyph-name="dieresis" unicode="&#xa8;" horiz-adv-x="464" 
d="M319 519q-24 0 -40.5 17t-16.5 40q0 24 17 41t40 17q24 0 40 -17t16 -41q0 -23 -16.5 -40t-39.5 -17zM144 519q-23 0 -39.5 17t-16.5 40q0 24 17 41t40 17t39.5 -17t16.5 -41q0 -23 -16.5 -40t-40.5 -17z" />
    <glyph glyph-name="copyright" unicode="&#xa9;" horiz-adv-x="605" 
d="M299 -8q-110 0 -183.5 76t-73.5 186t74 186t183 76q110 0 183.5 -76t73.5 -186t-74 -186t-183 -76zM299 28q92 0 154 66t62 160q0 95 -62 161t-154 66t-153.5 -66t-61.5 -161t61.5 -160.5t153.5 -65.5zM307 356q-38 0 -64 -28t-26 -69t26 -69.5t68 -28.5q41 0 76 33
l23 -26q-37 -43 -100 -43q-59 0 -97 37.5t-38 94.5q0 58 39.5 96t92.5 38q43 0 71 -19.5t28 -42.5q0 -12 -7.5 -20.5t-18.5 -8.5q-10 0 -17 7.5t-7 17.5q0 8 4 14q-13 17 -53 17z" />
    <glyph glyph-name="ordfeminine" unicode="&#xaa;" horiz-adv-x="344" 
d="M122 407q-37 0 -60.5 19.5t-23.5 52.5q0 35 27.5 56t71.5 21q39 0 71 -10v31q0 28 -19 42q-17 12 -46 12q-25 0 -36 -8q3 -6 3 -15q0 -12 -8 -20t-20 -8q-13 0 -20.5 8t-7.5 22q0 24 25.5 42t70.5 18q43 0 69 -17q35 -23 35 -71v-131h40v-39h-85v31q-38 -36 -87 -36z
M47 298v44h247v-44h-247zM135 444q41 0 73 32v41q-31 9 -65 9q-27 0 -42 -11.5t-15 -31.5q0 -39 49 -39z" />
    <glyph glyph-name="guillemotleft" unicode="&#xab;" horiz-adv-x="485" 
d="M394 107l-172 168l172 168l43 -41l-124 -127l124 -127zM202 107l-172 168l172 168l43 -41l-124 -127l124 -127z" />
    <glyph glyph-name="registered" unicode="&#xae;" horiz-adv-x="392" 
d="M196 336q-75 0 -127 52t-52 126q0 75 52 127t127 52q74 0 126.5 -52t52.5 -127q0 -74 -52.5 -126t-126.5 -52zM196 661q-60 0 -101.5 -42.5t-41.5 -104.5q0 -61 42 -103.5t101 -42.5t101 42.5t42 103.5q0 62 -41.5 104.5t-101.5 42.5zM128 432v27h19v116h-19v27h67
q30 0 49 -13t19 -38q0 -32 -31 -46l24 -46h20v-27h-41l-34 64h-23v-37h21v-27h-71zM178 523h16q37 0 37 26t-37 26h-16v-52z" />
    <glyph glyph-name="macron" unicode="&#xaf;" horiz-adv-x="458" 
d="M77 535v63h304v-63h-304z" />
    <glyph glyph-name="degree" unicode="&#xb0;" horiz-adv-x="302" 
d="M151 411q-55 0 -92 38t-37 92t37 92t92 38t91 -38t36 -92t-36 -92t-91 -38zM151 456q34 0 56.5 24.5t22.5 60.5t-22.5 60t-56.5 24q-35 0 -57.5 -24t-22.5 -60t22.5 -60.5t57.5 -24.5z" />
    <glyph glyph-name="plusminus" unicode="&#xb1;" horiz-adv-x="416" 
d="M176 158v135h-134v62h134v135h63v-135h135v-62h-135v-135h-63zM42 18v61h332v-61h-332z" />
    <glyph glyph-name="two.sup" unicode="&#xb2;" 
d="M59 431l-15 24q19 53 53 88.5t80 67.5l35 26.5t21.5 25t9.5 33.5q0 25 -20.5 42t-49.5 17q-25 0 -43.5 -9.5t-22.5 -18.5q17 -7 17 -29q0 -14 -10 -23.5t-23 -9.5q-37 0 -37 44q0 36 34.5 63.5t88.5 27.5q50 0 85 -29t35 -75q0 -27 -14 -50t-29 -35.5t-45 -32.5
q-78 -50 -102 -104h152v59h45v-102h-245z" />
    <glyph glyph-name="three.sup" unicode="&#xb3;" 
d="M171 424q-53 0 -91 24t-38 59q0 16 10.5 27.5t25.5 11.5t24 -9.5t9 -24.5t-10 -22q23 -23 70 -23q34 0 57 18t23 45q0 29 -25 47t-73 18h-22v44h24q39 0 63.5 17.5t24.5 45.5q0 25 -20 39t-51 14q-41 0 -58 -19q10 -8 10 -22t-10 -23.5t-23 -9.5q-15 0 -25.5 11t-10.5 29
q0 27 32 51.5t87 24.5q52 0 87 -26.5t35 -66.5q0 -31 -23.5 -54.5t-58.5 -31.5q37 -7 64 -32t27 -59q0 -46 -38.5 -74.5t-95.5 -28.5z" />
    <glyph glyph-name="acute" unicode="&#xb4;" horiz-adv-x="418" 
d="M152 503l-19 24l121 126q21 23 43 23q17 0 28.5 -12t11.5 -31q0 -23 -34 -44z" />
    <glyph glyph-name="paragraph" unicode="&#xb6;" horiz-adv-x="576" 
d="M201 0v59h80v134q-17 -1 -71 -1q-78 0 -127.5 42.5t-49.5 114.5q0 66 51.5 109t128.5 43h324v-61h-79v-379h79v-61h-336zM340 59h58v383h-58v-383z" />
    <glyph glyph-name="periodcentered" unicode="&#xb7;" horiz-adv-x="262" 
d="M131 191q-26 0 -44 18.5t-18 44.5t18 44.5t44 18.5q25 0 43 -18.5t18 -44.5t-18 -44.5t-43 -18.5z" />
    <glyph glyph-name="cedilla" unicode="&#xb8;" horiz-adv-x="420" 
d="M227 -199q-58 0 -112 28l15 32q45 -19 88 -19q42 0 42 29q0 31 -53 31q-3 0 -10 -1t-8 -1l-19 16l34 106l30 -5l-3 -65q45 -2 69.5 -23t24.5 -53t-26 -53.5t-72 -21.5z" />
    <glyph glyph-name="one.sup" unicode="&#xb9;" 
d="M63 431v47h95v260l-89 -21l-11 45l126 33h26v-317h94v-47h-241z" />
    <glyph glyph-name="ordmasculine" unicode="&#xba;" horiz-adv-x="351" 
d="M57 298v44h237v-44h-237zM176 406q-59 0 -96 38.5t-37 93.5t37 94t96 39t95.5 -38.5t36.5 -94.5q0 -55 -37 -93.5t-95 -38.5zM176 446q37 0 60 26t23 66q0 41 -23 67t-60 26t-60.5 -26t-23.5 -67q0 -40 23.5 -66t60.5 -26z" />
    <glyph glyph-name="guillemotright" unicode="&#xbb;" horiz-adv-x="485" 
d="M283 107l-43 41l124 127l-124 127l43 41l172 -168zM92 107l-43 41l124 127l-124 127l43 41l172 -168z" />
    <glyph glyph-name="onequarter" unicode="&#xbc;" horiz-adv-x="795" 
d="M568 -1v42h67v64h-167l-13 26l192 242l37 -30l-161 -198h112v69l47 20v-87h59v-43h-59v-62h46v-43h-160zM52 281v47h95v260l-89 -21l-11 45l126 33h26v-317h94v-47h-241zM239 -13l-38 23l197 321l192 320l38 -24l-195 -316z" />
    <glyph glyph-name="onehalf" unicode="&#xbd;" horiz-adv-x="795" 
d="M500 -1l-15 24q19 53 53 88.5t80 67.5l35 26.5t21.5 25t9.5 33.5q0 25 -20.5 42t-49.5 17q-24 0 -43 -9.5t-23 -18.5q17 -7 17 -29q0 -14 -9.5 -23.5t-23.5 -9.5q-37 0 -37 44q0 36 34.5 63.5t88.5 27.5q50 0 85 -29t35 -75q0 -27 -14 -50t-29 -35.5t-45 -32.5
q-78 -50 -102 -104h152v59h45v-102h-245zM49 281v47h95v260l-89 -21l-11 45l126 33h26v-317h94v-47h-241zM227 -13l-38 23l197 321l192 320l38 -24l-195 -316z" />
    <glyph glyph-name="threequarters" unicode="&#xbe;" horiz-adv-x="795" 
d="M185 274q-53 0 -91 24t-38 59q0 16 10.5 27.5t25.5 11.5t24 -9.5t9 -24.5t-10 -22q23 -23 70 -23q34 0 57 18t23 45q0 29 -25 47t-73 18h-22v44h24q39 0 63.5 17.5t24.5 45.5q0 25 -20 39t-51 14q-41 0 -58 -19q10 -8 10 -22t-10 -23.5t-23 -9.5q-15 0 -25.5 11t-10.5 29
q0 27 32 51.5t87 24.5q52 0 87 -26.5t35 -66.5q0 -31 -23.5 -54.5t-58.5 -31.5q37 -7 64 -32t27 -59q0 -46 -38.5 -74.5t-95.5 -28.5zM566 -1v42h67v64h-167l-13 26l192 242l37 -30l-161 -198h112v69l47 20v-87h59v-43h-59v-62h46v-43h-160zM243 -13l-38 23l197 321l192 320
l38 -24l-195 -316z" />
    <glyph glyph-name="questiondown" unicode="&#xbf;" horiz-adv-x="446" 
d="M425 130q0 -37 -25 -70q-25 -32 -68.5 -52t-96.5 -20q-93 0 -149.5 50t-56.5 127q0 68 49 121t135 73l10 117h42l16 -161q-88 -17 -133 -55.5t-45 -92.5q0 -52 35.5 -83.5t97.5 -31.5q78 0 109 43q1 1 2.5 4t2.5 4q-31 9 -31 43q0 21 13 35t34 14q23 0 41 -18.5t18 -46.5
zM243 666q24 0 41 -17t17 -41t-17 -41.5t-41 -17.5t-40.5 17.5t-16.5 41.5t16.5 41t40.5 17z" />
    <glyph glyph-name="Agrave" unicode="&#xc0;" horiz-adv-x="706" 
d="M18 0v66h63l197 527h-75v65h300v-65h-75l197 -527h63v-66h-220v65h77l-59 162h-269l-59 -162h80v-65h-220zM239 290h225l-112 307zM381 717l-151 86q-34 21 -34 44q0 19 12 31t28 12q20 0 43 -23l120 -126z" />
    <glyph glyph-name="Aacute" unicode="&#xc1;" horiz-adv-x="706" 
d="M18 0v66h63l197 527h-75v65h300v-65h-75l197 -527h63v-66h-220v65h77l-59 162h-269l-59 -162h80v-65h-220zM239 290h225l-112 307zM323 717l-19 24l121 126q21 23 43 23q16 0 28 -12t12 -31q0 -23 -34 -44z" />
    <glyph glyph-name="Acircumflex" unicode="&#xc2;" horiz-adv-x="706" 
d="M18 0v66h63l197 527h-75v65h300v-65h-75l197 -527h63v-66h-220v65h77l-59 162h-269l-59 -162h80v-65h-220zM239 290h225l-112 307zM229 714l-31 37l154 147l154 -147l-31 -37l-123 93z" />
    <glyph glyph-name="Atilde" unicode="&#xc3;" horiz-adv-x="706" 
d="M18 0v66h63l197 527h-75v65h300v-65h-75l197 -527h63v-66h-220v65h77l-59 162h-269l-59 -162h80v-65h-220zM239 290h225l-112 307zM426 723q-44 0 -88 38q-34 28 -51 28q-36 0 -46 -60l-54 12q4 51 32 84.5t63 33.5q42 0 89 -39q33 -27 51 -27q35 0 46 60l54 -12
q-4 -51 -32 -84.5t-64 -33.5z" />
    <glyph glyph-name="Adieresis" unicode="&#xc4;" horiz-adv-x="706" 
d="M18 0v66h63l197 527h-75v65h300v-65h-75l197 -527h63v-66h-220v65h77l-59 162h-269l-59 -162h80v-65h-220zM239 290h225l-112 307zM439 733q-24 0 -40.5 17t-16.5 40q0 24 17 41t40 17q24 0 40 -17t16 -41q0 -23 -16.5 -40t-39.5 -17zM264 733q-23 0 -39.5 17t-16.5 40
q0 24 17 41t40 17t39.5 -17t16.5 -41q0 -23 -16.5 -40t-40.5 -17z" />
    <glyph glyph-name="Aring" unicode="&#xc5;" horiz-adv-x="706" 
d="M462 733q0 -44 -34 -75h75v-65h-75l197 -527h63v-66h-220v65h77l-59 162h-269l-59 -162h80v-65h-220v66h63l197 527h-75v65h73q-34 32 -34 75t32 74t78 31t78 -31t32 -74zM239 290h225l-112 307zM352 667q24 0 40 17.5t16 42.5q0 26 -16 43.5t-40 17.5t-39.5 -17.5
t-15.5 -43.5q0 -25 15.5 -42.5t39.5 -17.5z" />
    <glyph glyph-name="AE" unicode="&#xc6;" horiz-adv-x="887" 
d="M-5 0v66h79l261 526h-73v66h562v-161h-71v96h-248v-226h215v-64h-215v-238h248v96h72v-161h-472v66h77v161h-203l-80 -162h71v-65h-223zM257 290h173v303h-24z" />
    <glyph glyph-name="Ccedilla" unicode="&#xc7;" horiz-adv-x="702" 
d="M385 -199q-58 0 -112 28l15 32q45 -19 88 -19q42 0 42 29q0 31 -53 31q-3 0 -10 -1t-8 -1l-19 16l24 74q-132 14 -214 110t-82 226q0 149 98.5 246.5t235.5 97.5q101 0 173.5 -50.5t72.5 -111.5q0 -28 -16.5 -46.5t-41.5 -18.5q-23 0 -39 15.5t-16 37.5q0 30 25 40
q-16 25 -58.5 45.5t-100.5 20.5q-111 0 -184 -81t-73 -194q0 -109 74 -190t187 -81t204 85l44 -53q-100 -100 -248 -100h-3l-1 -36q45 -2 69.5 -23t24.5 -53t-26 -53.5t-72 -21.5z" />
    <glyph glyph-name="Egrave" unicode="&#xc8;" horiz-adv-x="588" 
d="M47 0v66h84v526h-84v66h478v-161h-71v96h-248v-226h215v-64h-215v-238h248v96h72v-161h-479zM318 717l-151 86q-34 21 -34 44q0 19 11.5 31t28.5 12q20 0 43 -23l120 -126z" />
    <glyph glyph-name="Eacute" unicode="&#xc9;" horiz-adv-x="588" 
d="M260 717l-19 24l121 126q21 23 43 23q17 0 28.5 -12t11.5 -31q0 -23 -34 -44zM47 0v66h84v526h-84v66h478v-161h-71v96h-248v-226h215v-64h-215v-238h248v96h72v-161h-479z" />
    <glyph glyph-name="Ecircumflex" unicode="&#xca;" horiz-adv-x="588" 
d="M166 714l-31 37l154 147l154 -147l-31 -37l-123 93zM47 0v66h84v526h-84v66h478v-161h-71v96h-248v-226h215v-64h-215v-238h248v96h72v-161h-479z" />
    <glyph glyph-name="Edieresis" unicode="&#xcb;" horiz-adv-x="588" 
d="M376 733q-24 0 -40.5 17t-16.5 40q0 24 17 41t40 17q24 0 40 -17t16 -41q0 -23 -16.5 -40t-39.5 -17zM201 733q-23 0 -39.5 17t-16.5 40q0 24 17 41t40 17t39.5 -17t16.5 -41q0 -23 -16.5 -40t-40.5 -17zM47 0v66h84v526h-84v66h478v-161h-71v96h-248v-226h215v-64h-215
v-238h248v96h72v-161h-479z" />
    <glyph glyph-name="Igrave" unicode="&#xcc;" horiz-adv-x="348" 
d="M48 0v66h89v526h-89v66h252v-66h-89v-526h89v-66h-252zM204 717l-151 86q-34 21 -34 44q0 19 11.5 31t28.5 12q20 0 43 -23l120 -126z" />
    <glyph glyph-name="Iacute" unicode="&#xcd;" horiz-adv-x="348" 
d="M48 0v66h89v526h-89v66h252v-66h-89v-526h89v-66h-252zM145 717l-19 24l121 126q21 23 43 23q16 0 28 -12t12 -31q0 -23 -34 -44z" />
    <glyph glyph-name="Icircumflex" unicode="&#xce;" horiz-adv-x="348" 
d="M48 0v66h89v526h-89v66h252v-66h-89v-526h89v-66h-252zM51 714l-31 37l154 147l154 -147l-31 -37l-123 93z" />
    <glyph glyph-name="Idieresis" unicode="&#xcf;" horiz-adv-x="348" 
d="M48 0v66h89v526h-89v66h252v-66h-89v-526h89v-66h-252zM261 733q-24 0 -40.5 17t-16.5 40q0 24 17 41t40 17q24 0 40 -17t16 -41q0 -23 -16.5 -40t-39.5 -17zM86 733q-23 0 -39.5 17t-16.5 40q0 24 17 41t40 17t39.5 -17t16.5 -41q0 -23 -16.5 -40t-40.5 -17z" />
    <glyph glyph-name="Eth" unicode="&#xd0;" horiz-adv-x="734" 
d="M138 306h-73v62h73v224h-84v66h246q171 0 274.5 -88t103.5 -234q0 -152 -100.5 -244t-276.5 -92h-247v66h84v240zM212 66h94q144 0 220 73.5t76 197.5q0 118 -82 186.5t-222 68.5h-86v-224h150v-62h-150v-240z" />
    <glyph glyph-name="Ntilde" unicode="&#xd1;" horiz-adv-x="764" 
d="M606 -3l-403 531v-462h86v-66h-242v66h84v526h-84v66h149l380 -501v435h-87v66h239v-66h-81v-594zM454 723q-44 0 -88 38q-34 28 -51 28q-36 0 -46 -60l-54 12q4 51 32 84.5t63 33.5q42 0 89 -39q33 -27 51 -27q35 0 46 60l54 -12q-4 -51 -32 -84.5t-64 -33.5z" />
    <glyph glyph-name="Ograve" unicode="&#xd2;" horiz-adv-x="777" 
d="M387 -12q-143 0 -237 98t-94 242q0 146 95 244t240 98q142 0 236.5 -98t94.5 -242q0 -145 -95.5 -243.5t-239.5 -98.5zM389 56q112 0 184 78t72 194q0 117 -72 195.5t-184 78.5t-184.5 -77.5t-72.5 -194.5t72.5 -195.5t184.5 -78.5zM417 717l-151 86q-34 21 -34 44
q0 19 12 31t28 12q20 0 43 -23l120 -126z" />
    <glyph glyph-name="Oacute" unicode="&#xd3;" horiz-adv-x="777" 
d="M359 717l-19 24l121 126q21 23 43 23q16 0 28 -12t12 -31q0 -23 -34 -44zM387 -12q-143 0 -237 98t-94 242q0 146 95 244t240 98q142 0 236.5 -98t94.5 -242q0 -145 -95.5 -243.5t-239.5 -98.5zM389 56q112 0 184 78t72 194q0 117 -72 195.5t-184 78.5t-184.5 -77.5
t-72.5 -194.5t72.5 -195.5t184.5 -78.5z" />
    <glyph glyph-name="Ocircumflex" unicode="&#xd4;" horiz-adv-x="777" 
d="M265 714l-31 37l154 147l154 -147l-31 -37l-123 93zM387 -12q-143 0 -237 98t-94 242q0 146 95 244t240 98q142 0 236.5 -98t94.5 -242q0 -145 -95.5 -243.5t-239.5 -98.5zM389 56q112 0 184 78t72 194q0 117 -72 195.5t-184 78.5t-184.5 -77.5t-72.5 -194.5t72.5 -195.5
t184.5 -78.5z" />
    <glyph glyph-name="Otilde" unicode="&#xd5;" horiz-adv-x="777" 
d="M387 -12q-143 0 -237 98t-94 242q0 146 95 244t240 98q142 0 236.5 -98t94.5 -242q0 -145 -95.5 -243.5t-239.5 -98.5zM389 56q112 0 184 78t72 194q0 117 -72 195.5t-184 78.5t-184.5 -77.5t-72.5 -194.5t72.5 -195.5t184.5 -78.5zM462 723q-44 0 -88 38q-34 28 -51 28
q-36 0 -46 -60l-54 12q4 51 32 84.5t63 33.5q42 0 89 -39q33 -27 51 -27q35 0 46 60l54 -12q-4 -51 -32 -84.5t-64 -33.5z" />
    <glyph glyph-name="Odieresis" unicode="&#xd6;" horiz-adv-x="777" 
d="M475 733q-24 0 -40.5 17t-16.5 40q0 24 17 41t40 17q24 0 40 -17t16 -41q0 -23 -16.5 -40t-39.5 -17zM300 733q-23 0 -39.5 17t-16.5 40q0 24 17 41t40 17t39.5 -17t16.5 -41q0 -23 -16.5 -40t-40.5 -17zM387 -12q-143 0 -237 98t-94 242q0 146 95 244t240 98
q142 0 236.5 -98t94.5 -242q0 -145 -95.5 -243.5t-239.5 -98.5zM389 56q112 0 184 78t72 194q0 117 -72 195.5t-184 78.5t-184.5 -77.5t-72.5 -194.5t72.5 -195.5t184.5 -78.5z" />
    <glyph glyph-name="multiply" unicode="&#xd7;" horiz-adv-x="416" 
d="M312 118l-105 108l-104 -107l-44 44l105 107l-106 107l45 45l105 -108l104 108l44 -45l-105 -106l105 -108z" />
    <glyph glyph-name="Oslash" unicode="&#xd8;" horiz-adv-x="777" 
d="M387 -12q-113 0 -200 65l-80 -94l-47 41l82 94q-86 97 -86 234q0 146 95 244t240 98q110 0 195 -63l79 92l47 -41l-80 -92q90 -98 90 -236q0 -145 -95.5 -243.5t-239.5 -98.5zM389 56q112 0 184 78t72 194q0 112 -63 188l-350 -410q64 -50 157 -50zM132 330
q0 -112 61 -187l350 411q-66 48 -154 48q-112 0 -184.5 -77.5t-72.5 -194.5z" />
    <glyph glyph-name="Ugrave" unicode="&#xd9;" horiz-adv-x="710" 
d="M354 -12q-113 0 -175.5 62t-62.5 177v365h-83v66h243v-66h-87v-360q0 -87 43 -131.5t123 -44.5t123.5 43.5t43.5 130.5v362h-87v66h242v-66h-83v-362q0 -116 -64 -179t-176 -63zM384 717l-151 86q-34 21 -34 44q0 19 11.5 31t28.5 12q20 0 43 -23l120 -126z" />
    <glyph glyph-name="Uacute" unicode="&#xda;" horiz-adv-x="710" 
d="M325 717l-19 24l121 126q21 23 43 23q16 0 28 -12t12 -31q0 -23 -34 -44zM354 -12q-113 0 -175.5 62t-62.5 177v365h-83v66h243v-66h-87v-360q0 -87 43 -131.5t123 -44.5t123.5 43.5t43.5 130.5v362h-87v66h242v-66h-83v-362q0 -116 -64 -179t-176 -63z" />
    <glyph glyph-name="Ucircumflex" unicode="&#xdb;" horiz-adv-x="710" 
d="M231 714l-31 37l154 147l154 -147l-31 -37l-123 93zM354 -12q-113 0 -175.5 62t-62.5 177v365h-83v66h243v-66h-87v-360q0 -87 43 -131.5t123 -44.5t123.5 43.5t43.5 130.5v362h-87v66h242v-66h-83v-362q0 -116 -64 -179t-176 -63z" />
    <glyph glyph-name="Udieresis" unicode="&#xdc;" horiz-adv-x="710" 
d="M442 733q-24 0 -40.5 17t-16.5 40q0 24 17 41t40 17q24 0 40 -17t16 -41q0 -23 -16.5 -40t-39.5 -17zM267 733q-23 0 -39.5 17t-16.5 40q0 24 17 41t40 17t39.5 -17t16.5 -41q0 -23 -16.5 -40t-40.5 -17zM354 -12q-113 0 -175.5 62t-62.5 177v365h-83v66h243v-66h-87
v-360q0 -87 43 -131.5t123 -44.5t123.5 43.5t43.5 130.5v362h-87v66h242v-66h-83v-362q0 -116 -64 -179t-176 -63z" />
    <glyph glyph-name="Yacute" unicode="&#xdd;" horiz-adv-x="642" 
d="M191 0v66h92v197l-194 329h-70v66h221v-66h-68l150 -265l151 265h-71v66h222v-66h-71l-195 -328v-198h93v-66h-260zM291 717l-19 24l121 126q21 23 43 23q16 0 28 -12t12 -31q0 -23 -34 -44z" />
    <glyph glyph-name="Thorn" unicode="&#xde;" horiz-adv-x="591" 
d="M47 0v66h84v526h-84v66h244v-63h-85v-75q15 1 106 1q102 0 166.5 -49.5t64.5 -135.5q0 -91 -63 -141.5t-169 -50.5q-67 0 -105 2v-83h89v-63h-248zM316 207q70 0 111 33.5t41 93.5t-42.5 92t-109.5 32q-78 0 -110 -2v-247q40 -2 110 -2z" />
    <glyph glyph-name="germandbls" unicode="&#xdf;" horiz-adv-x="558" 
d="M368 -8q-55 0 -86.5 25t-31.5 57q0 20 13 33.5t31 13.5t31 -12t13 -30q0 -7 -7 -24q11 -7 34 -7q42 0 68 23.5t26 65.5q0 34 -20.5 57.5t-62.5 47.5q-55 30 -80.5 57.5t-25.5 72.5q0 55 56 111q49 49 49 106q0 38 -28.5 64t-68.5 26q-55 0 -81 -48q-15 -29 -15 -71v-560
h-138v60h69v305h-76v61h76v125q0 70 29 117q45 72 142 72q69 0 114.5 -42.5t45.5 -107.5q0 -77 -65 -139q-25 -25 -34.5 -41t-9.5 -36t16.5 -36.5t57.5 -39.5q56 -32 86.5 -68.5t30.5 -90.5q0 -68 -45 -107.5t-113 -39.5z" />
    <glyph glyph-name="agrave" unicode="&#xe0;" horiz-adv-x="492" 
d="M186 -8q-62 0 -101.5 34t-39.5 88q0 58 46 93.5t118 35.5q68 0 123 -20v59q0 36 -19 60q-31 34 -93 34q-38 0 -66 -18q6 -14 6 -25q0 -19 -12.5 -31.5t-32.5 -12.5q-19 0 -31.5 13t-12.5 33q0 40 42.5 69.5t115.5 29.5q92 0 137 -50q32 -35 32 -92v-232h69v-60h-133v54
q-64 -62 -148 -62zM204 48q69 0 128 59v71q-60 17 -115 17q-49 0 -75.5 -21t-26.5 -55q0 -32 23.5 -51.5t65.5 -19.5zM269 503l-151 86q-34 21 -34 44q0 19 12 31t28 12q20 0 43 -23l120 -126z" />
    <glyph glyph-name="aacute" unicode="&#xe1;" horiz-adv-x="492" 
d="M186 -8q-62 0 -101.5 34t-39.5 88q0 58 46 93.5t118 35.5q68 0 123 -20v59q0 36 -19 60q-31 34 -93 34q-38 0 -66 -18q6 -14 6 -25q0 -19 -12.5 -31.5t-32.5 -12.5q-19 0 -31.5 13t-12.5 33q0 40 42.5 69.5t115.5 29.5q92 0 137 -50q32 -35 32 -92v-232h69v-60h-133v54
q-64 -62 -148 -62zM204 48q69 0 128 59v71q-60 17 -115 17q-49 0 -75.5 -21t-26.5 -55q0 -32 23.5 -51.5t65.5 -19.5zM211 503l-19 24l121 126q21 23 43 23q16 0 28 -12t12 -31q0 -23 -34 -44z" />
    <glyph glyph-name="acircumflex" unicode="&#xe2;" horiz-adv-x="492" 
d="M186 -8q-62 0 -101.5 34t-39.5 88q0 58 46 93.5t118 35.5q68 0 123 -20v59q0 36 -19 60q-31 34 -93 34q-38 0 -66 -18q6 -14 6 -25q0 -19 -12.5 -31.5t-32.5 -12.5q-19 0 -31.5 13t-12.5 33q0 40 42.5 69.5t115.5 29.5q92 0 137 -50q32 -35 32 -92v-232h69v-60h-133v54
q-64 -62 -148 -62zM204 48q69 0 128 59v71q-60 17 -115 17q-49 0 -75.5 -21t-26.5 -55q0 -32 23.5 -51.5t65.5 -19.5zM117 500l-31 37l154 147l154 -147l-31 -37l-123 93z" />
    <glyph glyph-name="atilde" unicode="&#xe3;" horiz-adv-x="492" 
d="M186 -8q-62 0 -101.5 34t-39.5 88q0 58 46 93.5t118 35.5q68 0 123 -20v59q0 36 -19 60q-31 34 -93 34q-38 0 -66 -18q6 -14 6 -25q0 -19 -12.5 -31.5t-32.5 -12.5q-19 0 -31.5 13t-12.5 33q0 40 42.5 69.5t115.5 29.5q92 0 137 -50q32 -35 32 -92v-232h69v-60h-133v54
q-64 -62 -148 -62zM204 48q69 0 128 59v71q-60 17 -115 17q-49 0 -75.5 -21t-26.5 -55q0 -32 23.5 -51.5t65.5 -19.5zM314 509q-44 0 -88 38q-34 28 -51 28q-36 0 -46 -60l-54 12q4 51 32 84.5t63 33.5q42 0 89 -39q33 -27 51 -27q35 0 46 60l54 -12q-4 -51 -32 -84.5
t-64 -33.5z" />
    <glyph glyph-name="adieresis" unicode="&#xe4;" horiz-adv-x="492" 
d="M186 -8q-62 0 -101.5 34t-39.5 88q0 58 46 93.5t118 35.5q68 0 123 -20v59q0 36 -19 60q-31 34 -93 34q-38 0 -66 -18q6 -14 6 -25q0 -19 -12.5 -31.5t-32.5 -12.5q-19 0 -31.5 13t-12.5 33q0 40 42.5 69.5t115.5 29.5q92 0 137 -50q32 -35 32 -92v-232h69v-60h-133v54
q-64 -62 -148 -62zM204 48q69 0 128 59v71q-60 17 -115 17q-49 0 -75.5 -21t-26.5 -55q0 -32 23.5 -51.5t65.5 -19.5zM327 519q-24 0 -40.5 17t-16.5 40q0 24 17 41t40 17q24 0 40 -17t16 -41q0 -23 -16.5 -40t-39.5 -17zM152 519q-23 0 -39.5 17t-16.5 40q0 24 17 41t40 17
t39.5 -17t16.5 -41q0 -23 -16.5 -40t-40.5 -17z" />
    <glyph glyph-name="aring" unicode="&#xe5;" horiz-adv-x="492" 
d="M186 -8q-62 0 -101.5 34t-39.5 88q0 58 46 93.5t118 35.5q68 0 123 -20v59q0 36 -19 60q-31 34 -93 34q-38 0 -66 -18q6 -14 6 -25q0 -19 -12.5 -31.5t-32.5 -12.5q-19 0 -31.5 13t-12.5 33q0 40 42.5 69.5t115.5 29.5q92 0 137 -50q32 -35 32 -92v-232h69v-60h-133v54
q-64 -62 -148 -62zM204 48q69 0 128 59v71q-60 17 -115 17q-49 0 -75.5 -21t-26.5 -55q0 -32 23.5 -51.5t65.5 -19.5zM239 494q-46 0 -77.5 32t-31.5 79t31.5 79t77.5 32t78 -32t32 -79t-32 -79t-78 -32zM239 545q24 0 40 17.5t16 42.5t-16 42.5t-40 17.5t-39.5 -17.5
t-15.5 -42.5t15.5 -42.5t39.5 -17.5z" />
    <glyph glyph-name="ae" unicode="&#xe6;" horiz-adv-x="762" 
d="M220 375q-40 0 -66 -17q6 -14 6 -25q0 -19 -12.5 -31.5t-32.5 -12.5q-19 0 -31.5 13t-12.5 33q0 40 42.5 69.5t115.5 29.5q85 0 126 -51q13 -19 18 -32q56 83 158 83q89 0 140.5 -58.5t51.5 -142.5q0 -23 -3 -40h-328q15 -140 164 -140q68 0 149 47l-6 -67
q-67 -41 -150 -41q-121 0 -180 84q-81 -84 -180 -84q-64 0 -104 33.5t-40 88.5q0 58 46 93.5t118 35.5q68 0 123 -20v55q0 38 -20 61q-30 36 -92 36zM205 48q73 0 144 64q-12 27 -17 66q-63 17 -115 17q-49 0 -75.5 -21t-26.5 -55q0 -32 23.5 -51.5t66.5 -19.5zM524 375
q-50 0 -87 -34t-44 -93h261q-4 58 -37.5 92.5t-92.5 34.5z" />
    <glyph glyph-name="ccedilla" unicode="&#xe7;" horiz-adv-x="500" 
d="M260 -199q-58 0 -112 28l15 32q45 -19 88 -19q42 0 42 29q0 31 -53 31q-3 0 -10 -1t-8 -1l-19 16l25 80q-82 12 -134 72t-52 144q0 90 62.5 156t150.5 66q71 0 122.5 -39.5t51.5 -88.5q0 -24 -15.5 -41t-38.5 -17q-18 0 -32 13t-14 34q0 22 21 35q-8 19 -35.5 32
t-60.5 13q-53 0 -97 -44t-44 -120q0 -70 45 -114t118 -44q69 0 142 47l-6 -67q-61 -41 -144 -41h-2l-2 -40q45 -2 69.5 -23t24.5 -53t-26 -53.5t-72 -21.5z" />
    <glyph glyph-name="egrave" unicode="&#xe8;" horiz-adv-x="485" 
d="M441 193h-328q7 -69 50 -104.5t114 -35.5q69 0 150 47l-6 -67q-67 -41 -153 -41q-102 0 -164.5 61t-62.5 159q0 92 57.5 157t151.5 65q91 0 143 -58.5t52 -142.5q0 -25 -4 -40zM246 375q-50 0 -87.5 -34t-44.5 -93h261q-4 58 -37 92.5t-92 34.5zM274 503l-151 86
q-34 21 -34 44q0 19 11.5 31t28.5 12q20 0 43 -23l120 -126z" />
    <glyph glyph-name="eacute" unicode="&#xe9;" horiz-adv-x="485" 
d="M441 193h-328q7 -69 50 -104.5t114 -35.5q69 0 150 47l-6 -67q-67 -41 -153 -41q-102 0 -164.5 61t-62.5 159q0 92 57.5 157t151.5 65q91 0 143 -58.5t52 -142.5q0 -25 -4 -40zM246 375q-50 0 -87.5 -34t-44.5 -93h261q-4 58 -37 92.5t-92 34.5zM216 503l-19 24l121 126
q21 23 43 23q17 0 28.5 -12t11.5 -31q0 -23 -34 -44z" />
    <glyph glyph-name="ecircumflex" unicode="&#xea;" horiz-adv-x="485" 
d="M441 193h-328q7 -69 50 -104.5t114 -35.5q69 0 150 47l-6 -67q-67 -41 -153 -41q-102 0 -164.5 61t-62.5 159q0 92 57.5 157t151.5 65q91 0 143 -58.5t52 -142.5q0 -25 -4 -40zM246 375q-50 0 -87.5 -34t-44.5 -93h261q-4 58 -37 92.5t-92 34.5zM122 500l-31 37l154 147
l154 -147l-31 -37l-123 93z" />
    <glyph glyph-name="edieresis" unicode="&#xeb;" horiz-adv-x="485" 
d="M441 193h-328q7 -69 50 -104.5t114 -35.5q69 0 150 47l-6 -67q-67 -41 -153 -41q-102 0 -164.5 61t-62.5 159q0 92 57.5 157t151.5 65q91 0 143 -58.5t52 -142.5q0 -25 -4 -40zM246 375q-50 0 -87.5 -34t-44.5 -93h261q-4 58 -37 92.5t-92 34.5zM332 519q-24 0 -40.5 17
t-16.5 40q0 24 17 41t40 17q24 0 40 -17t16 -41q0 -23 -16.5 -40t-39.5 -17zM157 519q-23 0 -39.5 17t-16.5 40q0 24 17 41t40 17t39.5 -17t16.5 -41q0 -23 -16.5 -40t-40.5 -17z" />
    <glyph glyph-name="igrave" unicode="&#xec;" horiz-adv-x="290" 
d="M43 0v60h72v305h-72v61h141v-366h72v-60h-213zM173 503l-151 86q-34 21 -34 44q0 19 12 31t28 12q20 0 43 -23l120 -126z" />
    <glyph glyph-name="iacute" unicode="&#xed;" horiz-adv-x="290" 
d="M115 503l-19 24l121 126q21 23 43 23q16 0 28 -12t12 -31q0 -23 -34 -44zM43 0v60h72v305h-72v61h141v-366h72v-60h-213z" />
    <glyph glyph-name="icircumflex" unicode="&#xee;" horiz-adv-x="290" 
d="M21 500l-31 37l154 147l154 -147l-31 -37l-123 93zM43 0v60h72v305h-72v61h141v-366h72v-60h-213z" />
    <glyph glyph-name="idieresis" unicode="&#xef;" horiz-adv-x="290" 
d="M231 519q-24 0 -40.5 17t-16.5 40q0 24 17 41t40 17q24 0 40 -17t16 -41q0 -23 -16.5 -40t-39.5 -17zM56 519q-23 0 -39.5 17t-16.5 40q0 24 17 41t40 17t39.5 -17t16.5 -41q0 -23 -16.5 -40t-40.5 -17zM43 0v60h72v305h-72v61h141v-366h72v-60h-213z" />
    <glyph glyph-name="eth" unicode="&#xf0;" horiz-adv-x="528" 
d="M191 463l-38 45l113 101q-59 54 -113 66q-2 -17 -15 -29t-32 -12t-33 14t-14 37t19 38.5t48 15.5q40 0 81 -20q53 -23 106 -72l98 86l38 -44l-96 -85q131 -150 131 -355q0 -133 -71 -202q-58 -55 -149 -55q-97 0 -158.5 60.5t-61.5 149.5t61.5 150t157.5 61
q45 0 86.5 -21t66.5 -56q-15 123 -109 231zM416 209q0 61 -43 102.5t-109 41.5t-108.5 -42.5t-42.5 -108.5t42.5 -108t108.5 -42q63 0 105 42q47 47 47 115z" />
    <glyph glyph-name="ntilde" unicode="&#xf1;" horiz-adv-x="563" 
d="M175 426v-79q74 87 160 87q79 0 113 -55q21 -36 21 -89v-230h68v-60h-204v60h67v216q0 36 -11 57q-18 37 -71 37q-72 0 -140 -75v-235h67v-60h-204v60h68v305h-68v61h134zM362 509q-44 0 -88 38q-34 28 -51 28q-36 0 -46 -60l-54 12q4 51 32 84.5t63 33.5q42 0 89 -39
q33 -27 51 -27q35 0 46 60l54 -12q-4 -51 -32 -84.5t-64 -33.5z" />
    <glyph glyph-name="ograve" unicode="&#xf2;" horiz-adv-x="526" 
d="M263 -8q-98 0 -158.5 63.5t-60.5 157.5q0 92 61 156.5t158 64.5t158 -64t61 -157t-61 -157t-158 -64zM263 52q65 0 106 45t41 116t-41 116t-106 45t-106 -45t-41 -116t41 -116t106 -45zM292 503l-151 86q-34 21 -34 44q0 19 11.5 31t28.5 12q20 0 43 -23l120 -126z" />
    <glyph glyph-name="oacute" unicode="&#xf3;" horiz-adv-x="526" 
d="M233 503l-19 24l121 126q21 23 43 23q16 0 28 -12t12 -31q0 -23 -34 -44zM263 -8q-98 0 -158.5 63.5t-60.5 157.5q0 92 61 156.5t158 64.5t158 -64t61 -157t-61 -157t-158 -64zM263 52q65 0 106 45t41 116t-41 116t-106 45t-106 -45t-41 -116t41 -116t106 -45z" />
    <glyph glyph-name="ocircumflex" unicode="&#xf4;" horiz-adv-x="526" 
d="M139 500l-31 37l154 147l154 -147l-31 -37l-123 93zM263 -8q-98 0 -158.5 63.5t-60.5 157.5q0 92 61 156.5t158 64.5t158 -64t61 -157t-61 -157t-158 -64zM263 52q65 0 106 45t41 116t-41 116t-106 45t-106 -45t-41 -116t41 -116t106 -45z" />
    <glyph glyph-name="otilde" unicode="&#xf5;" horiz-adv-x="526" 
d="M263 -8q-98 0 -158.5 63.5t-60.5 157.5q0 92 61 156.5t158 64.5t158 -64t61 -157t-61 -157t-158 -64zM263 52q65 0 106 45t41 116t-41 116t-106 45t-106 -45t-41 -116t41 -116t106 -45zM336 509q-44 0 -88 38q-34 28 -51 28q-36 0 -46 -60l-54 12q4 51 32 84.5t63 33.5
q42 0 89 -39q33 -27 51 -27q35 0 46 60l54 -12q-4 -51 -32 -84.5t-64 -33.5z" />
    <glyph glyph-name="odieresis" unicode="&#xf6;" horiz-adv-x="526" 
d="M350 519q-24 0 -40.5 17t-16.5 40q0 24 17 41t40 17q24 0 40 -17t16 -41q0 -23 -16.5 -40t-39.5 -17zM175 519q-23 0 -39.5 17t-16.5 40q0 24 17 41t40 17t39.5 -17t16.5 -41q0 -23 -16.5 -40t-40.5 -17zM263 -8q-98 0 -158.5 63.5t-60.5 157.5q0 92 61 156.5t158 64.5
t158 -64t61 -157t-61 -157t-158 -64zM263 52q65 0 106 45t41 116t-41 116t-106 45t-106 -45t-41 -116t41 -116t106 -45z" />
    <glyph glyph-name="divide" unicode="&#xf7;" horiz-adv-x="416" 
d="M374 240h-332v61h332v-61zM208 358q-20 0 -34.5 15t-14.5 35t14.5 35t34.5 15t34.5 -15t14.5 -35t-14.5 -35t-34.5 -15zM208 84q-20 0 -34.5 14.5t-14.5 34.5t14.5 35t34.5 15t34.5 -15t14.5 -35t-14.5 -34.5t-34.5 -14.5z" />
    <glyph glyph-name="oslash" unicode="&#xf8;" horiz-adv-x="526" 
d="M263 -8q-66 0 -119 34l-50 -58l-45 38l50 59q-55 63 -55 148q0 92 61 156.5t158 64.5q67 0 122 -37l50 59l45 -38l-51 -60q53 -62 53 -145q0 -93 -61 -157t-158 -64zM116 213q0 -63 29 -104l202 239q-35 26 -84 26q-65 0 -106 -45t-41 -116zM263 52q65 0 106 45t41 116
q0 60 -28 100l-201 -239q35 -22 82 -22z" />
    <glyph glyph-name="ugrave" unicode="&#xf9;" horiz-adv-x="553" 
d="M228 -8q-81 0 -114 57q-20 35 -20 87v229h-68v61h137v-277q0 -36 12 -57q19 -36 70 -36q67 0 140 75v234h-70v61h139v-366h68v-60h-135v79q-74 -87 -159 -87zM298 503l-151 86q-34 21 -34 44q0 19 11.5 31t28.5 12q20 0 43 -23l120 -126z" />
    <glyph glyph-name="uacute" unicode="&#xfa;" horiz-adv-x="553" 
d="M239 503l-19 24l121 126q21 23 43 23q16 0 28 -12t12 -31q0 -23 -34 -44zM228 -8q-81 0 -114 57q-20 35 -20 87v229h-68v61h137v-277q0 -36 12 -57q19 -36 70 -36q67 0 140 75v234h-70v61h139v-366h68v-60h-135v79q-74 -87 -159 -87z" />
    <glyph glyph-name="ucircumflex" unicode="&#xfb;" horiz-adv-x="553" 
d="M145 500l-31 37l154 147l154 -147l-31 -37l-123 93zM228 -8q-81 0 -114 57q-20 35 -20 87v229h-68v61h137v-277q0 -36 12 -57q19 -36 70 -36q67 0 140 75v234h-70v61h139v-366h68v-60h-135v79q-74 -87 -159 -87z" />
    <glyph glyph-name="udieresis" unicode="&#xfc;" horiz-adv-x="553" 
d="M355 519q-24 0 -40.5 17t-16.5 40q0 24 17 41t40 17q24 0 40 -17t16 -41q0 -23 -16.5 -40t-39.5 -17zM180 519q-23 0 -39.5 17t-16.5 40q0 24 17 41t40 17t39.5 -17t16.5 -41q0 -23 -16.5 -40t-40.5 -17zM228 -8q-81 0 -114 57q-20 35 -20 87v229h-68v61h137v-277
q0 -36 12 -57q19 -36 70 -36q67 0 140 75v234h-70v61h139v-366h68v-60h-135v79q-74 -87 -159 -87z" />
    <glyph glyph-name="yacute" unicode="&#xfd;" horiz-adv-x="513" 
d="M212 -128q-50 -72 -110 -72q-31 0 -52.5 16t-21.5 40q0 20 12 32t31 12q33 0 45 -37q26 10 51 48q8 12 32 60l26 53l-160 341h-59v61h199v-59h-67l20.5 -45.5l39 -88.5l43.5 -100l17 -40l122 274h-70v59h196v-61h-58l-201 -432q-18 -37 -35 -61zM227 503l-19 24l121 126
q21 23 43 23q16 0 28 -12t12 -31q0 -23 -34 -44z" />
    <glyph glyph-name="thorn" unicode="&#xfe;" horiz-adv-x="526" 
d="M1 -196v60h68v808h-69v60h138v-363q62 64 141 64q86 0 143.5 -60.5t57.5 -157.5q0 -93 -58.5 -158t-151.5 -65q-72 0 -132 47v-175h82v-60h-219zM266 53q62 0 101.5 45.5t40.5 115.5q1 71 -38.5 114.5t-100.5 43.5q-71 0 -131 -62v-209q57 -48 128 -48z" />
    <glyph glyph-name="ydieresis" unicode="&#xff;" horiz-adv-x="513" 
d="M212 -128q-50 -72 -110 -72q-31 0 -52.5 16t-21.5 40q0 20 12 32t31 12q33 0 45 -37q26 10 51 48q8 12 32 60l26 53l-160 341h-59v61h199v-59h-67l20.5 -45.5l39 -88.5l43.5 -100l17 -40l122 274h-70v59h196v-61h-58l-201 -432q-18 -37 -35 -61zM343 519q-24 0 -40.5 17
t-16.5 40q0 24 17 41t40 17q24 0 40 -17t16 -41q0 -23 -16.5 -40t-39.5 -17zM168 519q-23 0 -39.5 17t-16.5 40q0 24 17 41t40 17t39.5 -17t16.5 -41q0 -23 -16.5 -40t-40.5 -17z" />
    <glyph glyph-name="Amacron" unicode="&#x100;" horiz-adv-x="706" 
d="M18 0v66h63l197 527h-75v65h300v-65h-75l197 -527h63v-66h-220v65h77l-59 162h-269l-59 -162h80v-65h-220zM239 290h225l-112 307zM200 749v63h304v-63h-304z" />
    <glyph glyph-name="amacron" unicode="&#x101;" horiz-adv-x="492" 
d="M186 -8q-62 0 -101.5 34t-39.5 88q0 58 46 93.5t118 35.5q68 0 123 -20v59q0 36 -19 60q-31 34 -93 34q-38 0 -66 -18q6 -14 6 -25q0 -19 -12.5 -31.5t-32.5 -12.5q-19 0 -31.5 13t-12.5 33q0 40 42.5 69.5t115.5 29.5q92 0 137 -50q32 -35 32 -92v-232h69v-60h-133v54
q-64 -62 -148 -62zM204 48q69 0 128 59v71q-60 17 -115 17q-49 0 -75.5 -21t-26.5 -55q0 -32 23.5 -51.5t65.5 -19.5zM88 535v63h304v-63h-304z" />
    <glyph glyph-name="Abreve" unicode="&#x102;" horiz-adv-x="706" 
d="M18 0v66h63l197 527h-75v65h300v-65h-75l197 -527h63v-66h-220v65h77l-59 162h-269l-59 -162h80v-65h-220zM239 290h225l-112 307zM351 722q-55 0 -97 36.5t-62 99.5l49 21q16 -42 46 -65t64 -23q36 0 65 24t45 64l49 -21q-19 -63 -61.5 -99.5t-97.5 -36.5z" />
    <glyph glyph-name="abreve" unicode="&#x103;" horiz-adv-x="492" 
d="M186 -8q-62 0 -101.5 34t-39.5 88q0 58 46 93.5t118 35.5q68 0 123 -20v59q0 36 -19 60q-31 34 -93 34q-38 0 -66 -18q6 -14 6 -25q0 -19 -12.5 -31.5t-32.5 -12.5q-19 0 -31.5 13t-12.5 33q0 40 42.5 69.5t115.5 29.5q92 0 137 -50q32 -35 32 -92v-232h69v-60h-133v54
q-64 -62 -148 -62zM204 48q69 0 128 59v71q-60 17 -115 17q-49 0 -75.5 -21t-26.5 -55q0 -32 23.5 -51.5t65.5 -19.5zM239 508q-55 0 -97 36.5t-62 99.5l49 21q16 -42 46 -65t64 -23q36 0 65 24t45 64l49 -21q-19 -63 -61.5 -99.5t-97.5 -36.5z" />
    <glyph glyph-name="Aogonek" unicode="&#x104;" horiz-adv-x="706" 
d="M584 -201q-51 0 -78.5 25.5t-27.5 67.5q0 63 64 108h-74v65h77l-59 162h-269l-59 -162h80v-65h-220v66h63l197 527h-75v65h300v-65h-75l197 -527h63v-66h-75q-72 -39 -72 -92q0 -52 55 -52q40 0 78 19l-4 -53q-31 -23 -86 -23zM239 290h225l-112 307z" />
    <glyph glyph-name="aogonek" unicode="&#x105;" horiz-adv-x="492" 
d="M373 -201q-51 0 -78.5 25.5t-27.5 67.5q0 64 67 110v52q-64 -62 -148 -62q-62 0 -101.5 34t-39.5 88q0 58 46 93.5t118 35.5q68 0 123 -20v59q0 36 -19 60q-31 34 -93 34q-38 0 -66 -18q6 -14 6 -25q0 -19 -12.5 -31.5t-32.5 -12.5q-19 0 -31.5 13t-12.5 33
q0 40 42.5 69.5t115.5 29.5q92 0 137 -50q32 -35 32 -92v-232h69v-60h-65q-72 -39 -72 -92q0 -52 55 -52q40 0 78 19l-4 -53q-31 -23 -86 -23zM204 48q69 0 128 59v71q-60 17 -115 17q-49 0 -75.5 -21t-26.5 -55q0 -32 23.5 -51.5t65.5 -19.5z" />
    <glyph glyph-name="Cacute" unicode="&#x106;" horiz-adv-x="702" 
d="M361 717l-19 24l121 126q21 23 43 23q16 0 28 -12t12 -31q0 -23 -34 -44zM393 -12q-148 0 -242.5 99t-94.5 239q0 149 98.5 246.5t235.5 97.5q101 0 173.5 -50.5t72.5 -111.5q0 -28 -16.5 -46.5t-41.5 -18.5q-23 0 -39 15.5t-16 37.5q0 30 25 40q-16 25 -58.5 45.5
t-100.5 20.5q-111 0 -184 -81t-73 -194q0 -109 74 -190t187 -81t204 85l44 -53q-100 -100 -248 -100z" />
    <glyph glyph-name="cacute" unicode="&#x107;" horiz-adv-x="473" 
d="M222 503l-19 24l121 126q21 23 43 23q17 0 28.5 -12t11.5 -31q0 -23 -34 -44zM268 -8q-97 0 -161.5 63t-64.5 157q0 90 62.5 156t150.5 66q71 0 122.5 -39.5t51.5 -88.5q0 -24 -15.5 -41t-38.5 -17q-18 0 -32 13t-14 34q0 22 21 35q-8 19 -35.5 32t-60.5 13
q-53 0 -97 -44t-44 -120q0 -70 45 -114t118 -44q69 0 142 47l-6 -67q-61 -41 -144 -41z" />
    <glyph glyph-name="Cdotaccent" unicode="&#x10a;" horiz-adv-x="702" 
d="M393 -12q-148 0 -242.5 99t-94.5 239q0 149 98.5 246.5t235.5 97.5q101 0 173.5 -50.5t72.5 -111.5q0 -28 -16.5 -46.5t-41.5 -18.5q-23 0 -39 15.5t-16 37.5q0 30 25 40q-16 25 -58.5 45.5t-100.5 20.5q-111 0 -184 -81t-73 -194q0 -109 74 -190t187 -81t204 85l44 -53
q-100 -100 -248 -100zM390 728q-24 0 -40.5 17.5t-16.5 41.5q0 25 17 42t41 17t40.5 -17t16.5 -42q0 -24 -17 -41.5t-41 -17.5z" />
    <glyph glyph-name="cdotaccent" unicode="&#x10b;" horiz-adv-x="473" 
d="M268 -8q-97 0 -161.5 63t-64.5 157q0 90 62.5 156t150.5 66q71 0 122.5 -39.5t51.5 -88.5q0 -24 -15.5 -41t-38.5 -17q-18 0 -32 13t-14 34q0 22 21 35q-8 19 -35.5 32t-60.5 13q-53 0 -97 -44t-44 -120q0 -70 45 -114t118 -44q69 0 142 47l-6 -67q-61 -41 -144 -41z
M251 514q-24 0 -40.5 17.5t-16.5 41.5q0 25 17 42t41 17t40.5 -17t16.5 -42q0 -24 -17 -41.5t-41 -17.5z" />
    <glyph glyph-name="Ccaron" unicode="&#x10c;" horiz-adv-x="702" 
d="M513 899l31 -37l-154 -147l-154 147l31 37l123 -93zM393 -12q-148 0 -242.5 99t-94.5 239q0 149 98.5 246.5t235.5 97.5q101 0 173.5 -50.5t72.5 -111.5q0 -28 -16.5 -46.5t-41.5 -18.5q-23 0 -39 15.5t-16 37.5q0 30 25 40q-16 25 -58.5 45.5t-100.5 20.5
q-111 0 -184 -81t-73 -194q0 -109 74 -190t187 -81t204 85l44 -53q-100 -100 -248 -100z" />
    <glyph glyph-name="ccaron" unicode="&#x10d;" horiz-adv-x="473" 
d="M374 685l31 -37l-154 -147l-154 147l31 37l123 -93zM268 -8q-97 0 -161.5 63t-64.5 157q0 90 62.5 156t150.5 66q71 0 122.5 -39.5t51.5 -88.5q0 -24 -15.5 -41t-38.5 -17q-18 0 -32 13t-14 34q0 22 21 35q-8 19 -35.5 32t-60.5 13q-53 0 -97 -44t-44 -120q0 -70 45 -114
t118 -44q69 0 142 47l-6 -67q-61 -41 -144 -41z" />
    <glyph glyph-name="Dcaron" unicode="&#x10e;" horiz-adv-x="728" 
d="M463 899l31 -37l-154 -147l-154 147l31 37l123 -93zM47 0v66h84v526h-84v66h247q172 0 275 -88t103 -234q0 -152 -101 -244t-280 -92h-244zM206 66h94q144 0 220 73.5t76 197.5q0 118 -82 186.5t-222 68.5h-86v-526z" />
    <glyph glyph-name="dcaron" unicode="&#x10f;" horiz-adv-x="550" 
d="M513 507l-23 18q36 53 36 103q0 15 -4.5 35t-4.5 33q0 20 11.5 33t33.5 13q43 0 43 -50q0 -89 -92 -185zM246 -8q-86 0 -144 61t-58 157q0 93 58.5 158.5t152.5 65.5q78 0 132 -51v289h-80v60h149v-672h69v-60h-136v60q-61 -68 -143 -68zM256 52q71 0 131 64v209
q-58 49 -128 49q-63 0 -103 -46t-40 -117q-1 -71 39 -115t101 -44z" />
    <glyph glyph-name="Dcroat" unicode="&#x110;" horiz-adv-x="734" 
d="M138 306h-73v62h73v224h-84v66h246q171 0 274.5 -88t103.5 -234q0 -152 -100.5 -244t-276.5 -92h-247v66h84v240zM212 66h94q144 0 220 73.5t76 197.5q0 118 -82 186.5t-222 68.5h-86v-224h150v-62h-150v-240z" />
    <glyph glyph-name="dcroat" unicode="&#x111;" horiz-adv-x="550" 
d="M233 521v57h154v94h-80v60h149v-154h69v-57h-69v-461h69v-60h-136v60q-61 -68 -143 -68q-86 0 -144 61t-58 157q0 93 58.5 158.5t152.5 65.5q78 0 132 -51v138h-154zM256 52q71 0 131 64v209q-58 49 -128 49q-63 0 -103 -46t-40 -117q-1 -71 39 -115t101 -44z" />
    <glyph glyph-name="Emacron" unicode="&#x112;" horiz-adv-x="588" 
d="M47 0v66h84v526h-84v66h478v-161h-71v96h-248v-226h215v-64h-215v-238h248v96h72v-161h-479zM137 749v63h304v-63h-304z" />
    <glyph glyph-name="emacron" unicode="&#x113;" horiz-adv-x="485" 
d="M441 193h-328q7 -69 50 -104.5t114 -35.5q69 0 150 47l-6 -67q-67 -41 -153 -41q-102 0 -164.5 61t-62.5 159q0 92 57.5 157t151.5 65q91 0 143 -58.5t52 -142.5q0 -25 -4 -40zM246 375q-50 0 -87.5 -34t-44.5 -93h261q-4 58 -37 92.5t-92 34.5zM93 535v63h304v-63h-304z
" />
    <glyph glyph-name="Ebreve" unicode="&#x114;" horiz-adv-x="588" 
d="M47 0v66h84v526h-84v66h478v-161h-71v96h-248v-226h215v-64h-215v-238h248v96h72v-161h-479zM288 722q-55 0 -97 36.5t-62 99.5l49 21q16 -42 46 -65t64 -23q36 0 65 24t45 64l49 -21q-19 -63 -61.5 -99.5t-97.5 -36.5z" />
    <glyph glyph-name="ebreve" unicode="&#x115;" horiz-adv-x="485" 
d="M441 193h-328q7 -69 50 -104.5t114 -35.5q69 0 150 47l-6 -67q-67 -41 -153 -41q-102 0 -164.5 61t-62.5 159q0 92 57.5 157t151.5 65q91 0 143 -58.5t52 -142.5q0 -25 -4 -40zM246 375q-50 0 -87.5 -34t-44.5 -93h261q-4 58 -37 92.5t-92 34.5zM244 508q-55 0 -97 36.5
t-62 99.5l49 21q16 -42 46 -65t64 -23q36 0 65 24t45 64l49 -21q-19 -63 -61.5 -99.5t-97.5 -36.5z" />
    <glyph glyph-name="Edotaccent" unicode="&#x116;" horiz-adv-x="588" 
d="M47 0v66h84v526h-84v66h478v-161h-71v96h-248v-226h215v-64h-215v-238h248v96h72v-161h-479zM288 728q-24 0 -40.5 17.5t-16.5 41.5q0 25 17 42t41 17t40.5 -17t16.5 -42q0 -24 -17 -41.5t-41 -17.5z" />
    <glyph glyph-name="edotaccent" unicode="&#x117;" horiz-adv-x="485" 
d="M441 193h-328q7 -69 50 -104.5t114 -35.5q69 0 150 47l-6 -67q-67 -41 -153 -41q-102 0 -164.5 61t-62.5 159q0 92 57.5 157t151.5 65q91 0 143 -58.5t52 -142.5q0 -25 -4 -40zM246 375q-50 0 -87.5 -34t-44.5 -93h261q-4 58 -37 92.5t-92 34.5zM244 514
q-24 0 -40.5 17.5t-16.5 41.5q0 25 17 42t41 17t40.5 -17t16.5 -42q0 -24 -17 -41.5t-41 -17.5z" />
    <glyph glyph-name="Eogonek" unicode="&#x118;" horiz-adv-x="588" 
d="M47 0v66h84v526h-84v66h478v-161h-71v96h-248v-226h215v-64h-215v-238h248v96h72v-161h-62q-72 -39 -72 -92q0 -52 55 -52q40 0 78 19l-4 -53q-31 -23 -86 -23q-51 0 -78.5 25.5t-27.5 67.5q0 63 64 108h-346z" />
    <glyph glyph-name="eogonek" unicode="&#x119;" horiz-adv-x="485" 
d="M441 193h-328q7 -69 50 -104.5t114 -35.5q69 0 150 47l-6 -67q-86 -44 -111 -68q-29 -27 -29 -58q0 -51 56 -51q39 0 77 19l-3 -53q-33 -23 -87 -23q-51 0 -78.5 25.5t-27.5 67.5q0 59 52 100h-2q-102 0 -164.5 61t-62.5 159q0 92 57.5 157t151.5 65q91 0 143 -58.5
t52 -142.5q0 -25 -4 -40zM246 375q-50 0 -87.5 -34t-44.5 -93h261q-4 58 -37 92.5t-92 34.5z" />
    <glyph glyph-name="Ecaron" unicode="&#x11a;" horiz-adv-x="588" 
d="M411 899l31 -37l-154 -147l-154 147l31 37l123 -93zM47 0v66h84v526h-84v66h478v-161h-71v96h-248v-226h215v-64h-215v-238h248v96h72v-161h-479z" />
    <glyph glyph-name="ecaron" unicode="&#x11b;" horiz-adv-x="485" 
d="M441 193h-328q7 -69 50 -104.5t114 -35.5q69 0 150 47l-6 -67q-67 -41 -153 -41q-102 0 -164.5 61t-62.5 159q0 92 57.5 157t151.5 65q91 0 143 -58.5t52 -142.5q0 -25 -4 -40zM246 375q-50 0 -87.5 -34t-44.5 -93h261q-4 58 -37 92.5t-92 34.5zM367 685l31 -37
l-154 -147l-154 147l31 37l123 -93z" />
    <glyph glyph-name="Gbreve" unicode="&#x11e;" horiz-adv-x="737" 
d="M376 -12q-131 0 -225.5 92.5t-94.5 243.5q0 152 100 249t241 97q105 0 176 -48t71 -104q0 -27 -16 -44.5t-40 -17.5q-23 0 -38.5 15t-15.5 38q0 24 17 38q-21 23 -62.5 39t-93.5 16q-116 0 -189.5 -79.5t-73.5 -198.5t73.5 -194.5t178.5 -75.5t195 63v140h-182v63h255
v-320h-71v57q-91 -69 -205 -69zM381 722q-55 0 -97 36.5t-62 99.5l49 21q16 -42 46 -65t64 -23q36 0 65 24t45 64l49 -21q-19 -63 -61.5 -99.5t-97.5 -36.5z" />
    <glyph glyph-name="gbreve" unicode="&#x11f;" horiz-adv-x="556" 
d="M457 365v-379q0 -77 -39 -124q-51 -62 -162 -62q-97 0 -145 46q-22 22 -22 49q0 22 14 37t36 15q18 0 30 -12.5t12 -30.5q0 -16 -9 -28q28 -17 84 -17q73 0 107 42q25 31 25 82v83q-61 -63 -142 -63q-85 0 -143.5 60t-58.5 152q0 89 59 154t152 65q78 0 136 -55v47h135
v-61h-69zM261 373q-64 0 -104.5 -44.5t-40.5 -112.5q0 -67 39.5 -110t101.5 -43q72 0 131 62v200q-55 48 -127 48zM283 508q-55 0 -97 36.5t-62 99.5l49 21q16 -42 46 -65t64 -23q36 0 65 24t45 64l49 -21q-19 -63 -61.5 -99.5t-97.5 -36.5z" />
    <glyph glyph-name="Gdotaccent" unicode="&#x120;" horiz-adv-x="737" 
d="M376 -12q-131 0 -225.5 92.5t-94.5 243.5q0 152 100 249t241 97q105 0 176 -48t71 -104q0 -27 -16 -44.5t-40 -17.5q-23 0 -38.5 15t-15.5 38q0 24 17 38q-21 23 -62.5 39t-93.5 16q-116 0 -189.5 -79.5t-73.5 -198.5t73.5 -194.5t178.5 -75.5t195 63v140h-182v63h255
v-320h-71v57q-91 -69 -205 -69zM381 728q-24 0 -40.5 17.5t-16.5 41.5q0 25 17 42t41 17t40.5 -17t16.5 -42q0 -24 -17 -41.5t-41 -17.5z" />
    <glyph glyph-name="gdotaccent" unicode="&#x121;" horiz-adv-x="556" 
d="M457 365v-379q0 -77 -39 -124q-51 -62 -162 -62q-97 0 -145 46q-22 22 -22 49q0 22 14 37t36 15q18 0 30 -12.5t12 -30.5q0 -16 -9 -28q28 -17 84 -17q73 0 107 42q25 31 25 82v83q-61 -63 -142 -63q-85 0 -143.5 60t-58.5 152q0 89 59 154t152 65q78 0 136 -55v47h135
v-61h-69zM261 373q-64 0 -104.5 -44.5t-40.5 -112.5q0 -67 39.5 -110t101.5 -43q72 0 131 62v200q-55 48 -127 48zM281 514q-24 0 -40.5 17.5t-16.5 41.5q0 25 17 42t41 17t40.5 -17t16.5 -42q0 -24 -17 -41.5t-41 -17.5z" />
    <glyph glyph-name="Gcommaaccent" unicode="&#x122;" horiz-adv-x="737" 
d="M314 -278l-16 23q74 55 76 103q-18 4 -30.5 18t-12.5 32q0 21 14.5 35t34.5 14q24 0 40 -17t16 -48q0 -39 -29.5 -82.5t-92.5 -77.5zM376 -12q-131 0 -225.5 92.5t-94.5 243.5q0 152 100 249t241 97q105 0 176 -48t71 -104q0 -27 -16 -44.5t-40 -17.5q-23 0 -38.5 15
t-15.5 38q0 24 17 38q-21 23 -62.5 39t-93.5 16q-116 0 -189.5 -79.5t-73.5 -198.5t73.5 -194.5t178.5 -75.5t195 63v140h-182v63h255v-320h-71v57q-91 -69 -205 -69z" />
    <glyph glyph-name="gcommaaccent" unicode="&#x123;" horiz-adv-x="556" 
d="M359 744l16 -23q-74 -55 -76 -103q18 -4 30.5 -18t12.5 -32q0 -21 -14.5 -35t-34.5 -14q-24 0 -40 17t-16 48q0 39 29.5 82.5t92.5 77.5zM457 365v-379q0 -77 -39 -124q-51 -62 -162 -62q-97 0 -145 46q-22 22 -22 49q0 22 14 37t36 15q18 0 30 -12.5t12 -30.5
q0 -16 -9 -28q28 -17 84 -17q73 0 107 42q25 31 25 82v83q-61 -63 -142 -63q-85 0 -143.5 60t-58.5 152q0 89 59 154t152 65q78 0 136 -55v47h135v-61h-69zM261 373q-64 0 -104.5 -44.5t-40.5 -112.5q0 -67 39.5 -110t101.5 -43q72 0 131 62v200q-55 48 -127 48z" />
    <glyph glyph-name="Hbar" unicode="&#x126;" horiz-adv-x="776" 
d="M67 453v59h64v83h-84v63h245v-63h-86v-83h364v83h-86v63h245v-63h-84v-83h64v-59h-64v-387h84v-66h-245v66h86v232h-364v-232h86v-66h-245v66h84v387h-64zM206 363h364v90h-364v-90z" />
    <glyph glyph-name="hbar" unicode="&#x127;" horiz-adv-x="556" 
d="M99 672h-68v60h137v-154h155v-57h-155v-172q74 85 158 85q73 0 108 -46q28 -37 28 -98v-230h69v-60h-205v60h67v216q0 45 -19 67q-21 27 -66 27q-72 0 -140 -75v-235h67v-60h-204v60h68v461h-68v57h68v94z" />
    <glyph glyph-name="Imacron" unicode="&#x12a;" horiz-adv-x="348" 
d="M48 0v66h89v526h-89v66h252v-66h-89v-526h89v-66h-252zM22 749v63h304v-63h-304z" />
    <glyph glyph-name="imacron" unicode="&#x12b;" horiz-adv-x="290" 
d="M43 0v60h72v305h-72v61h141v-366h72v-60h-213zM-8 535v63h304v-63h-304z" />
    <glyph glyph-name="Ibreve" unicode="&#x12c;" horiz-adv-x="348" 
d="M48 0v66h89v526h-89v66h252v-66h-89v-526h89v-66h-252zM173 722q-55 0 -97 36.5t-62 99.5l49 21q16 -42 46 -65t64 -23q36 0 65 24t45 64l49 -21q-19 -63 -61.5 -99.5t-97.5 -36.5z" />
    <glyph glyph-name="ibreve" unicode="&#x12d;" horiz-adv-x="290" 
d="M43 0v60h72v305h-72v61h141v-366h72v-60h-213zM143 508q-55 0 -97 36.5t-62 99.5l49 21q16 -42 46 -65t64 -23q36 0 65 24t45 64l49 -21q-19 -63 -61.5 -99.5t-97.5 -36.5z" />
    <glyph glyph-name="Iogonek" unicode="&#x12e;" horiz-adv-x="348" 
d="M48 0v66h89v526h-89v66h252v-66h-89v-526h89v-66h-82q-72 -39 -72 -92q0 -52 55 -52q40 0 78 19l-4 -53q-31 -23 -86 -23q-51 0 -78.5 25.5t-27.5 67.5q0 63 64 108h-99z" />
    <glyph glyph-name="iogonek" unicode="&#x12f;" horiz-adv-x="290" 
d="M43 0v60h72v305h-72v61h141v-366h72v-60h-76q-72 -39 -72 -92q0 -52 55 -52q40 0 78 19l-4 -53q-31 -23 -86 -23q-51 0 -78.5 25.5t-27.5 67.5q0 63 64 108h-66zM140 535q-22 0 -38.5 16.5t-16.5 38.5t16.5 39t39.5 17q22 0 38 -16.5t16 -39.5q0 -22 -16.5 -38.5
t-38.5 -16.5z" />
    <glyph glyph-name="Idotaccent" unicode="&#x130;" horiz-adv-x="348" 
d="M48 0v66h89v526h-89v66h252v-66h-89v-526h89v-66h-252zM174 728q-24 0 -40.5 17.5t-16.5 41.5q0 25 17 42t41 17t40.5 -17t16.5 -42q0 -24 -17 -41.5t-41 -17.5z" />
    <glyph glyph-name="dotlessi" unicode="&#x131;" horiz-adv-x="290" 
d="M43 0v60h72v305h-72v61h141v-366h72v-60h-213z" />
    <glyph glyph-name="Kcommaaccent" unicode="&#x136;" horiz-adv-x="675" 
d="M287 -278l-16 23q74 55 76 103q-18 4 -30.5 18t-12.5 32q0 21 14.5 35t34.5 14q24 0 40 -17t16 -48q0 -39 -29.5 -82.5t-92.5 -77.5zM47 0v66h84v526h-84v66h245v-65h-86v-287l285 287h-88v65h254v-66h-74l-214 -213l210 -313h83v-66h-131l-217 330l-108 -108v-156h86
v-66h-245z" />
    <glyph glyph-name="kcommaaccent" unicode="&#x137;" horiz-adv-x="524" 
d="M199 -278l-16 23q74 55 76 103q-18 4 -30.5 18t-12.5 32q0 21 14.5 35t34.5 14q24 0 40 -17t16 -48q0 -39 -29.5 -82.5t-92.5 -77.5zM31 0v60h68v612h-68v60h137v-518l178 154h-83v58h241v-61h-76l-134 -115l132 -190h78v-60h-118l-142 212l-76 -64v-89h69v-59h-206z" />
    <glyph glyph-name="Lacute" unicode="&#x139;" horiz-adv-x="554" 
d="M165 728l-19 24l121 126q21 23 43 23q16 0 28 -11.5t12 -31.5q0 -23 -34 -44zM47 0v66h84v526h-84v66h250v-66h-91v-527h228v101h71v-166h-458z" />
    <glyph glyph-name="lacute" unicode="&#x13a;" horiz-adv-x="278" 
d="M127 771l-19 24l121 126q21 23 43 23q16 0 28 -12t12 -31q0 -23 -34 -44zM33 0v60h72v612h-72v60h141v-672h72v-60h-213z" />
    <glyph glyph-name="Lcommaaccent" unicode="&#x13b;" horiz-adv-x="554" 
d="M208 -278l-16 23q74 55 76 103q-18 4 -30.5 18t-12.5 32q0 21 14.5 35t34.5 14q24 0 40 -17t16 -48q0 -39 -29.5 -82.5t-92.5 -77.5zM47 0v66h84v526h-84v66h250v-66h-91v-527h228v101h71v-166h-458z" />
    <glyph glyph-name="lcommaaccent" unicode="&#x13c;" horiz-adv-x="278" 
d="M71 -278l-16 23q74 55 76 103q-18 4 -30.5 18t-12.5 32q0 21 14.5 35t34.5 14q24 0 40 -17t16 -48q0 -39 -29.5 -82.5t-92.5 -77.5zM33 0v60h72v612h-72v60h141v-672h72v-60h-213z" />
    <glyph glyph-name="Lcaron" unicode="&#x13d;" horiz-adv-x="554" 
d="M354 425l-23 18q36 53 36 103q0 15 -4.5 35t-4.5 33q0 20 11.5 33t33.5 13q43 0 43 -50q0 -89 -92 -185zM47 0v66h84v526h-84v66h250v-66h-91v-527h228v101h71v-166h-458z" />
    <glyph glyph-name="lcaron" unicode="&#x13e;" horiz-adv-x="278" 
d="M230 507l-23 18q36 53 36 103q0 15 -4.5 35t-4.5 33q0 20 11.5 33t33.5 13q43 0 43 -50q0 -89 -92 -185zM33 0v60h72v612h-72v60h141v-672h72v-60h-213z" />
    <glyph glyph-name="Ldot" unicode="&#x13f;" horiz-adv-x="554" 
d="M47 0v66h84v526h-84v66h250v-66h-91v-527h228v101h71v-166h-458zM445 297q-24 0 -40.5 17.5t-16.5 41.5q0 25 17 42t41 17t40.5 -17t16.5 -42q0 -24 -17 -41.5t-41 -17.5z" />
    <glyph glyph-name="ldot" unicode="&#x140;" horiz-adv-x="316" 
d="M33 0v60h72v612h-72v60h141v-672h72v-60h-213zM297 281q-24 0 -40.5 17.5t-16.5 41.5q0 25 17 42t41 17t40.5 -17t16.5 -42q0 -24 -17 -41.5t-41 -17.5z" />
    <glyph glyph-name="Lslash" unicode="&#x141;" horiz-adv-x="560" 
d="M53 0v66h84v197l-81 -47l-31 53l112 65v258h-84v66h250v-66h-91v-215l141 83l31 -53l-172 -101v-241h228v101h71v-166h-458z" />
    <glyph glyph-name="lslash" unicode="&#x142;" horiz-adv-x="292" 
d="M40 0v60h72v297l-85 -50l-29 50l114 68v247h-72v60h141v-269l77 45l29 -50l-106 -63v-335h72v-60h-213z" />
    <glyph glyph-name="Nacute" unicode="&#x143;" horiz-adv-x="764" 
d="M351 717l-19 24l121 126q21 23 43 23q16 0 28 -12t12 -31q0 -23 -34 -44zM606 -3l-403 531v-462h86v-66h-242v66h84v526h-84v66h149l380 -501v435h-87v66h239v-66h-81v-594z" />
    <glyph glyph-name="nacute" unicode="&#x144;" horiz-adv-x="563" 
d="M259 503l-19 24l121 126q21 23 43 23q16 0 28 -12t12 -31q0 -23 -34 -44zM175 426v-79q74 87 160 87q79 0 113 -55q21 -36 21 -89v-230h68v-60h-204v60h67v216q0 36 -11 57q-18 37 -71 37q-72 0 -140 -75v-235h67v-60h-204v60h68v305h-68v61h134z" />
    <glyph glyph-name="Ncommaaccent" unicode="&#x145;" horiz-adv-x="764" 
d="M316 -276l-16 23q74 55 76 103q-18 4 -30.5 18t-12.5 32q0 21 14.5 35t34.5 14q24 0 40 -17t16 -48q0 -39 -29.5 -82.5t-92.5 -77.5zM606 -3l-403 531v-462h86v-66h-242v66h84v526h-84v66h149l380 -501v435h-87v66h239v-66h-81v-594z" />
    <glyph glyph-name="ncommaaccent" unicode="&#x146;" horiz-adv-x="563" 
d="M221 -278l-16 23q74 55 76 103q-18 4 -30.5 18t-12.5 32q0 21 14.5 35t34.5 14q24 0 40 -17t16 -48q0 -39 -29.5 -82.5t-92.5 -77.5zM175 426v-79q74 87 160 87q79 0 113 -55q21 -36 21 -89v-230h68v-60h-204v60h67v216q0 36 -11 57q-18 37 -71 37q-72 0 -140 -75v-235
h67v-60h-204v60h68v305h-68v61h134z" />
    <glyph glyph-name="Ncaron" unicode="&#x147;" horiz-adv-x="764" 
d="M503 899l31 -37l-154 -147l-154 147l31 37l123 -93zM606 -3l-403 531v-462h86v-66h-242v66h84v526h-84v66h149l380 -501v435h-87v66h239v-66h-81v-594z" />
    <glyph glyph-name="ncaron" unicode="&#x148;" horiz-adv-x="563" 
d="M411 685l31 -37l-154 -147l-154 147l31 37l123 -93zM175 426v-79q74 87 160 87q79 0 113 -55q21 -36 21 -89v-230h68v-60h-204v60h67v216q0 36 -11 57q-18 37 -71 37q-72 0 -140 -75v-235h67v-60h-204v60h68v305h-68v61h134z" />
    <glyph glyph-name="Omacron" unicode="&#x14c;" horiz-adv-x="777" 
d="M236 749v63h304v-63h-304zM387 -12q-143 0 -237 98t-94 242q0 146 95 244t240 98q142 0 236.5 -98t94.5 -242q0 -145 -95.5 -243.5t-239.5 -98.5zM389 56q112 0 184 78t72 194q0 117 -72 195.5t-184 78.5t-184.5 -77.5t-72.5 -194.5t72.5 -195.5t184.5 -78.5z" />
    <glyph glyph-name="omacron" unicode="&#x14d;" horiz-adv-x="526" 
d="M110 535v63h304v-63h-304zM263 -8q-98 0 -158.5 63.5t-60.5 157.5q0 92 61 156.5t158 64.5t158 -64t61 -157t-61 -157t-158 -64zM263 52q65 0 106 45t41 116t-41 116t-106 45t-106 -45t-41 -116t41 -116t106 -45z" />
    <glyph glyph-name="Obreve" unicode="&#x14e;" horiz-adv-x="777" 
d="M387 -12q-143 0 -237 98t-94 242q0 146 95 244t240 98q142 0 236.5 -98t94.5 -242q0 -145 -95.5 -243.5t-239.5 -98.5zM389 56q112 0 184 78t72 194q0 117 -72 195.5t-184 78.5t-184.5 -77.5t-72.5 -194.5t72.5 -195.5t184.5 -78.5zM387 722q-55 0 -97 36.5t-62 99.5
l49 21q16 -42 46 -65t64 -23q36 0 65 24t45 64l49 -21q-19 -63 -61.5 -99.5t-97.5 -36.5z" />
    <glyph glyph-name="obreve" unicode="&#x14f;" horiz-adv-x="526" 
d="M263 -8q-98 0 -158.5 63.5t-60.5 157.5q0 92 61 156.5t158 64.5t158 -64t61 -157t-61 -157t-158 -64zM263 52q65 0 106 45t41 116t-41 116t-106 45t-106 -45t-41 -116t41 -116t106 -45zM262 508q-55 0 -97 36.5t-62 99.5l49 21q16 -42 46 -65t64 -23q36 0 65 24t45 64
l49 -21q-19 -63 -61.5 -99.5t-97.5 -36.5z" />
    <glyph glyph-name="Ohungarumlaut" unicode="&#x150;" horiz-adv-x="777" 
d="M261 719l-16 24l132 124q25 23 43 23q17 0 28.5 -11.5t11.5 -29.5q0 -25 -38 -46zM452 723l-13 25l142 118q23 19 42 19q18 0 28.5 -11.5t10.5 -28.5q0 -30 -40 -46zM387 -12q-143 0 -237 98t-94 242q0 146 95 244t240 98q142 0 236.5 -98t94.5 -242q0 -145 -95.5 -243.5
t-239.5 -98.5zM389 56q112 0 184 78t72 194q0 117 -72 195.5t-184 78.5t-184.5 -77.5t-72.5 -194.5t72.5 -195.5t184.5 -78.5z" />
    <glyph glyph-name="ohungarumlaut" unicode="&#x151;" horiz-adv-x="526" 
d="M136 505l-16 24l132 124q25 23 43 23q17 0 28.5 -11.5t11.5 -29.5q0 -25 -38 -46zM327 509l-13 25l142 118q23 19 42 19q18 0 28.5 -11.5t10.5 -28.5q0 -30 -40 -46zM263 -8q-98 0 -158.5 63.5t-60.5 157.5q0 92 61 156.5t158 64.5t158 -64t61 -157t-61 -157t-158 -64z
M263 52q65 0 106 45t41 116t-41 116t-106 45t-106 -45t-41 -116t41 -116t106 -45z" />
    <glyph glyph-name="OE" unicode="&#x152;" horiz-adv-x="931" 
d="M420 0q-161 0 -262.5 88.5t-101.5 233.5q0 151 98.5 243.5t264.5 92.5h449v-161h-71v96h-248v-226h215v-64h-215v-238h248v96h71v-161h-448zM422 66h52v526h-60q-134 0 -208 -74t-74 -197q0 -117 80 -186t210 -69z" />
    <glyph glyph-name="oe" unicode="&#x153;" horiz-adv-x="843" 
d="M641 53q68 0 149 47l-6 -67q-67 -41 -151 -41q-66 0 -116 29t-75 78q-25 -49 -72 -78t-109 -29q-96 0 -156.5 63.5t-60.5 157.5q0 92 61 156.5t156 64.5q62 0 109.5 -29.5t71.5 -78.5q25 49 70 78.5t103 29.5q90 0 141.5 -58.5t51.5 -142.5q0 -23 -3 -40h-328
q7 -69 50 -104.5t114 -35.5zM263 52q65 0 106 45t41 116t-41 116t-106 45t-106 -45t-41 -116t41 -116t106 -45zM610 375q-50 0 -87.5 -34t-44.5 -93h261q-4 58 -37.5 92.5t-91.5 34.5z" />
    <glyph glyph-name="Racute" unicode="&#x154;" horiz-adv-x="618" 
d="M278 717l-19 24l121 126q21 23 43 23q17 0 28.5 -12t11.5 -31q0 -23 -34 -44zM47 0v66h84v526h-84v66h250q109 0 174 -51.5t65 -139.5q0 -66 -38.5 -112.5t-102.5 -67.5l138 -221h79v-66h-130l-162 269q-24 -2 -38 -2q-38 0 -76 2v-203h86v-66h-245zM286 332
q78 0 126.5 35t48.5 98q0 61 -45 94t-123 33h-87v-258q40 -2 80 -2z" />
    <glyph glyph-name="racute" unicode="&#x155;" horiz-adv-x="380" 
d="M305 434q30 0 47 -16.5t17 -39.5q0 -21 -14 -36t-34 -15q-38 0 -51 36q-24 -7 -50 -32.5t-42 -57.5v-213h80v-60h-217v60h68v305h-68v61h134v-97q26 46 61.5 75.5t68.5 29.5zM175 503l-19 24l121 126q21 23 43 23q16 0 28 -12t12 -31q0 -23 -34 -44z" />
    <glyph glyph-name="Rcommaaccent" unicode="&#x156;" horiz-adv-x="618" 
d="M240 -278l-16 23q74 55 76 103q-18 4 -30.5 18t-12.5 32q0 21 14.5 35t34.5 14q24 0 40 -17t16 -48q0 -39 -29.5 -82.5t-92.5 -77.5zM47 0v66h84v526h-84v66h250q109 0 174 -51.5t65 -139.5q0 -66 -38.5 -112.5t-102.5 -67.5l138 -221h79v-66h-130l-162 269
q-24 -2 -38 -2q-38 0 -76 2v-203h86v-66h-245zM286 332q78 0 126.5 35t48.5 98q0 61 -45 94t-123 33h-87v-258q40 -2 80 -2z" />
    <glyph glyph-name="rcommaaccent" unicode="&#x157;" horiz-adv-x="380" 
d="M305 434q30 0 47 -16.5t17 -39.5q0 -21 -14 -36t-34 -15q-38 0 -51 36q-24 -7 -50 -32.5t-42 -57.5v-213h80v-60h-217v60h68v305h-68v61h134v-97q26 46 61.5 75.5t68.5 29.5zM75 -278l-16 23q74 55 76 103q-18 4 -30.5 18t-12.5 32q0 21 14.5 35t34.5 14q24 0 40 -17
t16 -48q0 -39 -29.5 -82.5t-92.5 -77.5z" />
    <glyph glyph-name="Rcaron" unicode="&#x158;" horiz-adv-x="618" 
d="M430 899l31 -37l-154 -147l-154 147l31 37l123 -93zM47 0v66h84v526h-84v66h250q109 0 174 -51.5t65 -139.5q0 -66 -38.5 -112.5t-102.5 -67.5l138 -221h79v-66h-130l-162 269q-24 -2 -38 -2q-38 0 -76 2v-203h86v-66h-245zM286 332q78 0 126.5 35t48.5 98q0 61 -45 94
t-123 33h-87v-258q40 -2 80 -2z" />
    <glyph glyph-name="rcaron" unicode="&#x159;" horiz-adv-x="380" 
d="M305 434q30 0 47 -16.5t17 -39.5q0 -21 -14 -36t-34 -15q-38 0 -51 36q-24 -7 -50 -32.5t-42 -57.5v-213h80v-60h-217v60h68v305h-68v61h134v-97q26 46 61.5 75.5t68.5 29.5zM328 685l31 -37l-154 -147l-154 147l31 37l123 -93z" />
    <glyph glyph-name="Sacute" unicode="&#x15a;" horiz-adv-x="549" 
d="M252 717l-19 24l121 126q21 23 43 23q17 0 28.5 -12t11.5 -31q0 -23 -34 -44zM274 -11q-93 0 -156 42.5t-63 93.5q0 28 15 45.5t38 17.5t37.5 -14.5t14.5 -34.5q0 -23 -16 -44q41 -41 131 -41q66 0 103.5 31t37.5 85q0 46 -34.5 73.5t-102.5 53.5q-50 19 -80 34t-60.5 38
t-44.5 54t-14 72q0 77 56 126t147 49q80 0 138 -39t58 -91q0 -27 -15 -42.5t-37 -15.5q-23 0 -38 15t-15 36q0 20 14 38q-13 15 -44 24t-63 9q-58 0 -92.5 -28.5t-34.5 -74.5q0 -48 35.5 -75t109.5 -56q48 -18 77 -33t58 -37.5t42.5 -53t13.5 -70.5q0 -85 -60.5 -136
t-155.5 -51z" />
    <glyph glyph-name="sacute" unicode="&#x15b;" horiz-adv-x="437" 
d="M376 341q0 -20 -12 -33t-30 -13q-20 0 -33 12.5t-13 31.5q0 14 5 24q-22 15 -75 15q-42 0 -67.5 -18.5t-25.5 -43.5q0 -26 24.5 -39.5t84.5 -28.5q79 -19 118.5 -45.5t39.5 -82.5q0 -59 -49.5 -93.5t-120.5 -34.5q-47 0 -89.5 13.5t-64.5 35.5q-23 23 -23 53
q0 19 12.5 33t30.5 14q20 0 33 -12.5t13 -31.5q0 -10 -7 -26q31 -24 95 -24q45 0 74.5 18t29.5 48q0 27 -24.5 41.5t-76.5 27.5q-88 22 -127.5 48t-39.5 81q0 50 44 86.5t118 36.5q90 0 134 -44q22 -22 22 -49zM189 503l-19 24l121 126q21 23 43 23q16 0 28 -12t12 -31
q0 -23 -34 -44z" />
    <glyph glyph-name="Scedilla" unicode="&#x15e;" horiz-adv-x="549" 
d="M279 -199q-58 0 -112 28l15 32q45 -19 88 -19q42 0 42 29q0 31 -53 31q-3 0 -10 -1t-8 -1l-19 16l23 74q-82 7 -136 48t-54 87q0 28 15 45.5t38 17.5t37.5 -14.5t14.5 -34.5q0 -23 -16 -44q41 -41 131 -41q66 0 103.5 31t37.5 85q0 46 -34.5 73.5t-102.5 53.5
q-50 19 -80 34t-60.5 38t-44.5 54t-14 72q0 77 56 126t147 49q80 0 138 -39t58 -91q0 -27 -15 -42.5t-37 -15.5q-23 0 -38 15t-15 36q0 20 14 38q-13 15 -44 24t-63 9q-58 0 -92.5 -28.5t-34.5 -74.5q0 -48 35.5 -75t109.5 -56q48 -18 77 -33t58 -37.5t42.5 -53t13.5 -70.5
q0 -83 -57.5 -133.5t-148.5 -53.5l-1 -37q45 -2 69.5 -23t24.5 -53t-26 -53.5t-72 -21.5z" />
    <glyph glyph-name="scedilla" unicode="&#x15f;" horiz-adv-x="437" 
d="M226 -199q-58 0 -112 28l15 32q45 -19 88 -19q42 0 42 29q0 31 -53 31q-3 0 -10 -1t-8 -1l-19 16l25 78q-89 8 -126 47q-23 23 -23 53q0 19 12.5 33t30.5 14q20 0 33 -12.5t13 -31.5q0 -10 -7 -26q31 -24 95 -24q45 0 74.5 18t29.5 48q0 27 -24.5 41.5t-76.5 27.5
q-88 22 -127.5 48t-39.5 81q0 50 44 86.5t118 36.5q90 0 134 -44q22 -22 22 -49q0 -20 -12 -33t-30 -13q-20 0 -33 12.5t-13 31.5q0 14 5 24q-22 15 -75 15q-42 0 -67.5 -18.5t-25.5 -43.5q0 -26 24.5 -39.5t84.5 -28.5q79 -19 118.5 -45.5t39.5 -82.5t-46 -90.5t-114 -37.5
l-2 -40q45 -2 69.5 -23t24.5 -53t-26 -53.5t-72 -21.5z" />
    <glyph glyph-name="Scaron" unicode="&#x160;" horiz-adv-x="549" 
d="M404 899l31 -37l-154 -147l-154 147l31 37l123 -93zM274 -11q-93 0 -156 42.5t-63 93.5q0 28 15 45.5t38 17.5t37.5 -14.5t14.5 -34.5q0 -23 -16 -44q41 -41 131 -41q66 0 103.5 31t37.5 85q0 46 -34.5 73.5t-102.5 53.5q-50 19 -80 34t-60.5 38t-44.5 54t-14 72
q0 77 56 126t147 49q80 0 138 -39t58 -91q0 -27 -15 -42.5t-37 -15.5q-23 0 -38 15t-15 36q0 20 14 38q-13 15 -44 24t-63 9q-58 0 -92.5 -28.5t-34.5 -74.5q0 -48 35.5 -75t109.5 -56q48 -18 77 -33t58 -37.5t42.5 -53t13.5 -70.5q0 -85 -60.5 -136t-155.5 -51z" />
    <glyph glyph-name="scaron" unicode="&#x161;" horiz-adv-x="437" 
d="M376 341q0 -20 -12 -33t-30 -13q-20 0 -33 12.5t-13 31.5q0 14 5 24q-22 15 -75 15q-42 0 -67.5 -18.5t-25.5 -43.5q0 -26 24.5 -39.5t84.5 -28.5q79 -19 118.5 -45.5t39.5 -82.5q0 -59 -49.5 -93.5t-120.5 -34.5q-47 0 -89.5 13.5t-64.5 35.5q-23 23 -23 53
q0 19 12.5 33t30.5 14q20 0 33 -12.5t13 -31.5q0 -10 -7 -26q31 -24 95 -24q45 0 74.5 18t29.5 48q0 27 -24.5 41.5t-76.5 27.5q-88 22 -127.5 48t-39.5 81q0 50 44 86.5t118 36.5q90 0 134 -44q22 -22 22 -49zM342 685l31 -37l-154 -147l-154 147l31 37l123 -93z" />
    <glyph glyph-name="Tcommaaccent" unicode="&#x162;" horiz-adv-x="631" 
d="M247 -278l-16 23q74 55 76 103q-18 4 -30.5 18t-12.5 32q0 21 14.5 35t34.5 14q24 0 40 -17t16 -48q0 -39 -29.5 -82.5t-92.5 -77.5zM189 0v66h89v529h-165v-106h-71v169h547v-169h-71v106h-165v-529h89v-66h-253z" />
    <glyph glyph-name="tcommaaccent" unicode="&#x163;" horiz-adv-x="333" 
d="M116 -278l-16 23q74 55 76 103q-18 4 -30.5 18t-12.5 32q0 21 14.5 35t34.5 14q24 0 40 -17t16 -48q0 -39 -29.5 -82.5t-92.5 -77.5zM200 -8q-68 0 -94 50q-11 22 -11 59v264h-79v61h79v103l68 27v-130h131v-61h-131v-254q0 -20 7 -33q12 -22 50 -22q35 0 80 26l-9 -66
q-44 -24 -91 -24z" />
    <glyph glyph-name="Tcaron" unicode="&#x164;" horiz-adv-x="631" 
d="M437 899l31 -37l-154 -147l-154 147l31 37l123 -93zM189 0v66h89v529h-165v-106h-71v169h547v-169h-71v106h-165v-529h89v-66h-253z" />
    <glyph glyph-name="tcaron" unicode="&#x165;" horiz-adv-x="333" 
d="M227 476l-23 18q36 53 36 103q0 15 -4.5 35t-4.5 33q0 20 11.5 33t33.5 13q43 0 43 -50q0 -89 -92 -185zM200 -8q-68 0 -94 50q-11 22 -11 59v264h-79v61h79v103l68 27v-130h131v-61h-131v-254q0 -20 7 -33q12 -22 50 -22q35 0 80 26l-9 -66q-44 -24 -91 -24z" />
    <glyph glyph-name="Umacron" unicode="&#x16a;" horiz-adv-x="710" 
d="M354 -12q-113 0 -175.5 62t-62.5 177v365h-83v66h243v-66h-87v-360q0 -87 43 -131.5t123 -44.5t123.5 43.5t43.5 130.5v362h-87v66h242v-66h-83v-362q0 -116 -64 -179t-176 -63zM203 749v63h304v-63h-304z" />
    <glyph glyph-name="umacron" unicode="&#x16b;" horiz-adv-x="553" 
d="M228 -8q-81 0 -114 57q-20 35 -20 87v229h-68v61h137v-277q0 -36 12 -57q19 -36 70 -36q67 0 140 75v234h-70v61h139v-366h68v-60h-135v79q-74 -87 -159 -87zM116 535v63h304v-63h-304z" />
    <glyph glyph-name="Ubreve" unicode="&#x16c;" horiz-adv-x="710" 
d="M354 -12q-113 0 -175.5 62t-62.5 177v365h-83v66h243v-66h-87v-360q0 -87 43 -131.5t123 -44.5t123.5 43.5t43.5 130.5v362h-87v66h242v-66h-83v-362q0 -116 -64 -179t-176 -63zM354 722q-55 0 -97 36.5t-62 99.5l49 21q16 -42 46 -65t64 -23q36 0 65 24t45 64l49 -21
q-19 -63 -61.5 -99.5t-97.5 -36.5z" />
    <glyph glyph-name="ubreve" unicode="&#x16d;" horiz-adv-x="553" 
d="M228 -8q-81 0 -114 57q-20 35 -20 87v229h-68v61h137v-277q0 -36 12 -57q19 -36 70 -36q67 0 140 75v234h-70v61h139v-366h68v-60h-135v79q-74 -87 -159 -87zM267 508q-55 0 -97 36.5t-62 99.5l49 21q16 -42 46 -65t64 -23q36 0 65 24t45 64l49 -21q-19 -63 -61.5 -99.5
t-97.5 -36.5z" />
    <glyph glyph-name="Uring" unicode="&#x16e;" horiz-adv-x="710" 
d="M354 708q-46 0 -77.5 32t-31.5 79t31.5 79t77.5 32t78 -32t32 -79t-32 -79t-78 -32zM354 759q24 0 40 17.5t16 42.5t-16 42.5t-40 17.5t-39.5 -17.5t-15.5 -42.5t15.5 -42.5t39.5 -17.5zM354 -12q-113 0 -175.5 62t-62.5 177v365h-83v66h243v-66h-87v-360
q0 -87 43 -131.5t123 -44.5t123.5 43.5t43.5 130.5v362h-87v66h242v-66h-83v-362q0 -116 -64 -179t-176 -63z" />
    <glyph glyph-name="uring" unicode="&#x16f;" horiz-adv-x="553" 
d="M268 494q-46 0 -77.5 32t-31.5 79t31.5 79t77.5 32t78 -32t32 -79t-32 -79t-78 -32zM268 545q24 0 40 17.5t16 42.5t-16 42.5t-40 17.5t-39.5 -17.5t-15.5 -42.5t15.5 -42.5t39.5 -17.5zM228 -8q-81 0 -114 57q-20 35 -20 87v229h-68v61h137v-277q0 -36 12 -57
q19 -36 70 -36q67 0 140 75v234h-70v61h139v-366h68v-60h-135v79q-74 -87 -159 -87z" />
    <glyph glyph-name="Uhungarumlaut" unicode="&#x170;" horiz-adv-x="710" 
d="M354 -12q-113 0 -175.5 62t-62.5 177v365h-83v66h243v-66h-87v-360q0 -87 43 -131.5t123 -44.5t123.5 43.5t43.5 130.5v362h-87v66h242v-66h-83v-362q0 -116 -64 -179t-176 -63zM228 719l-16 24l132 124q25 23 43 23q17 0 28.5 -11.5t11.5 -29.5q0 -25 -38 -46zM419 723
l-13 25l142 118q23 19 42 19q18 0 28.5 -11.5t10.5 -28.5q0 -30 -40 -46z" />
    <glyph glyph-name="uhungarumlaut" unicode="&#x171;" horiz-adv-x="553" 
d="M228 -8q-81 0 -114 57q-20 35 -20 87v229h-68v61h137v-277q0 -36 12 -57q19 -36 70 -36q67 0 140 75v234h-70v61h139v-366h68v-60h-135v79q-74 -87 -159 -87zM142 505l-16 24l132 124q25 23 43 23q17 0 28.5 -11.5t11.5 -29.5q0 -25 -38 -46zM333 509l-13 25l142 118
q23 19 42 19q18 0 28.5 -11.5t10.5 -28.5q0 -30 -40 -46z" />
    <glyph glyph-name="Uogonek" unicode="&#x172;" horiz-adv-x="710" 
d="M382 -201q-51 0 -78 25t-27 68q0 55 49 97q-100 8 -155 69t-55 169v365h-83v66h243v-66h-87v-360q0 -87 43 -131.5t123 -44.5t123.5 43.5t43.5 130.5v362h-87v66h242v-66h-83v-362q0 -105 -52.5 -166.5t-145.5 -72.5q-57 -36 -57 -83q0 -52 56 -52q41 0 77 19l-3 -53
q-33 -23 -87 -23z" />
    <glyph glyph-name="uogonek" unicode="&#x173;" horiz-adv-x="553" 
d="M228 -8q-81 0 -114 57q-20 35 -20 87v229h-68v61h137v-277q0 -36 12 -57q19 -36 70 -36q67 0 140 75v234h-70v61h139v-366h68v-60h-67q-72 -39 -72 -92q0 -52 55 -52q40 0 78 19l-4 -53q-31 -23 -86 -23q-51 0 -78.5 25.5t-27.5 67.5q0 64 67 110v77q-74 -87 -159 -87z
" />
    <glyph glyph-name="Wcircumflex" unicode="&#x174;" horiz-adv-x="990" 
d="M372 714l-31 37l154 147l154 -147l-31 -37l-123 93zM284 -10l-187 602h-76v66h238v-66h-83l138 -461l165 448h41l166 -447l134 460h-86v66h237v-66h-76l-184 -602h-43l-170 453l-171 -453h-43z" />
    <glyph glyph-name="wcircumflex" unicode="&#x175;" horiz-adv-x="696" 
d="M224 500l-31 37l154 147l154 -147l-31 -37l-123 93zM187 -18l-117 383h-63v61h197v-59h-68l77 -269l119 280h37l118 -280l77 269h-72v59h197v-61h-64l-116 -383h-38l-123 290l-124 -290h-37z" />
    <glyph glyph-name="Ycircumflex" unicode="&#x176;" horiz-adv-x="642" 
d="M191 0v66h92v197l-194 329h-70v66h221v-66h-68l150 -265l151 265h-71v66h222v-66h-71l-195 -328v-198h93v-66h-260zM197 714l-31 37l154 147l154 -147l-31 -37l-123 93z" />
    <glyph glyph-name="ycircumflex" unicode="&#x177;" horiz-adv-x="513" 
d="M212 -128q-50 -72 -110 -72q-31 0 -52.5 16t-21.5 40q0 20 12 32t31 12q33 0 45 -37q26 10 51 48q8 12 32 60l26 53l-160 341h-59v61h199v-59h-67l20.5 -45.5l39 -88.5l43.5 -100l17 -40l122 274h-70v59h196v-61h-58l-201 -432q-18 -37 -35 -61zM133 500l-31 37l154 147
l154 -147l-31 -37l-123 93z" />
    <glyph glyph-name="Ydieresis" unicode="&#x178;" horiz-adv-x="642" 
d="M191 0v66h92v197l-194 329h-70v66h221v-66h-68l150 -265l151 265h-71v66h222v-66h-71l-195 -328v-198h93v-66h-260zM407 733q-24 0 -40.5 17t-16.5 40q0 24 17 41t40 17q24 0 40 -17t16 -41q0 -23 -16.5 -40t-39.5 -17zM232 733q-23 0 -39.5 17t-16.5 40q0 24 17 41
t40 17t39.5 -17t16.5 -41q0 -23 -16.5 -40t-40.5 -17z" />
    <glyph glyph-name="Zacute" unicode="&#x179;" horiz-adv-x="606" 
d="M273 717l-19 24l121 126q21 23 43 23q16 0 28 -12t12 -31q0 -23 -34 -44zM45 0v36l403 560h-314v-104h-68v166h488v-36l-403 -560h343v104h67v-166h-516z" />
    <glyph glyph-name="zacute" unicode="&#x17a;" horiz-adv-x="450" 
d="M195 503l-19 24l121 126q21 23 43 23q16 0 28 -12t12 -31q0 -23 -34 -44zM37 0v31l273 338h-195v-83h-61v140h356v-31l-273 -338h216v83h61v-140h-377z" />
    <glyph glyph-name="Zdotaccent" unicode="&#x17b;" horiz-adv-x="606" 
d="M45 0v36l403 560h-314v-104h-68v166h488v-36l-403 -560h343v104h67v-166h-516zM301 728q-24 0 -40.5 17.5t-16.5 41.5q0 25 17 42t41 17t40.5 -17t16.5 -42q0 -24 -17 -41.5t-41 -17.5z" />
    <glyph glyph-name="zdotaccent" unicode="&#x17c;" horiz-adv-x="450" 
d="M37 0v31l273 338h-195v-83h-61v140h356v-31l-273 -338h216v83h61v-140h-377zM224 514q-24 0 -40.5 17.5t-16.5 41.5q0 25 17 42t41 17t40.5 -17t16.5 -42q0 -24 -17 -41.5t-41 -17.5z" />
    <glyph glyph-name="Zcaron" unicode="&#x17d;" horiz-adv-x="606" 
d="M424 899l31 -37l-154 -147l-154 147l31 37l123 -93zM45 0v36l403 560h-314v-104h-68v166h488v-36l-403 -560h343v104h67v-166h-516z" />
    <glyph glyph-name="zcaron" unicode="&#x17e;" horiz-adv-x="450" 
d="M348 685l31 -37l-154 -147l-154 147l31 37l123 -93zM37 0v31l273 338h-195v-83h-61v140h356v-31l-273 -338h216v83h61v-140h-377z" />
    <glyph glyph-name="Aringacute" unicode="&#x1fa;" horiz-adv-x="706" 
d="M325 879l-19 24l121 126q21 23 43 23q16 0 28 -12t12 -31q0 -23 -34 -44zM462 733q0 -44 -34 -75h75v-65h-75l197 -527h63v-66h-220v65h77l-59 162h-269l-59 -162h80v-65h-220v66h63l197 527h-75v65h73q-34 32 -34 75t32 74t78 31t78 -31t32 -74zM239 290h225l-112 307z
M352 667q24 0 40 17.5t16 42.5q0 26 -16 43.5t-40 17.5t-39.5 -17.5t-15.5 -43.5q0 -25 15.5 -42.5t39.5 -17.5z" />
    <glyph glyph-name="aringacute" unicode="&#x1fb;" horiz-adv-x="492" 
d="M186 -8q-62 0 -101.5 34t-39.5 88q0 58 46 93.5t118 35.5q68 0 123 -20v59q0 36 -19 60q-31 34 -93 34q-38 0 -66 -18q6 -14 6 -25q0 -19 -12.5 -31.5t-32.5 -12.5q-19 0 -31.5 13t-12.5 33q0 40 42.5 69.5t115.5 29.5q92 0 137 -50q32 -35 32 -92v-232h69v-60h-133v54
q-64 -62 -148 -62zM204 48q69 0 128 59v71q-60 17 -115 17q-49 0 -75.5 -21t-26.5 -55q0 -32 23.5 -51.5t65.5 -19.5zM219 764l-19 24l121 126q21 23 43 23q16 0 28 -11.5t12 -31.5q0 -23 -34 -44zM246 494q-46 0 -77.5 32t-31.5 79t31.5 79t77.5 32t78 -32t32 -79t-32 -79
t-78 -32zM246 545q24 0 40 17.5t16 42.5t-16 42.5t-40 17.5t-39.5 -17.5t-15.5 -42.5t15.5 -42.5t39.5 -17.5z" />
    <glyph glyph-name="AEacute" unicode="&#x1fc;" horiz-adv-x="887" 
d="M462 717l-19 24l121 126q21 23 43 23q17 0 28.5 -12t11.5 -31q0 -23 -34 -44zM-5 0v66h79l261 526h-73v66h562v-161h-71v96h-248v-226h215v-64h-215v-238h248v96h72v-161h-472v66h77v161h-203l-80 -162h71v-65h-223zM257 290h173v303h-24z" />
    <glyph glyph-name="aeacute" unicode="&#x1fd;" horiz-adv-x="762" 
d="M220 375q-40 0 -66 -17q6 -14 6 -25q0 -19 -12.5 -31.5t-32.5 -12.5q-19 0 -31.5 13t-12.5 33q0 40 42.5 69.5t115.5 29.5q85 0 126 -51q13 -19 18 -32q56 83 158 83q89 0 140.5 -58.5t51.5 -142.5q0 -23 -3 -40h-328q15 -140 164 -140q68 0 149 47l-6 -67
q-67 -41 -150 -41q-121 0 -180 84q-81 -84 -180 -84q-64 0 -104 33.5t-40 88.5q0 58 46 93.5t118 35.5q68 0 123 -20v55q0 38 -20 61q-30 36 -92 36zM205 48q73 0 144 64q-12 27 -17 66q-63 17 -115 17q-49 0 -75.5 -21t-26.5 -55q0 -32 23.5 -51.5t66.5 -19.5zM524 375
q-50 0 -87 -34t-44 -93h261q-4 58 -37.5 92.5t-92.5 34.5zM354 503l-19 24l121 126q21 23 43 23q17 0 28.5 -12t11.5 -31q0 -23 -34 -44z" />
    <glyph glyph-name="Oslashacute" unicode="&#x1fe;" horiz-adv-x="777" 
d="M387 -12q-113 0 -200 65l-80 -94l-47 41l82 94q-86 97 -86 234q0 146 95 244t240 98q110 0 195 -63l79 92l47 -41l-80 -92q90 -98 90 -236q0 -145 -95.5 -243.5t-239.5 -98.5zM389 56q112 0 184 78t72 194q0 112 -63 188l-350 -410q64 -50 157 -50zM132 330
q0 -112 61 -187l350 411q-66 48 -154 48q-112 0 -184.5 -77.5t-72.5 -194.5zM360 717l-19 24l121 126q21 23 43 23q17 0 28.5 -12t11.5 -31q0 -23 -34 -44z" />
    <glyph glyph-name="oslashacute" unicode="&#x1ff;" horiz-adv-x="526" 
d="M263 -8q-66 0 -119 34l-50 -58l-45 38l50 59q-55 63 -55 148q0 92 61 156.5t158 64.5q67 0 122 -37l50 59l45 -38l-51 -60q53 -62 53 -145q0 -93 -61 -157t-158 -64zM116 213q0 -63 29 -104l202 239q-35 26 -84 26q-65 0 -106 -45t-41 -116zM263 52q65 0 106 45t41 116
q0 60 -28 100l-201 -239q35 -22 82 -22zM233 503l-19 24l121 126q21 23 43 23q16 0 28 -12t12 -31q0 -23 -34 -44z" />
    <glyph glyph-name="Scommaaccent" unicode="&#x218;" horiz-adv-x="549" 
d="M214 -278l-16 23q74 55 76 103q-18 4 -30.5 18t-12.5 32q0 21 14.5 35t34.5 14q24 0 40 -17t16 -48q0 -39 -29.5 -82.5t-92.5 -77.5zM274 -11q-93 0 -156 42.5t-63 93.5q0 28 15 45.5t38 17.5t37.5 -14.5t14.5 -34.5q0 -23 -16 -44q41 -41 131 -41q66 0 103.5 31t37.5 85
q0 46 -34.5 73.5t-102.5 53.5q-50 19 -80 34t-60.5 38t-44.5 54t-14 72q0 77 56 126t147 49q80 0 138 -39t58 -91q0 -27 -15 -42.5t-37 -15.5q-23 0 -38 15t-15 36q0 20 14 38q-13 15 -44 24t-63 9q-58 0 -92.5 -28.5t-34.5 -74.5q0 -48 35.5 -75t109.5 -56q48 -18 77 -33
t58 -37.5t42.5 -53t13.5 -70.5q0 -85 -60.5 -136t-155.5 -51z" />
    <glyph glyph-name="scommaaccent" unicode="&#x219;" horiz-adv-x="437" 
d="M376 341q0 -20 -12 -33t-30 -13q-20 0 -33 12.5t-13 31.5q0 14 5 24q-22 15 -75 15q-42 0 -67.5 -18.5t-25.5 -43.5q0 -26 24.5 -39.5t84.5 -28.5q79 -19 118.5 -45.5t39.5 -82.5q0 -59 -49.5 -93.5t-120.5 -34.5q-47 0 -89.5 13.5t-64.5 35.5q-23 23 -23 53
q0 19 12.5 33t30.5 14q20 0 33 -12.5t13 -31.5q0 -10 -7 -26q31 -24 95 -24q45 0 74.5 18t29.5 48q0 27 -24.5 41.5t-76.5 27.5q-88 22 -127.5 48t-39.5 81q0 50 44 86.5t118 36.5q90 0 134 -44q22 -22 22 -49zM151 -278l-16 23q74 55 76 103q-18 4 -30.5 18t-12.5 32
q0 21 14.5 35t34.5 14q24 0 40 -17t16 -48q0 -39 -29.5 -82.5t-92.5 -77.5z" />
    <glyph glyph-name="schwa" unicode="&#x259;" horiz-adv-x="485" 
d="M235 -8q-91 0 -143 58.5t-52 142.5q0 25 4 40h327q-7 69 -50.5 104.5t-113.5 35.5q-68 0 -149 -47l6 66q66 42 153 42q102 0 164.5 -61t62.5 -159q0 -92 -57.5 -157t-151.5 -65zM239 51q50 0 87 33.5t45 93.5h-261q3 -58 36.5 -92.5t92.5 -34.5z" />
    <glyph glyph-name="circumflex" unicode="&#x2c6;" horiz-adv-x="464" 
d="M109 500l-31 37l154 147l154 -147l-31 -37l-123 93z" />
    <glyph glyph-name="caron" unicode="&#x2c7;" horiz-adv-x="464" 
d="M355 685l31 -37l-154 -147l-154 147l31 37l123 -93z" />
    <glyph glyph-name="breve" unicode="&#x2d8;" horiz-adv-x="468" 
d="M234 508q-55 0 -97 36.5t-62 99.5l49 21q16 -42 46 -65t64 -23q36 0 65 24t45 64l49 -21q-19 -63 -61.5 -99.5t-97.5 -36.5z" />
    <glyph glyph-name="dotaccent" unicode="&#x2d9;" horiz-adv-x="403" 
d="M201 514q-24 0 -40.5 17.5t-16.5 41.5q0 25 17 42t41 17t40.5 -17t16.5 -42q0 -24 -17 -41.5t-41 -17.5z" />
    <glyph glyph-name="ring" unicode="&#x2da;" horiz-adv-x="441" 
d="M220 494q-46 0 -77.5 32t-31.5 79t31.5 79t77.5 32t78 -32t32 -79t-32 -79t-78 -32zM220 545q24 0 40 17.5t16 42.5t-16 42.5t-40 17.5t-39.5 -17.5t-15.5 -42.5t15.5 -42.5t39.5 -17.5z" />
    <glyph glyph-name="ogonek" unicode="&#x2db;" horiz-adv-x="415" 
d="M211 -201q-51 0 -78.5 25.5t-27.5 67.5q0 47 36.5 84t91.5 57l61 -12q-55 -16 -90.5 -46.5t-35.5 -66.5q0 -52 55 -52q40 0 78 19l-4 -53q-31 -23 -86 -23z" />
    <glyph glyph-name="tilde" unicode="&#x2dc;" horiz-adv-x="477" 
d="M310 509q-44 0 -88 38q-34 28 -51 28q-36 0 -46 -60l-54 12q4 51 32 84.5t63 33.5q42 0 89 -39q33 -27 51 -27q35 0 46 60l54 -12q-4 -51 -32 -84.5t-64 -33.5z" />
    <glyph glyph-name="hungarumlaut" unicode="&#x2dd;" horiz-adv-x="502" 
d="M49 505l-16 24l132 124q25 23 43 23q17 0 28.5 -11.5t11.5 -29.5q0 -25 -38 -46zM240 509l-13 25l142 118q23 19 42 19q18 0 28.5 -11.5t10.5 -28.5q0 -30 -40 -46z" />
    <glyph glyph-name="commaaccent" unicode="&#x326;" horiz-adv-x="211" 
d="M54 -278l-16 23q74 55 76 103q-18 4 -30.5 18t-12.5 32q0 21 14.5 35t34.5 14q24 0 40 -17t16 -48q0 -39 -29.5 -82.5t-92.5 -77.5z" />
    <glyph glyph-name="Wgrave" unicode="&#x1e80;" horiz-adv-x="990" 
d="M284 -10l-187 602h-76v66h238v-66h-83l138 -461l165 448h41l166 -447l134 460h-86v66h237v-66h-76l-184 -602h-43l-170 453l-171 -453h-43zM525 717l-151 86q-34 21 -34 44q0 19 12 31t28 12q20 0 43 -23l120 -126z" />
    <glyph glyph-name="wgrave" unicode="&#x1e81;" horiz-adv-x="696" 
d="M187 -18l-117 383h-63v61h197v-59h-68l77 -269l119 280h37l118 -280l77 269h-72v59h197v-61h-64l-116 -383h-38l-123 290l-124 -290h-37zM377 503l-151 86q-34 21 -34 44q0 19 12 31t28 12q20 0 43 -23l120 -126z" />
    <glyph glyph-name="Wacute" unicode="&#x1e82;" horiz-adv-x="990" 
d="M466 717l-19 24l121 126q21 23 43 23q17 0 28.5 -12t11.5 -31q0 -23 -34 -44zM284 -10l-187 602h-76v66h238v-66h-83l138 -461l165 448h41l166 -447l134 460h-86v66h237v-66h-76l-184 -602h-43l-170 453l-171 -453h-43z" />
    <glyph glyph-name="wacute" unicode="&#x1e83;" horiz-adv-x="696" 
d="M318 503l-19 24l121 126q21 23 43 23q17 0 28.5 -12t11.5 -31q0 -23 -34 -44zM187 -18l-117 383h-63v61h197v-59h-68l77 -269l119 280h37l118 -280l77 269h-72v59h197v-61h-64l-116 -383h-38l-123 290l-124 -290h-37z" />
    <glyph glyph-name="Wdieresis" unicode="&#x1e84;" horiz-adv-x="990" 
d="M583 733q-24 0 -40.5 17t-16.5 40q0 24 17 41t40 17q24 0 40 -17t16 -41q0 -23 -16.5 -40t-39.5 -17zM408 733q-23 0 -39.5 17t-16.5 40q0 24 17 41t40 17t39.5 -17t16.5 -41q0 -23 -16.5 -40t-40.5 -17zM284 -10l-187 602h-76v66h238v-66h-83l138 -461l165 448h41
l166 -447l134 460h-86v66h237v-66h-76l-184 -602h-43l-170 453l-171 -453h-43z" />
    <glyph glyph-name="wdieresis" unicode="&#x1e85;" horiz-adv-x="696" 
d="M435 519q-24 0 -40.5 17t-16.5 40q0 24 17 41t40 17q24 0 40 -17t16 -41q0 -23 -16.5 -40t-39.5 -17zM260 519q-23 0 -39.5 17t-16.5 40q0 24 17 41t40 17t39.5 -17t16.5 -41q0 -23 -16.5 -40t-40.5 -17zM187 -18l-117 383h-63v61h197v-59h-68l77 -269l119 280h37
l118 -280l77 269h-72v59h197v-61h-64l-116 -383h-38l-123 290l-124 -290h-37z" />
    <glyph glyph-name="Ygrave" unicode="&#x1ef2;" horiz-adv-x="642" 
d="M191 0v66h92v197l-194 329h-70v66h221v-66h-68l150 -265l151 265h-71v66h222v-66h-71l-195 -328v-198h93v-66h-260zM349 717l-151 86q-34 21 -34 44q0 19 12 31t28 12q20 0 43 -23l120 -126z" />
    <glyph glyph-name="ygrave" unicode="&#x1ef3;" horiz-adv-x="513" 
d="M212 -128q-50 -72 -110 -72q-31 0 -52.5 16t-21.5 40q0 20 12 32t31 12q33 0 45 -37q26 10 51 48q8 12 32 60l26 53l-160 341h-59v61h199v-59h-67l20.5 -45.5l39 -88.5l43.5 -100l17 -40l122 274h-70v59h196v-61h-58l-201 -432q-18 -37 -35 -61zM285 503l-151 86
q-34 21 -34 44q0 19 12 31t28 12q20 0 43 -23l120 -126z" />
    <glyph glyph-name="enspace" unicode="&#x2002;" horiz-adv-x="500" 
 />
    <glyph glyph-name="emspace" unicode="&#x2003;" horiz-adv-x="1000" 
 />
    <glyph glyph-name="threeperemspace" unicode="&#x2004;" horiz-adv-x="333" 
 />
    <glyph glyph-name="fourperemspace" unicode="&#x2005;" horiz-adv-x="250" 
 />
    <glyph glyph-name="figurespace" unicode="&#x2007;" horiz-adv-x="530" 
 />
    <glyph glyph-name="thinspace" unicode="&#x2009;" horiz-adv-x="133" 
 />
    <glyph glyph-name="hairspace" unicode="&#x200a;" horiz-adv-x="75" 
 />
    <glyph glyph-name="endash" unicode="&#x2013;" horiz-adv-x="469" 
d="M22 244v68h425v-68h-425z" />
    <glyph glyph-name="emdash" unicode="&#x2014;" horiz-adv-x="754" 
d="M22 244v68h710v-68h-710z" />
    <glyph glyph-name="quoteleft" unicode="&#x2018;" horiz-adv-x="207" 
d="M98 411q-28 0 -47 21t-19 58q0 48 35.5 103t109.5 94l18 -27q-45 -33 -66.5 -69t-22.5 -62q21 -4 36.5 -21t15.5 -38q0 -24 -18 -41.5t-42 -17.5z" />
    <glyph glyph-name="quoteright" unicode="&#x2019;" horiz-adv-x="207" 
d="M31 400l-18 27q44 32 65.5 68.5t23.5 62.5q-22 4 -37.5 21t-15.5 38q0 24 18.5 41.5t42.5 17.5q28 0 46.5 -20.5t18.5 -57.5q0 -48 -35.5 -103.5t-108.5 -94.5z" />
    <glyph glyph-name="quotesinglbase" unicode="&#x201a;" horiz-adv-x="209" 
d="M21 -151l-19 27q46 34 68 67t23 56q-21 4 -36 21t-15 39q0 24 18 41t42 17q28 0 46.5 -20.5t18.5 -57.5q0 -47 -35 -98.5t-111 -91.5z" />
    <glyph glyph-name="quotedblleft" unicode="&#x201c;" horiz-adv-x="400" 
d="M290 411q-28 0 -47 21t-19 58q0 48 35.5 103t109.5 94l18 -27q-45 -33 -66.5 -69t-22.5 -62q21 -4 36.5 -21t15.5 -38q0 -24 -18 -41.5t-42 -17.5zM98 411q-28 0 -47 21t-19 58q0 48 35.5 103t109.5 94l18 -27q-45 -33 -66.5 -69t-22.5 -62q21 -4 36.5 -21t15.5 -38
q0 -24 -18 -41.5t-42 -17.5z" />
    <glyph glyph-name="quotedblright" unicode="&#x201d;" horiz-adv-x="400" 
d="M223 400l-18 27q45 33 66.5 69t22.5 62q-21 4 -36.5 21t-15.5 38q0 24 18 41.5t42 17.5q28 0 47 -20.5t19 -57.5q0 -49 -35.5 -104t-109.5 -94zM31 400l-18 27q44 32 65.5 68.5t23.5 62.5q-22 4 -37.5 21t-15.5 38q0 24 18.5 41.5t42.5 17.5q28 0 46.5 -20.5t18.5 -57.5
q0 -48 -35.5 -103.5t-108.5 -94.5z" />
    <glyph glyph-name="quotedblbase" unicode="&#x201e;" horiz-adv-x="402" 
d="M215 -148l-18 26q85 64 89 121q-21 4 -36 20.5t-15 37.5q0 23 17.5 40t41.5 17q27 0 45 -20.5t18 -55.5q0 -106 -142 -186zM22 -148l-18 26q85 64 89 121q-21 4 -36 20.5t-15 37.5q0 23 17.5 40t41.5 17q27 0 45 -20.5t18 -55.5q0 -106 -142 -186z" />
    <glyph glyph-name="dagger" unicode="&#x2020;" horiz-adv-x="466" 
d="M215 -2l-15 389l-83 10q0 -25 -15 -41t-35 -16q-21 0 -34.5 15t-13.5 35q0 25 18 41t48 16q11 0 31 -4l99 -21l-25 153q-5 29 7.5 47t35.5 18t35.5 -18t7.5 -47l-26 -153l100 21q18 4 31 4q30 0 48 -16t18 -41q0 -20 -13.5 -35t-35.5 -15q-20 0 -35 16t-14 41l-83 -10
l-15 -389h-36z" />
    <glyph glyph-name="daggerdbl" unicode="&#x2021;" horiz-adv-x="475" 
d="M237 -124q-23 0 -35 19t-6 49l23 126l-86 -18q-20 -4 -29 -4q-29 0 -48 15.5t-19 39.5q0 19 13.5 33t34.5 14t35.5 -15t13.5 -40l69 8l18 155l-18 155l-69 8q1 -25 -13.5 -40t-35.5 -15t-34.5 14.5t-13.5 33.5q0 24 19 39.5t48 15.5q9 0 29 -4l86 -18l-23 125
q-6 31 6 49.5t35 18.5q24 0 36 -19t6 -49l-23 -125l86 18q20 4 29 4q29 0 48 -15.5t19 -39.5q0 -19 -14 -33.5t-34 -14.5q-21 0 -35.5 15t-13.5 40l-69 -8l-18 -155l18 -155l69 -8q-1 25 13.5 40t35.5 15t34.5 -14t13.5 -33q0 -24 -19 -39.5t-48 -15.5q-9 0 -29 4l-86 18
l23 -126q6 -30 -6 -49t-36 -19z" />
    <glyph glyph-name="bullet" unicode="&#x2022;" horiz-adv-x="289" 
d="M144 172q-41 0 -69 29t-28 70q0 42 28 71.5t69 29.5t69 -29.5t28 -71.5q0 -41 -28 -70t-69 -29z" />
    <glyph glyph-name="ellipsis" unicode="&#x2026;" horiz-adv-x="620" 
d="M515 -8q-25 0 -42 17.5t-17 43.5t17 43.5t42 17.5t42.5 -17.5t17.5 -43.5t-17.5 -43.5t-42.5 -17.5zM310 -8q-25 0 -42.5 17.5t-17.5 43.5t17.5 43.5t42.5 17.5t42.5 -17.5t17.5 -43.5t-17.5 -43.5t-42.5 -17.5zM105 -8q-25 0 -42.5 17.5t-17.5 43.5t17.5 43.5t42.5 17.5
t42.5 -17.5t17.5 -43.5t-17.5 -43.5t-42.5 -17.5z" />
    <glyph glyph-name="perthousand" unicode="&#x2030;" horiz-adv-x="924" 
d="M171 274q-51 0 -86 35.5t-35 85.5q0 51 35 86.5t86 35.5q50 0 85.5 -35.5t35.5 -86.5q0 -50 -35.5 -85.5t-85.5 -35.5zM753 -8q-51 0 -86 35.5t-35 86.5q0 50 35 85.5t86 35.5q50 0 85.5 -35.5t35.5 -85.5t-35.5 -86t-85.5 -36zM475 -8q-50 0 -85 36t-35 86t35 85.5
t85 35.5q51 0 86 -35.5t35 -85.5q0 -51 -35 -86.5t-86 -35.5zM130 -22l-36 31q15 15 210 252l206 256l37 -30q-24 -27 -211 -254l-81.5 -100.5l-82.5 -103t-42 -51.5zM171 323q28 0 47 21t19 51t-19 51t-47 21t-47 -21t-19 -51t19 -51t47 -21zM753 41q28 0 46.5 21t18.5 51
t-18.5 51t-46.5 21q-29 0 -47.5 -21t-18.5 -51t18.5 -51t47.5 -21zM475 41q29 0 47.5 21t18.5 51t-18.5 51t-47.5 21q-28 0 -46.5 -21t-18.5 -51t18.5 -51t46.5 -21z" />
    <glyph glyph-name="guilsinglleft" unicode="&#x2039;" horiz-adv-x="294" 
d="M202 107l-172 168l172 168l43 -41l-124 -127l124 -127z" />
    <glyph glyph-name="guilsinglright" unicode="&#x203a;" horiz-adv-x="294" 
d="M92 107l-43 41l124 127l-124 127l43 41l172 -168z" />
    <glyph glyph-name="fraction" unicode="&#x2044;" horiz-adv-x="500" 
d="M74 -13l-38 23l197 321l192 320l38 -24l-195 -316z" />
    <glyph glyph-name="zero.sup" unicode="&#x2070;" 
d="M176 424q-62 0 -101 51.5t-39 133.5q0 85 39 136.5t102 51.5q62 0 101 -51.5t39 -134.5q0 -84 -39 -135.5t-102 -51.5zM176 472q39 0 62.5 38t23.5 99q0 63 -23.5 101.5t-62.5 38.5t-62 -38.5t-23 -99.5q0 -62 23 -100.5t62 -38.5z" />
    <glyph glyph-name="four.sup" unicode="&#x2074;" 
d="M143 431v42h67v64h-167l-13 26l192 242l37 -30l-161 -198h112v69l47 20v-87h59v-43h-59v-62h46v-43h-160z" />
    <glyph glyph-name="five.sup" unicode="&#x2075;" 
d="M167 424q-55 0 -88 21t-33 48q0 16 9.5 26.5t25.5 10.5t25.5 -10t9.5 -23q0 -9 -5 -16q19 -12 53 -12q41 0 64.5 22t23.5 57q0 31 -22 50.5t-62 19.5q-43 0 -81 -18l-24 12l17 181h201v-49h-157l-9 -88q26 8 56 8q59 0 96 -31.5t37 -84.5q0 -55 -39 -89.5t-98 -34.5z" />
    <glyph glyph-name="six.sup" unicode="&#x2076;" 
d="M292 733q0 -16 -9 -25.5t-24 -9.5q-16 0 -25 9.5t-9 22.5q0 8 4 16q-13 9 -33 9q-43 0 -72 -40.5t-30 -102.5q2 3 9 10q34 34 85 34q54 0 88.5 -32.5t34.5 -81.5q0 -50 -36 -84t-94 -34t-97 39q-41 42 -41 130q0 98 44 152.5t109 54.5q49 0 78 -27q18 -18 18 -40z
M182 469q33 0 55 21t22 51q0 31 -21 50.5t-57 19.5q-34 0 -57 -20t-23 -49q0 -31 21 -51q24 -22 60 -22z" />
    <glyph glyph-name="seven.sup" unicode="&#x2077;" 
d="M103 431l149 318h-149v-65h-47v109h245l12 -26l-154 -336h-56z" />
    <glyph glyph-name="eight.sup" unicode="&#x2078;" 
d="M177 425q-60 0 -97 29t-37 70q0 31 23 57.5t61 36.5q-75 22 -75 85q0 41 35.5 68t89.5 27q53 0 89 -27.5t36 -67.5q0 -29 -19.5 -51.5t-56.5 -33.5q38 -10 61 -36.5t23 -57.5q0 -41 -37.5 -70t-95.5 -29zM177 637q29 0 49.5 17t20.5 41q0 25 -20 41.5t-50 16.5
q-31 0 -51 -16.5t-20 -41.5t21 -41.5t50 -16.5zM177 471q34 0 56 17.5t22 44.5q0 25 -23 44t-55 19q-34 0 -56.5 -19t-22.5 -44q0 -27 22 -44.5t57 -17.5z" />
    <glyph glyph-name="nine.sup" unicode="&#x2079;" 
d="M61 490q0 16 9 25.5t24 9.5q16 0 25 -9t9 -23q0 -9 -5 -16q16 -8 34 -8q42 0 71 39.5t31 102.5l-9 -10q-33 -33 -85 -33q-54 0 -88.5 32t-34.5 81q0 50 36.5 84.5t93.5 34.5t97 -40q41 -41 41 -130q0 -97 -44 -151.5t-109 -54.5q-51 0 -78 27q-18 17 -18 39zM171 754
q-33 0 -55 -21t-22 -51q0 -31 21 -50t57 -19q34 0 57 19.5t23 48.5q0 31 -21 52q-23 21 -60 21z" />
    <glyph glyph-name="zero.inf" unicode="&#x2080;" 
d="M176 -146q-62 0 -101 51.5t-39 133.5q0 85 39 136.5t102 51.5q62 0 101 -51.5t39 -134.5q0 -84 -39 -135.5t-102 -51.5zM176 -98q39 0 62.5 38t23.5 99q0 63 -23.5 101.5t-62.5 38.5t-62 -38.5t-23 -99.5q0 -62 23 -100.5t62 -38.5z" />
    <glyph glyph-name="one.inf" unicode="&#x2081;" 
d="M63 -139v47h95v260l-89 -21l-11 45l126 33h26v-317h94v-47h-241z" />
    <glyph glyph-name="two.inf" unicode="&#x2082;" 
d="M59 -139l-15 24q19 53 53 88.5t80 67.5l35 26.5t21.5 25t9.5 33.5q0 25 -20.5 42t-49.5 17q-25 0 -43.5 -9.5t-22.5 -18.5q17 -7 17 -29q0 -14 -10 -23.5t-23 -9.5q-37 0 -37 44q0 36 34.5 63.5t88.5 27.5q50 0 85 -29t35 -75q0 -27 -14 -50t-29 -35.5t-45 -32.5
q-78 -50 -102 -104h152v59h45v-102h-245z" />
    <glyph glyph-name="three.inf" unicode="&#x2083;" 
d="M171 -146q-53 0 -91 24t-38 59q0 16 10.5 27.5t25.5 11.5t24 -9.5t9 -24.5t-10 -22q23 -23 70 -23q34 0 57 18t23 45q0 29 -25 47t-73 18h-22v44h24q39 0 63.5 17.5t24.5 45.5q0 25 -20 39t-51 14q-41 0 -58 -19q10 -8 10 -22t-10 -23.5t-23 -9.5q-15 0 -25.5 11
t-10.5 29q0 27 32 51.5t87 24.5q52 0 87 -26.5t35 -66.5q0 -31 -23.5 -54.5t-58.5 -31.5q37 -7 64 -32t27 -59q0 -46 -38.5 -74.5t-95.5 -28.5z" />
    <glyph glyph-name="four.inf" unicode="&#x2084;" 
d="M143 -139v42h67v64h-167l-13 26l192 242l37 -30l-161 -198h112v69l47 20v-87h59v-43h-59v-62h46v-43h-160z" />
    <glyph glyph-name="five.inf" unicode="&#x2085;" 
d="M167 -146q-55 0 -88 21t-33 48q0 16 9.5 26.5t25.5 10.5t25.5 -10t9.5 -23q0 -9 -5 -16q19 -12 53 -12q41 0 64.5 22t23.5 57q0 31 -22 50.5t-62 19.5q-43 0 -81 -18l-24 12l17 181h201v-49h-157l-9 -88q26 8 56 8q59 0 96 -31.5t37 -84.5q0 -55 -39 -89.5t-98 -34.5z
" />
    <glyph glyph-name="six.inf" unicode="&#x2086;" 
d="M292 163q0 -16 -9 -25.5t-24 -9.5q-16 0 -25 9.5t-9 22.5q0 8 4 16q-13 9 -33 9q-43 0 -72 -40.5t-30 -102.5q2 3 9 10q34 34 85 34q54 0 88.5 -32.5t34.5 -81.5q0 -50 -36 -84t-94 -34t-97 39q-41 42 -41 130q0 98 44 152.5t109 54.5q49 0 78 -27q18 -18 18 -40z
M182 -101q33 0 55 21t22 51q0 31 -21 50.5t-57 19.5q-34 0 -57 -20t-23 -49q0 -32 21 -51q24 -22 60 -22z" />
    <glyph glyph-name="seven.inf" unicode="&#x2087;" 
d="M103 -139l149 318h-149v-65h-47v109h245l12 -26l-154 -336h-56z" />
    <glyph glyph-name="eight.inf" unicode="&#x2088;" 
d="M177 -145q-60 0 -97 29t-37 70q0 31 23 57.5t61 36.5q-75 22 -75 85q0 41 35.5 68t89.5 27q53 0 89 -27.5t36 -67.5q0 -29 -19.5 -51.5t-56.5 -33.5q38 -10 61 -36.5t23 -57.5q0 -41 -37.5 -70t-95.5 -29zM177 67q29 0 49.5 17t20.5 41q0 25 -20 41.5t-50 16.5
q-31 0 -51 -16.5t-20 -41.5t21 -41.5t50 -16.5zM177 -99q34 0 56 17.5t22 44.5q0 25 -23 44t-55 19q-34 0 -56.5 -19t-22.5 -44q0 -27 22 -44.5t57 -17.5z" />
    <glyph glyph-name="nine.inf" unicode="&#x2089;" 
d="M61 -80q0 16 9 25.5t24 9.5q16 0 25 -9t9 -23q0 -8 -5 -15q14 -9 34 -9q42 0 71 40t31 102l-9 -10q-33 -33 -85 -33q-54 0 -88.5 32t-34.5 81q0 50 36.5 84.5t93.5 34.5t97 -40q41 -41 41 -130q0 -97 -44 -151.5t-109 -54.5q-51 0 -78 27q-18 17 -18 39zM171 184
q-33 0 -55 -21t-22 -51q0 -31 21 -50t57 -19q34 0 57 19.5t23 48.5q0 31 -21 52q-23 21 -60 21z" />
    <glyph glyph-name="Euro" unicode="&#x20ac;" horiz-adv-x="595" 
d="M42 288v55h73q27 78 93.5 125.5t148.5 47.5q80 0 135.5 -40.5t55.5 -89.5q0 -24 -15.5 -40t-37.5 -16q-19 0 -32.5 13t-13.5 33q0 27 18 36q-10 17 -40 30t-71 13q-58 0 -103 -31t-68 -82h183v-54h-198q-3 -18 -3 -35q0 -18 3 -36h198v-54h-182q23 -50 68.5 -80.5
t104.5 -30.5q84 0 150 66l41 -47q-77 -80 -191 -80q-89 0 -153.5 47t-90.5 124h-73v55h61q-2 11 -2 35t2 36h-61z" />
    <glyph glyph-name="published" unicode="&#x2117;" horiz-adv-x="605" 
d="M299 -8q-110 0 -183.5 76t-73.5 186t74 186t183 76q110 0 183.5 -76t73.5 -186t-74 -186t-183 -76zM299 28q92 0 154 66t62 160q0 95 -62 161t-154 66t-153.5 -66t-61.5 -161t61.5 -160.5t153.5 -65.5zM314 211h-31v-58h34v-33h-104v33h32v197h-32v33h104q43 0 70.5 -23
t27.5 -61q0 -43 -27 -65.5t-74 -22.5zM317 244q28 0 44 15t16 40q0 23 -17.5 37t-44.5 14h-32v-105q1 0 12 -0.5t22 -0.5z" />
    <glyph glyph-name="servicemark" unicode="&#x2120;" horiz-adv-x="568" 
d="M230 410v38h35l8 172h-36v38h87l68 -151l67 151h88v-38h-37l8 -172h35v-38h-106v38h31l-6 151l-71 -155h-20l-72 155l-5 -151h31v-38h-105zM104 405q-39 0 -65 17.5t-26 40.5q0 12 7 20t18 8q12 0 19 -7t7 -15q0 -7 -4 -15q17 -13 43 -13q49 0 49 35q0 25 -50 41
q-41 14 -60.5 30t-19.5 46t23.5 50t61.5 20q36 0 60 -15.5t24 -37.5q0 -12 -7 -19.5t-18 -7.5q-26 0 -26 22q0 7 5 12q-14 9 -38 9q-43 0 -43 -31q0 -15 13 -23.5t38 -16.5q39 -13 59 -29.5t20 -47.5q0 -34 -25 -53.5t-65 -19.5z" />
    <glyph glyph-name="trademark" unicode="&#x2122;" horiz-adv-x="613" 
d="M275 410v38h35l8 172h-36v38h87l68 -151l67 151h88v-38h-37l8 -172h35v-38h-106v38h31l-6 151l-71 -155h-20l-72 155l-5 -151h31v-38h-105zM72 410v38h37v174h-58v-39h-38v75h234v-75h-39v39h-57v-174h36v-38h-115z" />
    <glyph glyph-name="onethird" unicode="&#x2153;" horiz-adv-x="795" 
d="M615 -8q-53 0 -91 24t-38 59q0 16 10.5 27.5t25.5 11.5t24 -9.5t9 -24.5t-10 -22q23 -23 70 -23q34 0 57 18t23 45q0 29 -25 47t-73 18h-22v44h24q39 0 63.5 17.5t24.5 45.5q0 25 -20 39t-51 14q-41 0 -58 -19q10 -8 10 -22t-10 -23.5t-23 -9.5q-15 0 -25.5 11t-10.5 29
q0 27 32 51.5t87 24.5q52 0 87 -26.5t35 -66.5q0 -31 -23.5 -54.5t-58.5 -31.5q37 -7 64 -32t27 -59q0 -46 -38.5 -74.5t-95.5 -28.5zM50 281v47h95v260l-89 -21l-11 45l126 33h26v-317h94v-47h-241zM224 -13l-38 23l197 321l192 320l38 -24l-195 -316z" />
    <glyph glyph-name="twothirds" unicode="&#x2154;" horiz-adv-x="795" 
d="M57 281l-15 24q19 53 53 88.5t80 67.5l35 26.5t21.5 25t9.5 33.5q0 25 -20.5 42t-49.5 17q-25 0 -43.5 -9.5t-22.5 -18.5q17 -7 17 -29q0 -14 -10 -23.5t-23 -9.5q-37 0 -37 44q0 36 34.5 63.5t88.5 27.5q50 0 85 -29t35 -75q0 -27 -14 -50t-29 -35.5t-45 -32.5
q-78 -50 -102 -104h152v59h45v-102h-245zM617 -8q-53 0 -91 24t-38 59q0 16 10.5 27.5t25.5 11.5t24 -9.5t9 -24.5t-10 -22q23 -23 70 -23q34 0 57 18t23 45q0 29 -25 47t-73 18h-22v44h24q39 0 63.5 17.5t24.5 45.5q0 25 -20 39t-51 14q-41 0 -58 -19q10 -8 10 -22
t-10 -23.5t-23 -9.5q-15 0 -25.5 11t-10.5 29q0 27 32 51.5t87 24.5q52 0 87 -26.5t35 -66.5q0 -31 -23.5 -54.5t-58.5 -31.5q37 -7 64 -32t27 -59q0 -46 -38.5 -74.5t-95.5 -28.5zM240 -13l-38 23l197 321l192 320l38 -24l-195 -316z" />
    <glyph glyph-name="onefifth" unicode="&#x2155;" horiz-adv-x="795" 
d="M621 -8q-55 0 -88 21t-33 48q0 16 9.5 26.5t25.5 10.5t25.5 -10t9.5 -23q0 -9 -5 -16q19 -12 53 -12q41 0 64.5 22t23.5 57q0 31 -22 50.5t-62 19.5q-43 0 -81 -18l-24 12l17 181h201v-49h-157l-9 -88q26 8 56 8q59 0 96 -31.5t37 -84.5q0 -55 -39 -89.5t-98 -34.5z
M50 281v47h95v260l-89 -21l-11 45l126 33h26v-317h94v-47h-241zM229 -13l-38 23l197 321l192 320l38 -24l-195 -316z" />
    <glyph glyph-name="twofifths" unicode="&#x2156;" horiz-adv-x="795" 
d="M59 281l-15 24q19 53 53 88.5t80 67.5l35 26.5t21.5 25t9.5 33.5q0 25 -20.5 42t-49.5 17q-25 0 -43.5 -9.5t-22.5 -18.5q17 -7 17 -29q0 -14 -10 -23.5t-23 -9.5q-37 0 -37 44q0 36 34.5 63.5t88.5 27.5q50 0 85 -29t35 -75q0 -27 -14 -50t-29 -35.5t-45 -32.5
q-78 -50 -102 -104h152v59h45v-102h-245zM626 -8q-55 0 -88 21t-33 48q0 16 9.5 26.5t25.5 10.5t25.5 -10t9.5 -23q0 -9 -5 -16q19 -12 53 -12q41 0 64.5 22t23.5 57q0 31 -22 50.5t-62 19.5q-43 0 -81 -18l-24 12l17 181h201v-49h-157l-9 -88q26 8 56 8q59 0 96 -31.5
t37 -84.5q0 -55 -39 -89.5t-98 -34.5zM247 -13l-38 23l197 321l192 320l38 -24l-195 -316z" />
    <glyph glyph-name="threefifths" unicode="&#x2157;" horiz-adv-x="795" 
d="M620 -8q-55 0 -88 21t-33 48q0 16 9.5 26.5t25.5 10.5t25.5 -10t9.5 -23q0 -9 -5 -16q19 -12 53 -12q41 0 64.5 22t23.5 57q0 31 -22 50.5t-62 19.5q-43 0 -81 -18l-24 12l17 181h201v-49h-157l-9 -88q26 8 56 8q59 0 96 -31.5t37 -84.5q0 -55 -39 -89.5t-98 -34.5z
M176 274q-53 0 -91 24t-38 59q0 16 10.5 27.5t25.5 11.5t24 -9.5t9 -24.5t-10 -22q23 -23 70 -23q34 0 57 18t23 45q0 29 -25 47t-73 18h-22v44h24q39 0 63.5 17.5t24.5 45.5q0 25 -20 39t-51 14q-41 0 -58 -19q10 -8 10 -22t-9.5 -23.5t-23.5 -9.5q-15 0 -25.5 11t-10.5 29
q0 27 32 51.5t87 24.5q52 0 87 -26.5t35 -66.5q0 -31 -23.5 -54.5t-58.5 -31.5q37 -7 64 -32t27 -59q0 -46 -38.5 -74.5t-95.5 -28.5zM227 -13l-38 23l197 321l192 320l38 -24l-195 -316z" />
    <glyph glyph-name="fourfifths" unicode="&#x2158;" horiz-adv-x="795" 
d="M623 -8q-55 0 -88 21t-33 48q0 16 9.5 26.5t25.5 10.5t25.5 -10t9.5 -23q0 -9 -5 -16q19 -12 53 -12q41 0 64.5 22t23.5 57q0 31 -22 50.5t-62 19.5q-43 0 -81 -18l-24 12l17 181h201v-49h-157l-9 -88q26 8 56 8q59 0 96 -31.5t37 -84.5q0 -55 -39 -89.5t-98 -34.5z
M146 281v42h67v64h-167l-13 26l192 242l37 -30l-161 -198h112v69l47 20v-87h59v-43h-59v-62h46v-43h-160zM248 -13l-38 23l197 321l192 320l38 -24l-195 -316z" />
    <glyph glyph-name="onesixth" unicode="&#x2159;" horiz-adv-x="795" 
d="M729 301q0 -16 -9 -25.5t-24 -9.5q-16 0 -25 9.5t-9 22.5q0 8 4 16q-13 9 -33 9q-43 0 -72 -40.5t-30 -102.5q2 3 9 10q34 34 85 34q54 0 88.5 -32.5t34.5 -81.5q0 -50 -36 -84t-94 -34t-97 39q-41 42 -41 130q0 98 44 152.5t109 54.5q49 0 78 -27q18 -18 18 -40zM48 281
v47h95v260l-89 -21l-11 45l126 33h26v-317h94v-47h-241zM226 -13l-38 23l197 321l192 320l38 -24l-195 -316zM619 37q33 0 55 21t22 51q0 31 -21 50.5t-57 19.5q-34 0 -57 -20t-23 -49q0 -32 21 -51q24 -22 60 -22z" />
    <glyph glyph-name="fivesixths" unicode="&#x215a;" horiz-adv-x="795" 
d="M729 301q0 -16 -9 -25.5t-24 -9.5q-16 0 -25 9.5t-9 22.5q0 8 4 16q-13 9 -33 9q-43 0 -72 -40.5t-30 -102.5q2 3 9 10q34 34 85 34q54 0 88.5 -32.5t34.5 -81.5q0 -50 -36 -84t-94 -34t-97 39q-41 42 -41 130q0 98 44 152.5t109 54.5q49 0 78 -27q18 -18 18 -40z
M170 274q-55 0 -88 21t-33 48q0 16 9.5 26.5t25.5 10.5t25.5 -10t9.5 -23q0 -9 -5 -16q19 -12 53 -12q41 0 64.5 22t23.5 57q0 31 -22 50.5t-62 19.5q-43 0 -81 -18l-24 12l17 181h201v-49h-157l-9 -88q26 8 56 8q59 0 96 -31.5t37 -84.5q0 -55 -39 -89.5t-98 -34.5z
M227 -13l-38 23l197 321l192 320l38 -24l-195 -316zM619 37q33 0 55 21t22 51q0 31 -21 50.5t-57 19.5q-34 0 -57 -20t-23 -49q0 -32 21 -51q24 -22 60 -22z" />
    <glyph glyph-name="oneeighth" unicode="&#x215b;" horiz-adv-x="795" 
d="M618 -7q-60 0 -97 29t-37 70q0 31 23 57.5t61 36.5q-75 22 -75 85q0 41 35.5 68t89.5 27q53 0 89 -27.5t36 -67.5q0 -29 -19.5 -51.5t-56.5 -33.5q38 -10 61 -36.5t23 -57.5q0 -41 -37.5 -70t-95.5 -29zM46 281v47h95v260l-89 -21l-11 45l126 33h26v-317h94v-47h-241z
M219 -13l-38 23l197 321l192 320l38 -24l-195 -316zM618 39q34 0 56 17.5t22 44.5q0 25 -23 44t-55 19q-34 0 -56.5 -19t-22.5 -44q0 -27 22 -44.5t57 -17.5zM618 205q29 0 49.5 17t20.5 41q0 25 -20 41.5t-50 16.5q-31 0 -51 -16.5t-20 -41.5t21 -41.5t50 -16.5z" />
    <glyph glyph-name="threeeighths" unicode="&#x215c;" horiz-adv-x="795" 
d="M617 -7q-60 0 -97 29t-37 70q0 31 23 57.5t61 36.5q-75 22 -75 85q0 41 35.5 68t89.5 27q53 0 89 -27.5t36 -67.5q0 -29 -19.5 -51.5t-56.5 -33.5q38 -10 61 -36.5t23 -57.5q0 -41 -37.5 -70t-95.5 -29zM176 274q-53 0 -91 24t-38 59q0 16 10.5 27.5t25.5 11.5t24 -9.5
t9 -24.5t-10 -22q23 -23 70 -23q34 0 57 18t23 45q0 29 -25 47t-73 18h-22v44h24q39 0 63.5 17.5t24.5 45.5q0 25 -20 39t-51 14q-41 0 -58 -19q10 -8 10 -22t-9.5 -23.5t-23.5 -9.5q-15 0 -25.5 11t-10.5 29q0 27 32 51.5t87 24.5q52 0 87 -26.5t35 -66.5
q0 -31 -23.5 -54.5t-58.5 -31.5q37 -7 64 -32t27 -59q0 -46 -38.5 -74.5t-95.5 -28.5zM221 -13l-38 23l197 321l192 320l38 -24l-195 -316zM617 39q34 0 56 17.5t22 44.5q0 25 -23 44t-55 19q-34 0 -56.5 -19t-22.5 -44q0 -27 22 -44.5t57 -17.5zM617 205q29 0 49.5 17
t20.5 41q0 25 -20 41.5t-50 16.5q-31 0 -51 -16.5t-20 -41.5t21 -41.5t50 -16.5z" />
    <glyph glyph-name="fiveeighths" unicode="&#x215d;" horiz-adv-x="795" 
d="M612 -7q-60 0 -97 29t-37 70q0 31 23 57.5t61 36.5q-75 22 -75 85q0 41 35.5 68t89.5 27q53 0 89 -27.5t36 -67.5q0 -29 -19.5 -51.5t-56.5 -33.5q38 -10 61 -36.5t23 -57.5q0 -41 -37.5 -70t-95.5 -29zM163 274q-55 0 -88 21t-33 48q0 16 9.5 26.5t25.5 10.5t25.5 -10
t9.5 -23q0 -9 -5 -16q19 -12 53 -12q41 0 64.5 22t23.5 57q0 31 -22 50.5t-62 19.5q-43 0 -81 -18l-24 12l17 181h201v-49h-157l-9 -88q26 8 56 8q59 0 96 -31.5t37 -84.5q0 -55 -39 -89.5t-98 -34.5zM213 -13l-38 23l197 321l192 320l38 -24l-195 -316zM612 39
q34 0 56 17.5t22 44.5q0 25 -23 44t-55 19q-34 0 -56.5 -19t-22.5 -44q0 -27 22 -44.5t57 -17.5zM612 205q29 0 49.5 17t20.5 41q0 25 -20 41.5t-50 16.5q-31 0 -51 -16.5t-20 -41.5t21 -41.5t50 -16.5z" />
    <glyph glyph-name="seveneighths" unicode="&#x215e;" horiz-adv-x="795" 
d="M595 -7q-60 0 -97 29t-37 70q0 31 23 57.5t61 36.5q-75 22 -75 85q0 41 35.5 68t89.5 27q53 0 89 -27.5t36 -67.5q0 -29 -19.5 -51.5t-56.5 -33.5q38 -10 61 -36.5t23 -57.5q0 -41 -37.5 -70t-95.5 -29zM117 281l149 318h-149v-65h-47v109h245l12 -26l-154 -336h-56z
M183 -13l-38 23l197 321l192 320l38 -24l-195 -316zM595 39q34 0 56 17.5t22 44.5q0 25 -23 44t-55 19q-34 0 -56.5 -19t-22.5 -44q0 -27 22 -44.5t57 -17.5zM595 205q29 0 49.5 17t20.5 41q0 25 -20 41.5t-50 16.5q-31 0 -51 -16.5t-20 -41.5t21 -41.5t50 -16.5z" />
    <glyph glyph-name="minus" unicode="&#x2212;" horiz-adv-x="416" 
d="M42 240v61h332v-61h-332z" />
    <glyph glyph-name="Q.alt" horiz-adv-x="777" 
d="M588 -110l-77 121q-58 -23 -124 -23q-143 0 -237 98t-94 242q0 146 95 244t240 98q142 0 236.5 -98t94.5 -242q0 -90 -40.5 -166.5t-110.5 -122.5l74 -117zM389 56q47 0 85 13l-74 117l58 36l77 -123q52 35 81 95t29 134q0 117 -72 195.5t-184 78.5t-184.5 -77.5
t-72.5 -194.5t72.5 -195.5t184.5 -78.5z" />
    <glyph glyph-name="a.sc" horiz-adv-x="582" 
d="M149 508h285v-59h-75l146 -389h62v-60h-211v59h79l-41 109h-209l-40 -109h79v-59h-209v60h62l146 389h-74v59zM289 453l-82 -225h165z" />
    <glyph glyph-name="b.sc" horiz-adv-x="530" 
d="M199 59h98q53 0 82 23.5t29 62.5q0 86 -122 86h-87v-172zM199 285h84q54 0 82.5 23t28.5 62q0 38 -28 58.5t-82 20.5h-85v-164zM294 0h-251v60h86v389h-86v59h242q91 0 135.5 -36t44.5 -93q0 -90 -95 -118q109 -29 109 -121q0 -63 -48 -101.5t-137 -38.5z" />
    <glyph glyph-name="c.sc" horiz-adv-x="556" 
d="M465 121l42 -47q-81 -84 -201 -84q-115 0 -188 75.5t-73 188.5t75.5 190t190.5 77q79 0 135.5 -40.5t56.5 -88.5q0 -26 -14.5 -42t-37.5 -16t-36.5 13t-13.5 35t17 33q-36 43 -110 43q-83 0 -137 -57.5t-54 -145.5t54 -144.5t135 -56.5q90 0 159 67z" />
    <glyph glyph-name="d.sc" horiz-adv-x="604" 
d="M199 60h73q105 0 160.5 54t55.5 146q0 88 -60 138.5t-162 50.5h-67v-389zM263 0h-220v60h86v389h-86v59h223q135 0 214 -67t79 -182q0 -118 -78 -188.5t-218 -70.5z" />
    <glyph glyph-name="e.sc" horiz-adv-x="512" 
d="M456 0h-413v60h86v389h-86v59h413v-151h-66v92h-191v-164h165v-59h-165v-167h192v91h65v-150z" />
    <glyph glyph-name="f.sc" horiz-adv-x="491" 
d="M289 0h-246v60h86v389h-86v59h411v-151h-66v92h-189v-170h162v-58h-162v-161h90v-60z" />
    <glyph glyph-name="g.sc" horiz-adv-x="589" 
d="M311 458q-86 0 -140 -58t-54 -147q0 -88 55 -144.5t133 -56.5q83 0 144 43v102h-137v58h205v-255h-66v40q-67 -50 -157 -50q-101 0 -175 72.5t-74 189.5q0 119 78 194t192 75q85 0 141 -38.5t56 -85.5q0 -25 -14 -41t-37 -16q-22 0 -36 13t-14 34q0 19 15 32
q-41 39 -115 39z" />
    <glyph glyph-name="h.sc" horiz-adv-x="668" 
d="M43 0v60h86v389h-86v59h243v-59h-87v-163h270v163h-87v59h243v-59h-86v-389h86v-60h-243v60h87v165h-270v-165h87v-60h-243z" />
    <glyph glyph-name="i.sc" horiz-adv-x="333" 
d="M290 0h-247v60h89v389h-89v59h247v-59h-89v-389h89v-60z" />
    <glyph glyph-name="j.sc" horiz-adv-x="447" 
d="M180 54q42 0 64 25q29 30 29 100v270h-89v59h238v-59h-80v-271q0 -97 -47 -144q-43 -44 -115 -44q-65 0 -110 38t-45 93q0 29 15 46.5t40 17.5q19 0 33 -13.5t14 -33.5q0 -14 -7.5 -25t-19.5 -15q4 -16 25.5 -30t54.5 -14z" />
    <glyph glyph-name="k.sc" horiz-adv-x="587" 
d="M496 448l-166 -165l155 -223h83v-60h-126l-162 237l-80 -78v-99h85v-60h-242v60h88v389h-88v59h235v-59h-78v-213l216 213h-75v59h219v-60h-64z" />
    <glyph glyph-name="l.sc" horiz-adv-x="483" 
d="M385 60v97h66v-157h-408v60h86v389h-86v59h245v-59h-89v-389h186z" />
    <glyph glyph-name="m.sc" horiz-adv-x="742" 
d="M534 508h154v-59h-86l19 -389h86v-60h-242v60h86l-12 332l-159 -315h-20l-160 315l-12 -332h88v-60h-241v60h86l17 389h-86v59h156l164 -323z" />
    <glyph glyph-name="n.sc" horiz-adv-x="656" 
d="M190 508l284 -371v312h-86v59h238v-59h-86v-452h-44l-300 395v-332h85v-60h-238v60h86v389h-86v59h147z" />
    <glyph glyph-name="o.sc" horiz-adv-x="614" 
d="M307 521q115 0 188 -76.5t73 -188.5q0 -114 -73 -190t-189 -76q-115 0 -188 76t-73 190q0 112 73.5 188.5t188.5 76.5zM306 54q84 0 137.5 56t53.5 145q0 88 -53.5 145t-136.5 57t-136.5 -56.5t-53.5 -145.5t53.5 -145t135.5 -56z" />
    <glyph glyph-name="p.sc" horiz-adv-x="498" 
d="M43 508h227q83 0 138 -44t55 -117q0 -80 -53.5 -124.5t-143.5 -44.5q-53 0 -67 1v-119h88v-60h-244v60h86v389h-86v59zM271 237q57 0 89.5 29.5t32.5 79.5q0 47 -35 75t-89 28h-70v-210q28 -2 72 -2z" />
    <glyph glyph-name="q.sc" horiz-adv-x="614" 
d="M505 -110q-26 0 -52.5 8.5t-40.5 16.5t-40.5 26.5l-32.5 22.5q-28 18 -74 28q-89 19 -141 69q-79 74 -79 195q0 112 73.5 188.5t188.5 76.5t188 -76.5t73 -188.5q0 -92 -50 -160t-133 -90q14 -6 35 -19q48 -32 81 -32q32 0 67 24l32 -55q-38 -34 -95 -34zM306 54
q82 0 136.5 57t54.5 144q0 88 -53.5 145t-136.5 57t-136.5 -56.5t-53.5 -145.5q0 -91 58 -149q52 -52 131 -52z" />
    <glyph glyph-name="q.sc_alt" horiz-adv-x="614" 
d="M568 256q0 -70 -29 -128t-82 -94l55 -86l-53 -33l-58 91q-46 -16 -95 -16q-115 0 -188 76t-73 190q0 112 73.5 188.5t188.5 76.5t188 -76.5t73 -188.5zM497 255q0 88 -53.5 145t-136.5 57t-136.5 -56.5t-53.5 -145.5t53.5 -145t135.5 -56q30 0 59 8l-53 85l53 35l57 -91
q75 57 75 164z" />
    <glyph glyph-name="r.sc" horiz-adv-x="545" 
d="M271 449h-72v-187q38 -2 71 -2q58 0 93.5 25.5t35.5 71.5q0 44 -34 68t-94 24zM199 201v-141h85v-60h-241v60h86v389h-86v59h231q90 0 142.5 -39.5t52.5 -110.5q0 -50 -28.5 -86.5t-76.5 -53.5l94 -158h76v-60h-126l-113 202q-17 -2 -36 -2q-42 0 -60 1z" />
    <glyph glyph-name="s.sc" horiz-adv-x="470" 
d="M316 407q0 19 10 31q-24 24 -87 24q-47 0 -75.5 -20.5t-28.5 -55.5q0 -15 7.5 -27.5t16 -21t27.5 -18t29.5 -13.5l34.5 -13q46 -17 66 -26t50.5 -28t43 -43t12.5 -57q0 -70 -52.5 -109.5t-135.5 -39.5q-79 0 -133 34.5t-54 79.5q0 26 13 41t35 15q21 0 35.5 -13.5
t14.5 -32.5q0 -18 -11 -35q32 -30 102 -30q54 0 85.5 22t31.5 62q0 14 -7.5 27t-16.5 21t-28.5 17.5t-30 13.5l-33.5 13q-45 16 -67.5 26t-51.5 28.5t-41.5 43t-12.5 57.5q0 63 49 102t129 39q73 0 122 -32t49 -77q0 -23 -13.5 -37t-32.5 -14q-23 0 -37 13.5t-14 32.5z" />
    <glyph glyph-name="t.sc" horiz-adv-x="533" 
d="M143 0v60h88v389h-129v-95h-65v154h459v-154h-66v95h-129v-389h88v-60h-246z" />
    <glyph glyph-name="u.sc" horiz-adv-x="614" 
d="M178 449v-262q0 -65 34.5 -101t94.5 -36q61 0 95.5 35.5t34.5 100.5v263h-85v59h235v-59h-81v-260q0 -96 -53.5 -148t-146.5 -52t-145 50.5t-52 146.5v263h-81v59h235v-59h-85z" />
    <glyph glyph-name="v.sc" horiz-adv-x="562" 
d="M258 -8l-186 457h-62v59h213v-59h-77l137 -351l138 351h-77v59h208v-59h-61l-187 -457h-46z" />
    <glyph glyph-name="w.sc" horiz-adv-x="785" 
d="M222 -10l-140 459h-71v59h225v-59h-80l98 -336l125 329h33l125 -328l97 335h-80v59h220v-59h-71l-140 -459h-45l-126 331l-125 -331h-45z" />
    <glyph glyph-name="x.sc" horiz-adv-x="574" 
d="M550 61v-61h-216v59h70l-120 162l-121 -162h78v-59h-218v61h66l155 199l-145 189h-67v59h217v-59h-70l109 -150l110 150h-70v59h214v-59h-71l-143 -189l156 -199h66z" />
    <glyph glyph-name="y.sc" horiz-adv-x="529" 
d="M523 508v-59h-66l-158 -258v-131h88v-60h-245v60h87v131l-157 258h-66v59h217v-59h-76l119 -202l120 202h-77v59h214z" />
    <glyph glyph-name="z.sc" horiz-adv-x="498" 
d="M44 0v39l312 411h-236v-93h-63v151h398v-38l-312 -411h250v92h64v-151h-413z" />
    <glyph glyph-name="aacute.sc" horiz-adv-x="582" 
d="M149 508h285v-59h-75l146 -389h62v-60h-211v59h79l-41 109h-209l-40 -109h79v-59h-209v60h62l146 389h-74v59zM289 453l-82 -225h165zM261 573l-19 24l121 126q21 23 43 23q16 0 28 -12t12 -31q0 -23 -34 -44z" />
    <glyph glyph-name="abreve.sc" horiz-adv-x="582" 
d="M149 508h285v-59h-75l146 -389h62v-60h-211v59h79l-41 109h-209l-40 -109h79v-59h-209v60h62l146 389h-74v59zM289 578q-55 0 -97 36.5t-62 99.5l49 21q16 -42 46 -65t64 -23q36 0 65 24t45 64l49 -21q-19 -63 -61.5 -99.5t-97.5 -36.5zM289 453l-82 -225h165z" />
    <glyph glyph-name="acircumflex.sc" horiz-adv-x="582" 
d="M149 508h285v-59h-75l146 -389h62v-60h-211v59h79l-41 109h-209l-40 -109h79v-59h-209v60h62l146 389h-74v59zM167 570l-31 37l154 147l154 -147l-31 -37l-123 93zM289 453l-82 -225h165z" />
    <glyph glyph-name="adieresis.sc" horiz-adv-x="582" 
d="M149 508h285v-59h-75l146 -389h62v-60h-211v59h79l-41 109h-209l-40 -109h79v-59h-209v60h62l146 389h-74v59zM289 453l-82 -225h165zM378 589q-24 0 -40.5 17t-16.5 40q0 24 17 41t40 17q24 0 40 -17t16 -41q0 -23 -16.5 -40t-39.5 -17zM203 589q-23 0 -39.5 17
t-16.5 40q0 24 17 41t40 17t39.5 -17t16.5 -41q0 -23 -16.5 -40t-40.5 -17z" />
    <glyph glyph-name="ae.sc" horiz-adv-x="709" 
d="M242 0v59h84v113h-153l-58 -113h74v-59h-199v60h55l203 389h-68v59h472v-151h-65v92h-191v-164h165v-59h-165v-167h191v91h66v-150h-411zM315 449l-112 -218h123v218h-11z" />
    <glyph glyph-name="aeacute.sc" horiz-adv-x="709" 
d="M242 0v59h84v113h-153l-58 -113h74v-59h-199v60h55l203 389h-68v59h472v-151h-65v92h-191v-164h165v-59h-165v-167h191v91h66v-150h-411zM315 449l-112 -218h123v218h-11zM356 573l-19 24l121 126q21 23 43 23q17 0 28.5 -12t11.5 -31q0 -23 -34 -44z" />
    <glyph glyph-name="agrave.sc" horiz-adv-x="582" 
d="M149 508h285v-59h-75l146 -389h62v-60h-211v59h79l-41 109h-209l-40 -109h79v-59h-209v60h62l146 389h-74v59zM289 453l-82 -225h165zM320 573l-151 86q-34 21 -34 44q0 19 11.5 31t28.5 12q20 0 43 -23l120 -126z" />
    <glyph glyph-name="amacron.sc" horiz-adv-x="582" 
d="M149 508h285v-59h-75l146 -389h62v-60h-211v59h79l-41 109h-209l-40 -109h79v-59h-209v60h62l146 389h-74v59zM138 605v63h304v-63h-304zM289 453l-82 -225h165z" />
    <glyph glyph-name="aogonek.sc" horiz-adv-x="582" 
d="M473 -201q-51 0 -78.5 25.5t-27.5 67.5q0 63 64 108h-75v59h79l-41 109h-209l-40 -109h79v-59h-209v60h62l146 389h-74v59h285v-59h-75l146 -389h62v-60h-65q-72 -39 -72 -92q0 -52 55 -52q40 0 78 19l-4 -53q-31 -23 -86 -23zM289 453l-82 -225h165z" />
    <glyph glyph-name="aring.sc" horiz-adv-x="582" 
d="M224 0h-209v60h62l146 389h-74v59h53q-22 28 -22 63q0 46 32 78.5t78 32.5t78 -32.5t32 -78.5q0 -31 -23 -63h57v-59h-75l146 -389h62v-60h-211v59h79l-41 109h-209l-40 -109h79v-59zM289 453l-82 -225h165zM290 511q24 0 39.5 17.5t15.5 42.5t-15.5 43t-39.5 18t-40 -18
t-16 -43t16 -42.5t40 -17.5z" />
    <glyph glyph-name="aringacute.sc" horiz-adv-x="582" 
d="M224 0h-209v60h62l146 389h-74v59h53q-22 28 -22 63q0 46 32 78.5t78 32.5t78 -32.5t32 -78.5q0 -31 -23 -63h57v-59h-75l146 -389h62v-60h-211v59h79l-41 109h-209l-40 -109h79v-59zM289 453l-82 -225h165zM260 724l-19 24l121 126q21 23 43 23q17 0 28.5 -11.5
t11.5 -31.5q0 -23 -34 -44zM290 511q24 0 39.5 17.5t15.5 42.5t-15.5 43t-39.5 18t-40 -18t-16 -43t16 -42.5t40 -17.5z" />
    <glyph glyph-name="atilde.sc" horiz-adv-x="582" 
d="M149 508h285v-59h-75l146 -389h62v-60h-211v59h79l-41 109h-209l-40 -109h79v-59h-209v60h62l146 389h-74v59zM364 579q-44 0 -88 38q-34 28 -51 28q-36 0 -46 -60l-54 12q4 51 32 84.5t63 33.5q42 0 89 -39q33 -27 51 -27q35 0 46 60l54 -12q-4 -51 -32 -84.5t-64 -33.5
zM289 453l-82 -225h165z" />
    <glyph glyph-name="cacute.sc" horiz-adv-x="558" 
d="M268 573l-19 24l121 126q21 23 43 23q17 0 28.5 -12t11.5 -31q0 -23 -34 -44zM465 121l42 -47q-81 -84 -201 -84q-115 0 -188 75.5t-73 188.5t75.5 190t190.5 77q79 0 135.5 -40.5t56.5 -88.5q0 -26 -14.5 -42t-37.5 -16t-36.5 13t-13.5 35t17 33q-36 43 -110 43
q-83 0 -137 -57.5t-54 -145.5t54 -144.5t135 -56.5q90 0 159 67z" />
    <glyph glyph-name="ccaron.sc" horiz-adv-x="558" 
d="M420 755l31 -37l-154 -147l-154 147l31 37l123 -93zM465 121l42 -47q-81 -84 -201 -84q-115 0 -188 75.5t-73 188.5t75.5 190t190.5 77q79 0 135.5 -40.5t56.5 -88.5q0 -26 -14.5 -42t-37.5 -16t-36.5 13t-13.5 35t17 33q-36 43 -110 43q-83 0 -137 -57.5t-54 -145.5
t54 -144.5t135 -56.5q90 0 159 67z" />
    <glyph glyph-name="ccedilla.sc" horiz-adv-x="563" 
d="M299 -199q-58 0 -112 28l15 32q45 -19 88 -19q42 0 42 29q0 31 -53 31q-3 0 -10 -1t-8 -1l-19 16l24 77q-98 13 -158.5 86t-60.5 175q0 113 75.5 190t190.5 77q79 0 135.5 -40.5t56.5 -88.5q0 -26 -14.5 -42t-37.5 -16t-36.5 13t-13.5 35t17 33q-36 43 -110 43
q-83 0 -137 -57.5t-54 -145.5t54 -144.5t135 -56.5q90 0 159 67l42 -47q-81 -84 -201 -84h-3l-2 -38q45 -2 69.5 -23t24.5 -53t-26 -53.5t-72 -21.5z" />
    <glyph glyph-name="cdotaccent.sc" horiz-adv-x="558" 
d="M465 121l42 -47q-81 -84 -201 -84q-115 0 -188 75.5t-73 188.5t75.5 190t190.5 77q79 0 135.5 -40.5t56.5 -88.5q0 -26 -14.5 -42t-37.5 -16t-36.5 13t-13.5 35t17 33q-36 43 -110 43q-83 0 -137 -57.5t-54 -145.5t54 -144.5t135 -56.5q90 0 159 67zM297 584
q-24 0 -40.5 17.5t-16.5 41.5q0 25 17 42t41 17t40.5 -17t16.5 -42q0 -24 -17 -41.5t-41 -17.5z" />
    <glyph glyph-name="dcaron.sc" horiz-adv-x="606" 
d="M201 60h73q105 0 160.5 54t55.5 146q0 88 -60 138.5t-162 50.5h-67v-389zM265 0h-220v60h86v389h-86v59h223q135 0 214 -67t79 -182q0 -118 -78 -188.5t-218 -70.5zM410 755l31 -37l-154 -147l-154 147l31 37l123 -93z" />
    <glyph glyph-name="dcroat.sc" horiz-adv-x="609" 
d="M265 0h-219v60h86v168h-69v60h69v161h-86v59h222q135 0 214 -67t79 -182q0 -118 -78 -188.5t-218 -70.5zM201 60h73q105 0 160.5 54t55.5 146q0 88 -59.5 138.5t-162.5 50.5h-67v-161h115v-60h-115v-168z" />
    <glyph glyph-name="eacute.sc" horiz-adv-x="514" 
d="M225 573l-19 24l121 126q21 23 43 23q16 0 28 -12t12 -31q0 -23 -34 -44zM458 0h-413v60h86v389h-86v59h413v-151h-66v92h-191v-164h165v-59h-165v-167h192v91h65v-150z" />
    <glyph glyph-name="ebreve.sc" horiz-adv-x="514" 
d="M458 0h-413v60h86v389h-86v59h413v-151h-66v92h-191v-164h165v-59h-165v-167h192v91h65v-150zM253 578q-55 0 -97 36.5t-62 99.5l49 21q16 -42 46 -65t64 -23q36 0 65 24t45 64l49 -21q-19 -63 -61.5 -99.5t-97.5 -36.5z" />
    <glyph glyph-name="ecaron.sc" horiz-adv-x="514" 
d="M376 755l31 -37l-154 -147l-154 147l31 37l123 -93zM458 0h-413v60h86v389h-86v59h413v-151h-66v92h-191v-164h165v-59h-165v-167h192v91h65v-150z" />
    <glyph glyph-name="ecircumflex.sc" horiz-adv-x="514" 
d="M131 570l-31 37l154 147l154 -147l-31 -37l-123 93zM458 0h-413v60h86v389h-86v59h413v-151h-66v92h-191v-164h165v-59h-165v-167h192v91h65v-150z" />
    <glyph glyph-name="edieresis.sc" horiz-adv-x="514" 
d="M341 589q-24 0 -40.5 17t-16.5 40q0 24 17 41t40 17q24 0 40 -17t16 -41q0 -23 -16.5 -40t-39.5 -17zM166 589q-23 0 -39.5 17t-16.5 40q0 24 17 41t40 17t39.5 -17t16.5 -41q0 -23 -16.5 -40t-40.5 -17zM458 0h-413v60h86v389h-86v59h413v-151h-66v92h-191v-164h165v-59
h-165v-167h192v91h65v-150z" />
    <glyph glyph-name="edotaccent.sc" horiz-adv-x="514" 
d="M253 584q-24 0 -40.5 17.5t-16.5 41.5q0 25 17 42t41 17t40.5 -17t16.5 -42q0 -24 -17 -41.5t-41 -17.5zM458 0h-413v60h86v389h-86v59h413v-151h-66v92h-191v-164h165v-59h-165v-167h192v91h65v-150z" />
    <glyph glyph-name="egrave.sc" horiz-adv-x="514" 
d="M283 573l-151 86q-34 21 -34 44q0 19 12 31t28 12q20 0 43 -23l120 -126zM458 0h-413v60h86v389h-86v59h413v-151h-66v92h-191v-164h165v-59h-165v-167h192v91h65v-150z" />
    <glyph glyph-name="emacron.sc" horiz-adv-x="514" 
d="M102 605v63h304v-63h-304zM458 0h-413v60h86v389h-86v59h413v-151h-66v92h-191v-164h165v-59h-165v-167h192v91h65v-150z" />
    <glyph glyph-name="eogonek.sc" horiz-adv-x="514" 
d="M458 0h-61q-72 -39 -72 -92q0 -52 55 -52q40 0 78 19l-4 -53q-31 -23 -86 -23q-51 0 -78.5 25.5t-27.5 67.5q0 63 64 108h-281v60h86v389h-86v59h413v-151h-66v92h-191v-164h165v-59h-165v-167h192v91h65v-150z" />
    <glyph glyph-name="eth.sc" horiz-adv-x="609" 
d="M265 0h-219v60h86v168h-69v60h69v161h-86v59h222q135 0 214 -67t79 -182q0 -118 -78 -188.5t-218 -70.5zM201 60h73q105 0 160.5 54t55.5 146q0 88 -59.5 138.5t-162.5 50.5h-67v-161h115v-60h-115v-168z" />
    <glyph glyph-name="gbreve.sc" horiz-adv-x="588" 
d="M311 458q-86 0 -140 -58t-54 -147q0 -88 55 -144.5t133 -56.5q83 0 144 43v102h-137v58h205v-255h-66v40q-67 -50 -157 -50q-101 0 -175 72.5t-74 189.5q0 119 78 194t192 75q85 0 141 -38.5t56 -85.5q0 -25 -14 -41t-37 -16q-22 0 -36 13t-14 34q0 19 15 32
q-41 39 -115 39zM303 578q-55 0 -97 36.5t-62 99.5l49 21q16 -42 46 -65t64 -23q36 0 65 24t45 64l49 -21q-19 -63 -61.5 -99.5t-97.5 -36.5z" />
    <glyph glyph-name="gcommaaccent.sc" horiz-adv-x="588" 
d="M236 -282l-16 23q74 55 76 103q-18 4 -30.5 18t-12.5 32q0 21 14.5 35t34.5 14q24 0 40 -17t16 -48q0 -39 -29.5 -82.5t-92.5 -77.5zM311 458q-86 0 -140 -58t-54 -147q0 -88 55 -144.5t133 -56.5q83 0 144 43v102h-137v58h205v-255h-66v40q-67 -50 -157 -50
q-101 0 -175 72.5t-74 189.5q0 119 78 194t192 75q85 0 141 -38.5t56 -85.5q0 -25 -14 -41t-37 -16q-22 0 -36 13t-14 34q0 19 15 32q-41 39 -115 39z" />
    <glyph glyph-name="gdotaccent.sc" horiz-adv-x="588" 
d="M311 458q-86 0 -140 -58t-54 -147q0 -88 55 -144.5t133 -56.5q83 0 144 43v102h-137v58h205v-255h-66v40q-67 -50 -157 -50q-101 0 -175 72.5t-74 189.5q0 119 78 194t192 75q85 0 141 -38.5t56 -85.5q0 -25 -14 -41t-37 -16q-22 0 -36 13t-14 34q0 19 15 32
q-41 39 -115 39zM303 584q-24 0 -40.5 17.5t-16.5 41.5q0 25 17 42t41 17t40.5 -17t16.5 -42q0 -24 -17 -41.5t-41 -17.5z" />
    <glyph glyph-name="hbar.sc" horiz-adv-x="672" 
d="M606 391v-54h-65v-277h86v-60h-243v60h87v163h-270v-163h87v-60h-242v60h86v277h-66v54h66v58h-86v59h242v-59h-87v-59h270v59h-87v59h243v-59h-86v-58h65zM201 279h270v59h-270v-59z" />
    <glyph glyph-name="iacute.sc" horiz-adv-x="337" 
d="M140 573l-19 24l121 126q21 23 43 23q17 0 28.5 -12t11.5 -31q0 -23 -34 -44zM292 0h-247v60h89v389h-89v59h247v-59h-89v-389h89v-60z" />
    <glyph glyph-name="ibreve.sc" horiz-adv-x="337" 
d="M292 0h-247v60h89v389h-89v59h247v-59h-89v-389h89v-60zM168 578q-55 0 -97 36.5t-62 99.5l49 21q16 -42 46 -65t64 -23q36 0 65 24t45 64l49 -21q-19 -63 -61.5 -99.5t-97.5 -36.5z" />
    <glyph glyph-name="icircumflex.sc" horiz-adv-x="337" 
d="M46 570l-31 37l154 147l154 -147l-31 -37l-123 93zM292 0h-247v60h89v389h-89v59h247v-59h-89v-389h89v-60z" />
    <glyph glyph-name="idieresis.sc" horiz-adv-x="337" 
d="M256 589q-24 0 -40.5 17t-16.5 40q0 24 17 41t40 17q24 0 40 -17t16 -41q0 -23 -16.5 -40t-39.5 -17zM81 589q-23 0 -39.5 17t-16.5 40q0 24 17 41t40 17t39.5 -17t16.5 -41q0 -23 -16.5 -40t-40.5 -17zM292 0h-247v60h89v389h-89v59h247v-59h-89v-389h89v-60z" />
    <glyph glyph-name="idotaccent.sc" horiz-adv-x="337" 
d="M292 0h-247v60h89v389h-89v59h247v-59h-89v-389h89v-60zM169 584q-24 0 -40.5 17.5t-16.5 41.5q0 25 17 42t41 17t40.5 -17t16.5 -42q0 -24 -17 -41.5t-41 -17.5z" />
    <glyph glyph-name="dotlessi.sc" horiz-adv-x="337" 
d="M292 0h-247v60h89v389h-89v59h247v-59h-89v-389h89v-60z" />
    <glyph glyph-name="igrave.sc" horiz-adv-x="337" 
d="M292 0h-247v60h89v389h-89v59h247v-59h-89v-389h89v-60zM198 573l-151 86q-34 21 -34 44q0 19 11.5 31t28.5 12q20 0 43 -23l120 -126z" />
    <glyph glyph-name="imacron.sc" horiz-adv-x="337" 
d="M292 0h-247v60h89v389h-89v59h247v-59h-89v-389h89v-60zM17 605v63h304v-63h-304z" />
    <glyph glyph-name="iogonek.sc" horiz-adv-x="337" 
d="M170 -201q-51 0 -78.5 25.5t-27.5 67.5q0 63 64 108h-83v60h89v389h-89v59h247v-59h-89v-389h89v-60h-93q-72 -39 -72 -92q0 -52 55 -52q40 0 78 19l-4 -53q-31 -23 -86 -23z" />
    <glyph glyph-name="kcommaaccent.sc" horiz-adv-x="589" 
d="M240 -282l-16 23q74 55 76 103q-18 4 -30.5 18t-12.5 32q0 21 14.5 35t34.5 14q24 0 40 -17t16 -48q0 -39 -29.5 -82.5t-92.5 -77.5zM498 448l-166 -165l155 -223h83v-60h-126l-162 237l-80 -78v-99h85v-60h-242v60h88v389h-88v59h235v-59h-78v-213l216 213h-75v59h219
v-60h-64z" />
    <glyph glyph-name="lacute.sc" horiz-adv-x="485" 
d="M387 60v97h66v-157h-408v60h86v389h-86v59h245v-59h-89v-389h186zM151 570l-19 24l121 126q21 23 43 23q16 0 28 -11.5t12 -31.5q0 -23 -34 -44z" />
    <glyph glyph-name="lcaron.sc" horiz-adv-x="485" 
d="M387 60v97h66v-157h-408v60h86v389h-86v59h245v-59h-89v-389h186zM336 286l-23 18q36 53 36 103q0 15 -4.5 35t-4.5 33q0 20 11.5 33t33.5 13q43 0 43 -50q0 -89 -92 -185z" />
    <glyph glyph-name="lcommaaccent.sc" horiz-adv-x="485" 
d="M387 60v97h66v-157h-408v60h86v389h-86v59h245v-59h-89v-389h186zM181 -282l-16 23q74 55 76 103q-18 4 -30.5 18t-12.5 32q0 21 14.5 35t34.5 14q24 0 40 -17t16 -48q0 -39 -29.5 -82.5t-92.5 -77.5z" />
    <glyph glyph-name="ldot.sc" horiz-adv-x="485" 
d="M387 60v97h66v-157h-408v60h86v389h-86v59h245v-59h-89v-389h186zM408 230q-24 0 -40.5 17.5t-16.5 41.5q0 25 17 42t41 17t40.5 -17t16.5 -42q0 -24 -17 -41.5t-41 -17.5z" />
    <glyph glyph-name="lslash.sc" horiz-adv-x="491" 
d="M393 60v97h66v-157h-408v60h86v138l-81 -42l-27 51l108 56v186h-86v59h245v-59h-89v-150l123 64l26 -52l-149 -77v-174h186z" />
    <glyph glyph-name="nacute.sc" horiz-adv-x="659" 
d="M300 573l-19 24l121 126q21 23 43 23q17 0 28.5 -12t11.5 -31q0 -23 -34 -44zM190 508l284 -371v312h-86v59h238v-59h-86v-452h-44l-300 395v-332h85v-60h-238v60h86v389h-86v59h147z" />
    <glyph glyph-name="ncaron.sc" horiz-adv-x="659" 
d="M452 755l31 -37l-154 -147l-154 147l31 37l123 -93zM190 508l284 -371v312h-86v59h238v-59h-86v-452h-44l-300 395v-332h85v-60h-238v60h86v389h-86v59h147z" />
    <glyph glyph-name="ncommaaccent.sc" horiz-adv-x="659" 
d="M262 -282l-16 23q74 55 76 103q-18 4 -30.5 18t-12.5 32q0 21 14.5 35t34.5 14q24 0 40 -17t16 -48q0 -39 -29.5 -82.5t-92.5 -77.5zM190 508l284 -371v312h-86v59h238v-59h-86v-452h-44l-300 395v-332h85v-60h-238v60h86v389h-86v59h147z" />
    <glyph glyph-name="ntilde.sc" horiz-adv-x="659" 
d="M190 508l284 -371v312h-86v59h238v-59h-86v-452h-44l-300 395v-332h85v-60h-238v60h86v389h-86v59h147zM403 579q-44 0 -88 38q-34 28 -51 28q-36 0 -46 -60l-54 12q4 51 32 84.5t63 33.5q42 0 89 -39q33 -27 51 -27q35 0 46 60l54 -12q-4 -51 -32 -84.5t-64 -33.5z" />
    <glyph glyph-name="oacute.sc" horiz-adv-x="614" 
d="M307 521q115 0 188 -76.5t73 -188.5q0 -114 -73 -190t-189 -76q-115 0 -188 76t-73 190q0 112 73.5 188.5t188.5 76.5zM306 54q84 0 137.5 56t53.5 145q0 88 -53.5 145t-136.5 57t-136.5 -56.5t-53.5 -145.5t53.5 -145t135.5 -56zM278 573l-19 24l121 126q21 23 43 23
q17 0 28.5 -12t11.5 -31q0 -23 -34 -44z" />
    <glyph glyph-name="obreve.sc" horiz-adv-x="614" 
d="M307 521q115 0 188 -76.5t73 -188.5q0 -114 -73 -190t-189 -76q-115 0 -188 76t-73 190q0 112 73.5 188.5t188.5 76.5zM306 54q84 0 137.5 56t53.5 145q0 88 -53.5 145t-136.5 57t-136.5 -56.5t-53.5 -145.5t53.5 -145t135.5 -56zM306 578q-55 0 -97 36.5t-62 99.5l49 21
q16 -42 46 -65t64 -23q36 0 65 24t45 64l49 -21q-19 -63 -61.5 -99.5t-97.5 -36.5z" />
    <glyph glyph-name="ocircumflex.sc" horiz-adv-x="614" 
d="M184 570l-31 37l154 147l154 -147l-31 -37l-123 93zM307 521q115 0 188 -76.5t73 -188.5q0 -114 -73 -190t-189 -76q-115 0 -188 76t-73 190q0 112 73.5 188.5t188.5 76.5zM306 54q84 0 137.5 56t53.5 145q0 88 -53.5 145t-136.5 57t-136.5 -56.5t-53.5 -145.5t53.5 -145
t135.5 -56z" />
    <glyph glyph-name="odieresis.sc" horiz-adv-x="614" 
d="M394 589q-24 0 -40.5 17t-16.5 40q0 24 17 41t40 17q24 0 40 -17t16 -41q0 -23 -16.5 -40t-39.5 -17zM219 589q-23 0 -39.5 17t-16.5 40q0 24 17 41t40 17t39.5 -17t16.5 -41q0 -23 -16.5 -40t-40.5 -17zM307 521q115 0 188 -76.5t73 -188.5q0 -114 -73 -190t-189 -76
q-115 0 -188 76t-73 190q0 112 73.5 188.5t188.5 76.5zM306 54q84 0 137.5 56t53.5 145q0 88 -53.5 145t-136.5 57t-136.5 -56.5t-53.5 -145.5t53.5 -145t135.5 -56z" />
    <glyph glyph-name="oe.sc" horiz-adv-x="762" 
d="M379 60v389h-48q-98 0 -155.5 -52t-57.5 -139q0 -91 55.5 -144.5t155.5 -53.5h50zM336 508h370v-151h-66v92h-191v-164h165v-59h-165v-167h191v91h66v-150h-373q-133 0 -209.5 70t-76.5 187q0 115 78 183t211 68z" />
    <glyph glyph-name="ograve.sc" horiz-adv-x="614" 
d="M307 521q115 0 188 -76.5t73 -188.5q0 -114 -73 -190t-189 -76q-115 0 -188 76t-73 190q0 112 73.5 188.5t188.5 76.5zM306 54q84 0 137.5 56t53.5 145q0 88 -53.5 145t-136.5 57t-136.5 -56.5t-53.5 -145.5t53.5 -145t135.5 -56zM336 573l-151 86q-34 21 -34 44
q0 19 11.5 31t28.5 12q20 0 43 -23l120 -126z" />
    <glyph glyph-name="ohungarumlaut.sc" horiz-adv-x="614" 
d="M307 521q115 0 188 -76.5t73 -188.5q0 -114 -73 -190t-189 -76q-115 0 -188 76t-73 190q0 112 73.5 188.5t188.5 76.5zM306 54q84 0 137.5 56t53.5 145q0 88 -53.5 145t-136.5 57t-136.5 -56.5t-53.5 -145.5t53.5 -145t135.5 -56zM180 575l-16 24l132 124q25 23 43 23
q17 0 28.5 -11.5t11.5 -29.5q0 -25 -38 -46zM371 579l-13 25l142 118q23 19 42 19q18 0 28.5 -11.5t10.5 -28.5q0 -30 -40 -46z" />
    <glyph glyph-name="omacron.sc" horiz-adv-x="614" 
d="M307 521q115 0 188 -76.5t73 -188.5q0 -114 -73 -190t-189 -76q-115 0 -188 76t-73 190q0 112 73.5 188.5t188.5 76.5zM306 54q84 0 137.5 56t53.5 145q0 88 -53.5 145t-136.5 57t-136.5 -56.5t-53.5 -145.5t53.5 -145t135.5 -56zM155 605v63h304v-63h-304z" />
    <glyph glyph-name="oslash.sc" horiz-adv-x="618" 
d="M308 -10q-88 0 -154 47l-62 -72l-45 40l63 72q-63 74 -63 179q0 112 73.5 188.5t188.5 76.5q86 0 154 -47l63 73l46 -41l-66 -72q64 -73 64 -178q0 -114 -73 -190t-189 -76zM308 54q84 0 137.5 56t53.5 145q0 76 -41 131l-262 -297q47 -35 112 -35zM119 255
q0 -77 41 -131l261 298q-49 35 -112 35q-83 0 -136.5 -56.5t-53.5 -145.5z" />
    <glyph glyph-name="oslashacute.sc" horiz-adv-x="618" 
d="M308 -10q-88 0 -154 47l-62 -72l-45 40l63 72q-63 74 -63 179q0 112 73.5 188.5t188.5 76.5q86 0 154 -47l63 73l46 -41l-66 -72q64 -73 64 -178q0 -114 -73 -190t-189 -76zM308 54q84 0 137.5 56t53.5 145q0 76 -41 131l-262 -297q47 -35 112 -35zM119 255
q0 -77 41 -131l261 298q-49 35 -112 35q-83 0 -136.5 -56.5t-53.5 -145.5zM281 573l-19 24l121 126q21 23 43 23q16 0 28 -12t12 -31q0 -23 -34 -44z" />
    <glyph glyph-name="otilde.sc" horiz-adv-x="614" 
d="M307 521q115 0 188 -76.5t73 -188.5q0 -114 -73 -190t-189 -76q-115 0 -188 76t-73 190q0 112 73.5 188.5t188.5 76.5zM306 54q84 0 137.5 56t53.5 145q0 88 -53.5 145t-136.5 57t-136.5 -56.5t-53.5 -145.5t53.5 -145t135.5 -56zM381 579q-44 0 -88 38q-34 28 -51 28
q-36 0 -46 -60l-54 12q4 51 32 84.5t63 33.5q42 0 89 -39q33 -27 51 -27q35 0 46 60l54 -12q-4 -51 -32 -84.5t-64 -33.5z" />
    <glyph glyph-name="racute.sc" horiz-adv-x="547" 
d="M242 573l-19 24l121 126q21 23 43 23q17 0 28.5 -12t11.5 -31q0 -23 -34 -44zM273 449h-72v-187q38 -2 71 -2q58 0 93.5 25.5t35.5 71.5q0 44 -34 68t-94 24zM201 201v-141h85v-60h-241v60h86v389h-86v59h231q90 0 142.5 -39.5t52.5 -110.5q0 -50 -28.5 -86.5
t-76.5 -53.5l94 -158h76v-60h-126l-113 202q-17 -2 -36 -2q-42 0 -60 1z" />
    <glyph glyph-name="rcaron.sc" horiz-adv-x="547" 
d="M394 755l31 -37l-154 -147l-154 147l31 37l123 -93zM273 449h-72v-187q38 -2 71 -2q58 0 93.5 25.5t35.5 71.5q0 44 -34 68t-94 24zM201 201v-141h85v-60h-241v60h86v389h-86v59h231q90 0 142.5 -39.5t52.5 -110.5q0 -50 -28.5 -86.5t-76.5 -53.5l94 -158h76v-60h-126
l-113 202q-17 -2 -36 -2q-42 0 -60 1z" />
    <glyph glyph-name="rcommaaccent.sc" horiz-adv-x="547" 
d="M218 -282l-16 23q74 55 76 103q-18 4 -30.5 18t-12.5 32q0 21 14.5 35t34.5 14q24 0 40 -17t16 -48q0 -39 -29.5 -82.5t-92.5 -77.5zM273 449h-72v-187q38 -2 71 -2q58 0 93.5 25.5t35.5 71.5q0 44 -34 68t-94 24zM201 201v-141h85v-60h-241v60h86v389h-86v59h231
q90 0 142.5 -39.5t52.5 -110.5q0 -50 -28.5 -86.5t-76.5 -53.5l94 -158h76v-60h-126l-113 202q-17 -2 -36 -2q-42 0 -60 1z" />
    <glyph glyph-name="sacute.sc" horiz-adv-x="472" 
d="M215 573l-19 24l121 126q21 23 43 23q16 0 28 -12t12 -31q0 -23 -34 -44zM317 407q0 19 10 31q-24 24 -87 24q-47 0 -75.5 -20.5t-28.5 -55.5q0 -15 7.5 -27.5t16 -21t27.5 -18t29.5 -13.5l34.5 -13q46 -17 66 -26t50.5 -28t43 -43t12.5 -57q0 -70 -52.5 -109.5
t-135.5 -39.5q-79 0 -133 34.5t-54 79.5q0 26 13 41t35 15q21 0 35.5 -13.5t14.5 -32.5q0 -18 -11 -35q32 -30 102 -30q54 0 85.5 22t31.5 62q0 14 -7.5 27t-16.5 21t-28.5 17.5t-30 13.5l-33.5 13q-45 16 -67.5 26t-51.5 28.5t-41.5 43t-12.5 57.5q0 63 49 102t129 39
q73 0 122 -32t49 -77q0 -23 -13.5 -37t-32.5 -14q-23 0 -37 13.5t-14 32.5z" />
    <glyph glyph-name="scaron.sc" horiz-adv-x="472" 
d="M367 755l31 -37l-154 -147l-154 147l31 37l123 -93zM317 407q0 19 10 31q-24 24 -87 24q-47 0 -75.5 -20.5t-28.5 -55.5q0 -15 7.5 -27.5t16 -21t27.5 -18t29.5 -13.5l34.5 -13q46 -17 66 -26t50.5 -28t43 -43t12.5 -57q0 -70 -52.5 -109.5t-135.5 -39.5q-79 0 -133 34.5
t-54 79.5q0 26 13 41t35 15q21 0 35.5 -13.5t14.5 -32.5q0 -18 -11 -35q32 -30 102 -30q54 0 85.5 22t31.5 62q0 14 -7.5 27t-16.5 21t-28.5 17.5t-30 13.5l-33.5 13q-45 16 -67.5 26t-51.5 28.5t-41.5 43t-12.5 57.5q0 63 49 102t129 39q73 0 122 -32t49 -77
q0 -23 -13.5 -37t-32.5 -14q-23 0 -37 13.5t-14 32.5z" />
    <glyph glyph-name="scedilla.sc" horiz-adv-x="480" 
d="M243 -199q-58 0 -112 28l15 32q45 -19 88 -19q42 0 42 29q0 31 -53 31q-3 0 -10 -1t-8 -1l-19 16l24 76q-68 6 -113 38.5t-45 73.5q0 26 13 41t35 15q21 0 35.5 -13.5t14.5 -32.5q0 -18 -11 -35q32 -30 102 -30q54 0 85.5 22t31.5 62q0 14 -7.5 27t-16.5 21t-28.5 17.5
t-30 13.5l-33.5 13q-45 16 -67.5 26t-51.5 28.5t-41.5 43t-12.5 57.5q0 63 49 102t129 39q73 0 122 -32t49 -77q0 -23 -13.5 -37t-32.5 -14q-23 0 -37 13.5t-14 32.5t10 31q-24 24 -87 24q-47 0 -75.5 -20.5t-28.5 -55.5q0 -15 7.5 -27.5t16 -21t27.5 -18t29.5 -13.5
l34.5 -13q46 -17 66 -26t50.5 -28t43 -43t12.5 -57q0 -68 -49.5 -107.5t-128.5 -41.5l-2 -38q45 -2 69.5 -23t24.5 -53t-26 -53.5t-72 -21.5z" />
    <glyph glyph-name="scommaaccent.sc" horiz-adv-x="472" 
d="M177 -282l-16 23q74 55 76 103q-18 4 -30.5 18t-12.5 32q0 21 14.5 35t34.5 14q24 0 40 -17t16 -48q0 -39 -29.5 -82.5t-92.5 -77.5zM317 407q0 19 10 31q-24 24 -87 24q-47 0 -75.5 -20.5t-28.5 -55.5q0 -15 7.5 -27.5t16 -21t27.5 -18t29.5 -13.5l34.5 -13
q46 -17 66 -26t50.5 -28t43 -43t12.5 -57q0 -70 -52.5 -109.5t-135.5 -39.5q-79 0 -133 34.5t-54 79.5q0 26 13 41t35 15q21 0 35.5 -13.5t14.5 -32.5q0 -18 -11 -35q32 -30 102 -30q54 0 85.5 22t31.5 62q0 14 -7.5 27t-16.5 21t-28.5 17.5t-30 13.5l-33.5 13
q-45 16 -67.5 26t-51.5 28.5t-41.5 43t-12.5 57.5q0 63 49 102t129 39q73 0 122 -32t49 -77q0 -23 -13.5 -37t-32.5 -14q-23 0 -37 13.5t-14 32.5z" />
    <glyph glyph-name="tcaron.sc" horiz-adv-x="530" 
d="M142 0v60h88v389h-129v-95h-65v154h459v-154h-66v95h-129v-389h88v-60h-246zM387 755l31 -37l-154 -147l-154 147l31 37l123 -93z" />
    <glyph glyph-name="tcommaaccent.sc" horiz-adv-x="530" 
d="M142 0v60h88v389h-129v-95h-65v154h459v-154h-66v95h-129v-389h88v-60h-246zM196 -282l-16 23q74 55 76 103q-18 4 -30.5 18t-12.5 32q0 21 14.5 35t34.5 14q24 0 40 -17t16 -48q0 -39 -29.5 -82.5t-92.5 -77.5z" />
    <glyph glyph-name="thorn.sc" horiz-adv-x="497" 
d="M201 401q26 1 76 1q83 0 134 -38t51 -106q0 -69 -51.5 -107.5t-134.5 -38.5q-49 0 -75 1v-54h88v-59h-243v60h86v389h-86v59h243v-59h-88v-48zM201 171q23 -1 79 -1q51 0 82 23.5t31 62.5q0 41 -31 64.5t-82 23.5q-54 0 -79 -1v-172z" />
    <glyph glyph-name="uacute.sc" horiz-adv-x="614" 
d="M278 573l-19 24l121 126q21 23 43 23q17 0 28.5 -12t11.5 -31q0 -23 -34 -44zM178 449v-262q0 -65 34.5 -101t94.5 -36q61 0 95.5 35.5t34.5 100.5v263h-85v59h235v-59h-81v-260q0 -96 -53.5 -148t-146.5 -52t-145 50.5t-52 146.5v263h-81v59h235v-59h-85z" />
    <glyph glyph-name="ubreve.sc" horiz-adv-x="614" 
d="M178 449v-262q0 -65 34.5 -101t94.5 -36q61 0 95.5 35.5t34.5 100.5v263h-85v59h235v-59h-81v-260q0 -96 -53.5 -148t-146.5 -52t-145 50.5t-52 146.5v263h-81v59h235v-59h-85zM306 578q-55 0 -97 36.5t-62 99.5l49 21q16 -42 46 -65t64 -23q36 0 65 24t45 64l49 -21
q-19 -63 -61.5 -99.5t-97.5 -36.5z" />
    <glyph glyph-name="ucircumflex.sc" horiz-adv-x="614" 
d="M184 570l-31 37l154 147l154 -147l-31 -37l-123 93zM178 449v-262q0 -65 34.5 -101t94.5 -36q61 0 95.5 35.5t34.5 100.5v263h-85v59h235v-59h-81v-260q0 -96 -53.5 -148t-146.5 -52t-145 50.5t-52 146.5v263h-81v59h235v-59h-85z" />
    <glyph glyph-name="udieresis.sc" horiz-adv-x="614" 
d="M394 589q-24 0 -40.5 17t-16.5 40q0 24 17 41t40 17q24 0 40 -17t16 -41q0 -23 -16.5 -40t-39.5 -17zM219 589q-23 0 -39.5 17t-16.5 40q0 24 17 41t40 17t39.5 -17t16.5 -41q0 -23 -16.5 -40t-40.5 -17zM178 449v-262q0 -65 34.5 -101t94.5 -36q61 0 95.5 35.5
t34.5 100.5v263h-85v59h235v-59h-81v-260q0 -96 -53.5 -148t-146.5 -52t-145 50.5t-52 146.5v263h-81v59h235v-59h-85z" />
    <glyph glyph-name="ugrave.sc" horiz-adv-x="614" 
d="M336 573l-151 86q-34 21 -34 44q0 19 11.5 31t28.5 12q20 0 43 -23l120 -126zM178 449v-262q0 -65 34.5 -101t94.5 -36q61 0 95.5 35.5t34.5 100.5v263h-85v59h235v-59h-81v-260q0 -96 -53.5 -148t-146.5 -52t-145 50.5t-52 146.5v263h-81v59h235v-59h-85z" />
    <glyph glyph-name="uhungarumlaut.sc" horiz-adv-x="614" 
d="M180 575l-16 24l132 124q25 23 43 23q17 0 28.5 -11.5t11.5 -29.5q0 -25 -38 -46zM371 579l-13 25l142 118q23 19 42 19q18 0 28.5 -11.5t10.5 -28.5q0 -30 -40 -46zM178 449v-262q0 -65 34.5 -101t94.5 -36q61 0 95.5 35.5t34.5 100.5v263h-85v59h235v-59h-81v-260
q0 -96 -53.5 -148t-146.5 -52t-145 50.5t-52 146.5v263h-81v59h235v-59h-85z" />
    <glyph glyph-name="umacron.sc" horiz-adv-x="614" 
d="M155 605v63h304v-63h-304zM178 449v-262q0 -65 34.5 -101t94.5 -36q61 0 95.5 35.5t34.5 100.5v263h-85v59h235v-59h-81v-260q0 -96 -53.5 -148t-146.5 -52t-145 50.5t-52 146.5v263h-81v59h235v-59h-85z" />
    <glyph glyph-name="uogonek.sc" horiz-adv-x="614" 
d="M178 449v-262q0 -65 34.5 -101t94.5 -36q61 0 95.5 35.5t34.5 100.5v263h-85v59h235v-59h-81v-260q0 -89 -46.5 -140t-128.5 -59q-55 -37 -55 -82q0 -52 55 -52q40 0 78 19l-4 -53q-31 -23 -86 -23q-51 0 -78.5 25.5t-27.5 67.5q0 57 53 100q-75 10 -116 59.5t-41 134.5
v263h-81v59h235v-59h-85z" />
    <glyph glyph-name="uring.sc" horiz-adv-x="614" 
d="M306 564q-46 0 -77.5 32t-31.5 79t31.5 79t77.5 32t78 -32t32 -79t-32 -79t-78 -32zM306 615q24 0 40 17.5t16 42.5t-16 42.5t-40 17.5t-39.5 -17.5t-15.5 -42.5t15.5 -42.5t39.5 -17.5zM178 449v-262q0 -65 34.5 -101t94.5 -36q61 0 95.5 35.5t34.5 100.5v263h-85v59
h235v-59h-81v-260q0 -96 -53.5 -148t-146.5 -52t-145 50.5t-52 146.5v263h-81v59h235v-59h-85z" />
    <glyph glyph-name="wacute.sc" horiz-adv-x="785" 
d="M222 -10l-140 459h-71v59h225v-59h-80l98 -336l125 329h33l125 -328l97 335h-80v59h220v-59h-71l-140 -459h-45l-126 331l-125 -331h-45zM364 573l-19 24l121 126q21 23 43 23q17 0 28.5 -12t11.5 -31q0 -23 -34 -44z" />
    <glyph glyph-name="wcircumflex.sc" horiz-adv-x="785" 
d="M270 570l-31 37l154 147l154 -147l-31 -37l-123 93zM222 -10l-140 459h-71v59h225v-59h-80l98 -336l125 329h33l125 -328l97 335h-80v59h220v-59h-71l-140 -459h-45l-126 331l-125 -331h-45z" />
    <glyph glyph-name="wdieresis.sc" horiz-adv-x="785" 
d="M480 589q-24 0 -40.5 17t-16.5 40q0 24 17 41t40 17q24 0 40 -17t16 -41q0 -23 -16.5 -40t-39.5 -17zM305 589q-23 0 -39.5 17t-16.5 40q0 24 17 41t40 17t39.5 -17t16.5 -41q0 -23 -16.5 -40t-40.5 -17zM222 -10l-140 459h-71v59h225v-59h-80l98 -336l125 329h33
l125 -328l97 335h-80v59h220v-59h-71l-140 -459h-45l-126 331l-125 -331h-45z" />
    <glyph glyph-name="wgrave.sc" horiz-adv-x="785" 
d="M222 -10l-140 459h-71v59h225v-59h-80l98 -336l125 329h33l125 -328l97 335h-80v59h220v-59h-71l-140 -459h-45l-126 331l-125 -331h-45zM422 573l-151 86q-34 21 -34 44q0 19 11.5 31t28.5 12q20 0 43 -23l120 -126z" />
    <glyph glyph-name="yacute.sc" horiz-adv-x="529" 
d="M236 573l-19 24l121 126q21 23 43 23q17 0 28.5 -12t11.5 -31q0 -23 -34 -44zM523 508v-59h-66l-158 -258v-131h88v-60h-245v60h87v131l-157 258h-66v59h217v-59h-76l119 -202l120 202h-77v59h214z" />
    <glyph glyph-name="ycircumflex.sc" horiz-adv-x="529" 
d="M142 570l-31 37l154 147l154 -147l-31 -37l-123 93zM523 508v-59h-66l-158 -258v-131h88v-60h-245v60h87v131l-157 258h-66v59h217v-59h-76l119 -202l120 202h-77v59h214z" />
    <glyph glyph-name="ydieresis.sc" horiz-adv-x="529" 
d="M352 589q-24 0 -40.5 17t-16.5 40q0 24 17 41t40 17q24 0 40 -17t16 -41q0 -23 -16.5 -40t-39.5 -17zM177 589q-23 0 -39.5 17t-16.5 40q0 24 17 41t40 17t39.5 -17t16.5 -41q0 -23 -16.5 -40t-40.5 -17zM523 508v-59h-66l-158 -258v-131h88v-60h-245v60h87v131l-157 258
h-66v59h217v-59h-76l119 -202l120 202h-77v59h214z" />
    <glyph glyph-name="ygrave.sc" horiz-adv-x="529" 
d="M523 508v-59h-66l-158 -258v-131h88v-60h-245v60h87v131l-157 258h-66v59h217v-59h-76l119 -202l120 202h-77v59h214zM294 573l-151 86q-34 21 -34 44q0 19 11.5 31t28.5 12q20 0 43 -23l120 -126z" />
    <glyph glyph-name="zacute.sc" horiz-adv-x="498" 
d="M221 573l-19 24l121 126q21 23 43 23q16 0 28 -12t12 -31q0 -23 -34 -44zM44 0v39l312 411h-236v-93h-63v151h398v-38l-312 -411h250v92h64v-151h-413z" />
    <glyph glyph-name="zcaron.sc" horiz-adv-x="498" 
d="M372 755l31 -37l-154 -147l-154 147l31 37l123 -93zM44 0v39l312 411h-236v-93h-63v151h398v-38l-312 -411h250v92h64v-151h-413z" />
    <glyph glyph-name="zdotaccent.sc" horiz-adv-x="498" 
d="M44 0v39l312 411h-236v-93h-63v151h398v-38l-312 -411h250v92h64v-151h-413zM249 584q-24 0 -40.5 17.5t-16.5 41.5q0 25 17 42t41 17t40.5 -17t16.5 -42q0 -24 -17 -41.5t-41 -17.5z" />
    <glyph glyph-name="zero.lin" horiz-adv-x="635" 
d="M316 -12q-110 0 -184.5 95t-74.5 245q0 152 75 247t187 95q110 0 184.5 -95t74.5 -245q0 -152 -75 -247t-187 -95zM317 56q84 0 134.5 75.5t50.5 196.5q0 122 -50.5 198t-134.5 76q-83 0 -133.5 -75.5t-50.5 -196.5q0 -122 50.5 -198t133.5 -76z" />
    <glyph glyph-name="one.lin" horiz-adv-x="422" 
d="M51 0v66h133v513l-125 -31l-16 66l180 47h35v-595h130v-66h-337z" />
    <glyph glyph-name="two.lin" horiz-adv-x="559" 
d="M64 515q0 32 20 64q26 40 76.5 65.5t116.5 25.5q86 0 147 -51t61 -131q0 -38 -11 -69t-37 -59t-49.5 -46.5t-68.5 -49.5q-146 -98 -182 -200h292v102h68v-166h-431l-20 33q28 93 87 158.5t143 124.5q70 49 101 85t31 88q0 49 -40 81.5t-95 32.5q-45 0 -79.5 -15
t-48.5 -35l-3 -6q33 -12 33 -49q0 -22 -15.5 -37.5t-37.5 -15.5q-27 0 -42.5 19t-15.5 51z" />
    <glyph glyph-name="three.lin" horiz-adv-x="529" 
d="M251 56q68 0 111 35.5t43 85.5q0 75 -77 110q-48 21 -118 21h-27v66h30q69 0 115 29q60 36 60 97q0 48 -37 74.5t-98 26.5q-81 0 -114 -35l-3 -3q24 -15 24 -41q0 -21 -14.5 -36t-36.5 -15t-38.5 17.5t-16.5 45.5q0 27 20 56q56 78 183 78q88 0 147 -46t59 -121
q0 -41 -22 -75.5t-60 -56.5q-30 -18 -63 -25q36 -7 65 -21q44 -22 70 -59.5t26 -86.5q0 -82 -65 -134.5t-164 -52.5q-61 0 -114.5 22.5t-79.5 59.5q-21 29 -21 59q0 26 16 45t39 19q22 0 36.5 -15t14.5 -37q0 -29 -24 -41l4 -3q17 -19 52.5 -31t77.5 -12z" />
    <glyph glyph-name="four.lin" horiz-adv-x="551" 
d="M214 0v63h117v131h-303l-14 31l344 450l55 -41l-292 -379h210v138l74 32v-169h111v-63h-111v-129h90v-64h-281z" />
    <glyph glyph-name="five.lin" horiz-adv-x="522" 
d="M245 55q71 0 114.5 43.5t43.5 111.5q0 60 -41.5 99.5t-113.5 39.5t-138 -32l-33 16l33 325h328v-72h-268l-18 -186q47 17 104 17q94 0 157.5 -55.5t63.5 -150.5q0 -101 -67 -162t-165 -61q-107 0 -164 54q-32 29 -32 66q0 24 15 40.5t40 16.5q21 0 36 -15.5t15 -36.5
t-12 -33h1q35 -25 101 -25z" />
    <glyph glyph-name="six.lin" horiz-adv-x="576" 
d="M491 556q0 -27 -15 -42t-37 -15q-23 0 -37.5 15.5t-14.5 36.5q0 19 10 31q-26 21 -75 21q-81 0 -135 -81.5t-58 -207.5q13 20 35 39q60 52 139 52q98 0 160 -58.5t62 -147.5t-64.5 -150t-160.5 -61q-101 0 -168 65q-75 76 -75 233q0 189 79 286.5t189 97.5q77 0 126 -39
q40 -32 40 -75zM301 54q64 0 106.5 41t42.5 102q0 62 -43 102t-109 40q-67 0 -112.5 -41t-45.5 -100q0 -58 48 -101t113 -43z" />
    <glyph glyph-name="seven.lin" horiz-adv-x="497" 
d="M108 0l269 594h-278v-107h-69v171h425l14 -30l-282 -628h-79z" />
    <glyph glyph-name="eight.lin" horiz-adv-x="560" 
d="M280 -10q-101 0 -165.5 52.5t-64.5 135.5q0 58 41 104.5t94 59.5q-53 17 -87 58t-34 90q0 82 62 130t154 48q91 0 153.5 -48t62.5 -130q0 -48 -34 -89.5t-87 -58.5q53 -13 94 -59.5t41 -104.5q0 -82 -64.5 -135t-165.5 -53zM280 371q58 0 99 34t41 82q0 50 -39.5 82.5
t-100.5 32.5t-100.5 -32.5t-39.5 -82.5q0 -48 41 -82t99 -34zM280 56q67 0 110.5 35.5t43.5 89.5q0 52 -45.5 90t-108.5 38q-64 0 -109 -38t-45 -90q0 -54 43 -89.5t111 -35.5z" />
    <glyph glyph-name="nine.lin" horiz-adv-x="576" 
d="M81 102q0 27 15 42t37 15q23 0 37.5 -15.5t14.5 -36.5q0 -17 -11 -32q4 -3 8 -5q24 -16 75 -16q79 0 134 75.5t57 207.5q-27 -41 -74.5 -65.5t-100.5 -24.5q-98 0 -160 58.5t-62 150.5t64.5 153t161.5 61q101 0 165 -64q78 -78 78 -237q0 -191 -75.5 -286t-190.5 -95
q-75 0 -129 40q-44 31 -44 74zM279 313q67 0 112.5 40.5t45.5 99.5q0 64 -47 106q-47 45 -114 45q-64 0 -107 -41t-43 -105q0 -65 43 -105t110 -40z" />
    <glyph glyph-name="bullet.alt" horiz-adv-x="631" 
d="M315 -48q-117 0 -189.5 77t-72.5 189q0 111 73 188t189 77q117 0 190.5 -76.5t73.5 -188.5q0 -111 -73.5 -188.5t-190.5 -77.5z" />
    <glyph glyph-name="hyphen.lin" horiz-adv-x="305" 
d="M35 301v70h235v-70h-235z" />
    <glyph glyph-name="endash.lin" horiz-adv-x="469" 
d="M22 302v68h425v-68h-425z" />
    <glyph glyph-name="emdash.lin" horiz-adv-x="754" 
d="M22 302v68h710v-68h-710z" />
    <glyph glyph-name="parenleft.lin" horiz-adv-x="364" 
d="M350 -166q-124 71 -202.5 201t-78.5 285t78.5 285t202.5 202l36 -52q-111 -69 -176.5 -182.5t-65.5 -252.5q0 -138 65.5 -251.5t176.5 -182.5z" />
    <glyph glyph-name="parenright.lin" horiz-adv-x="364" 
d="M14 -166l-36 52q111 69 176.5 182.5t65.5 251.5t-65.5 252t-176.5 183l36 52q124 -72 202.5 -202t78.5 -285t-78.5 -285t-202.5 -201z" />
    <glyph glyph-name="bracketleft.lin" 
d="M101 -140v932h229v-64h-160v-804h160v-64h-229z" />
    <glyph glyph-name="bracketright.lin" 
d="M23 -140v64h161v804h-161v64h229v-932h-229z" />
    <glyph glyph-name="braceleft.lin" horiz-adv-x="347" 
d="M295 -157q-111 3 -170 45.5t-59 110.5q0 39 18 67t60 69q47 47 47 78q0 36 -34 58t-86 22h-19v62h19q52 0 86 22t34 58q0 31 -47 78q-42 41 -60 69t-18 67q0 68 59 110.5t170 45.5v-55q-83 -4 -121.5 -33t-38.5 -68q0 -34 61 -98q33 -35 50 -61.5t17 -55.5
q0 -36 -28.5 -66.5t-88.5 -43.5q60 -13 88.5 -43.5t28.5 -66.5q0 -29 -17 -55.5t-50 -61.5q-61 -64 -61 -98q0 -39 38.5 -68t121.5 -33v-55z" />
    <glyph glyph-name="braceright.lin" horiz-adv-x="347" 
d="M52 -157v55q83 4 121.5 33t38.5 68q0 34 -61 98q-33 35 -50 61.5t-17 55.5q0 36 28.5 66.5t88.5 43.5q-60 13 -88.5 43.5t-28.5 66.5q0 29 17 55.5t50 61.5q61 64 61 98q0 39 -38.5 68t-121.5 33v55q111 -3 169.5 -45.5t58.5 -110.5q0 -38 -18 -66.5t-59 -69.5
q-48 -46 -48 -78q0 -36 34.5 -58t86.5 -22h18v-62h-18q-52 0 -86.5 -22t-34.5 -58q0 -32 48 -78q41 -41 59 -69.5t18 -66.5q0 -68 -58.5 -110.5t-169.5 -45.5z" />
    <glyph glyph-name="registered.alt" horiz-adv-x="605" 
d="M299 -8q-110 0 -183.5 76t-73.5 186t74 186t183 76q110 0 183.5 -76t73.5 -186t-74 -186t-183 -76zM299 28q92 0 154 66t62 160q0 95 -62 161t-154 66t-153.5 -66t-61.5 -161t61.5 -160.5t153.5 -65.5zM300 127h-103v34h32v196h-32v33h100q47 0 74 -20t27 -57
q0 -25 -15 -44t-39 -28l48 -80h31v-34h-56l-59 104h-42v-70h34v-34zM296 357h-30v-94h29q29 0 46.5 13t17.5 35q0 46 -63 46z" />
    <glyph glyph-name="copyright.lin" horiz-adv-x="782" 
d="M391 -12q-140 0 -237 99.5t-97 241.5t97 241.5t237 99.5t237 -99.5t97 -241.5t-97 -241.5t-237 -99.5zM391 26q122 0 206.5 88.5t84.5 214.5t-84.5 214.5t-206.5 88.5t-206.5 -88.5t-84.5 -214.5t84.5 -214.5t206.5 -88.5zM400 459q-50 0 -84 -36t-34 -88
q0 -51 33.5 -87.5t85.5 -36.5q56 0 99 43l32 -35q-50 -55 -131 -55q-73 0 -122 48.5t-49 121.5t50.5 122t120.5 49q54 0 91 -25.5t37 -55.5q0 -16 -10.5 -27t-24.5 -11t-23.5 9t-9.5 23q0 13 8 17q-20 24 -69 24z" />
    <glyph glyph-name="published.lin" horiz-adv-x="782" 
d="M391 -12q-140 0 -237 99.5t-97 241.5t97 241.5t237 99.5t237 -99.5t97 -241.5t-97 -241.5t-237 -99.5zM391 26q122 0 206.5 88.5t84.5 214.5t-84.5 214.5t-206.5 88.5t-206.5 -88.5t-84.5 -214.5t84.5 -214.5t206.5 -88.5zM403 277h-37v-68h42v-45h-131v45h39v240h-39v44
h131q53 0 88 -29t35 -77q0 -53 -34.5 -81.5t-93.5 -28.5zM407 319q34 0 53 18t19 50q0 28 -20.5 45t-53.5 17h-39v-129q1 0 14.5 -0.5t26.5 -0.5z" />
    <glyph glyph-name="registered.lin" horiz-adv-x="782" 
d="M391 -12q-140 0 -237 99.5t-97 241.5t97 241.5t237 99.5t237 -99.5t97 -241.5t-97 -241.5t-237 -99.5zM391 26q122 0 206.5 88.5t84.5 214.5t-84.5 214.5t-206.5 88.5t-206.5 -88.5t-84.5 -214.5t84.5 -214.5t206.5 -88.5zM352 299v-84h43v-44h-131v44h40v241h-40v44h126
q58 0 92 -25t34 -72q0 -69 -64 -90l56 -98h38v-44h-69l-71 128h-54zM352 341h38q34 0 54.5 15.5t20.5 43.5q0 56 -75 56h-38v-115z" />
    <glyph glyph-name="dollar.lin" horiz-adv-x="573" 
d="M276 -102l-61 5l8 101q-77 12 -127.5 51t-50.5 80q0 27 16 44.5t38 17.5q21 0 35.5 -14.5t14.5 -33.5q0 -23 -16 -44q27 -29 99 -40l22 246q-84 27 -130 66.5t-46 107.5q0 74 55.5 122t148.5 51l8 90l62 -5l-8 -89q69 -11 114 -46t45 -78q0 -26 -15 -41.5t-36 -15.5
q-23 0 -38 15t-15 36q0 19 15 38q-20 20 -80 31l-20 -230q47 -14 79.5 -28t62.5 -35t44.5 -50.5t14.5 -67.5q0 -84 -64.5 -132t-165.5 -50zM443 178q0 44 -32.5 70t-102.5 48l-21 -235q71 2 113.5 33t42.5 84zM151 489q0 -40 27 -64.5t82 -44.5l19 216q-57 -3 -92.5 -33
t-35.5 -74z" />
    <glyph glyph-name="sterling.lin" horiz-adv-x="563" 
d="M31 31q0 26 27.5 44.5t83.5 16.5q42 54 42 133q0 16 -1 24h-112v61h99l-10 31q-30 88 -30 139q0 79 57 134.5t139 55.5q73 0 122 -36.5t49 -84.5q0 -24 -15.5 -41t-37.5 -17q-24 0 -38.5 14t-14.5 35q0 20 15 37q-24 29 -83 29q-50 0 -86.5 -36.5t-36.5 -89.5t25 -126
q3 -9 13 -44h177v-61h-166q0 -4 0.5 -12t0.5 -12q0 -90 -42 -132q37 -1 90 -17q68 -21 100 -21q35 0 52 14t34 50l53 -25q-17 -55 -49 -80t-88 -25q-47 0 -122 26q-56 20 -112 21q-17 -23 -40.5 -36t-44.5 -13q-24 0 -37 12t-13 32z" />
    <glyph glyph-name="Euro.lin" horiz-adv-x="714" 
d="M36 372v62h98q28 111 108 173t187 62q92 0 158 -52t66 -115q0 -27 -15.5 -46t-41.5 -19q-22 0 -36.5 15.5t-14.5 35.5q0 32 26 48q-12 23 -53.5 44.5t-90.5 21.5q-83 0 -140 -44.5t-80 -125.5h247v-59h-258q-2 -30 -2 -47q0 -27 3 -51h257v-60h-245q22 -74 75 -116
t132 -42q105 0 188 80l45 -48q-88 -101 -234 -101q-107 0 -180 61.5t-100 164.5h-99v62h88q-2 16 -2 50q0 31 2 46h-88z" />
    <glyph glyph-name="yen.lin" horiz-adv-x="642" 
d="M191 0v60h93v83h-166v58h166v68h-166v58h129l-160 268h-68v63h221v-63h-69l152 -268l150 268h-71v63h222v-63h-70l-160 -268h129v-58h-165v-68h165v-58h-165v-83h93v-60h-260z" />
    <glyph glyph-name="cent.lin" horiz-adv-x="501" 
d="M196 -15l13 146q-77 21 -122.5 79t-45.5 133q0 86 59.5 148.5t148.5 69.5l10 111l58 -5l-10 -109q60 -10 102 -46t42 -76q0 -23 -15.5 -41t-38.5 -18q-18 0 -31.5 12t-13.5 33q0 22 21 38q-15 31 -74 41l-29 -319q7 -1 22 -1q71 0 148 48l-6 -67q-62 -41 -148 -41h-20
l-13 -141zM114 341q0 -51 27 -90.5t76 -57.5l27 309q-56 -8 -93 -49.5t-37 -111.5z" />
    <glyph glyph-name="numbersign.lin" horiz-adv-x="586" 
d="M59 412v60h127l29 185h67l-29 -185h123l29 185h67l-29 -185h124v-60h-133l-27 -175h120l-1 -60h-128l-27 -177h-67l27 177h-123l-27 -177h-67l27 177h-122v60h131l27 175h-118zM242 413l-27 -178h126l27 178h-126z" />
    <glyph glyph-name="paragraph.lin" horiz-adv-x="692" 
d="M248 0v66h96v172q-16 -1 -66 -1q-111 0 -177.5 57t-66.5 157q0 94 69 150.5t174 56.5h369v-66h-84v-526h84v-66h-398zM417 62h71v534h-71v-534z" />
    <glyph glyph-name="section.lin" horiz-adv-x="535" 
d="M121 141q23 0 37.5 -13t14.5 -35q0 -13 -6 -24q11 -9 38.5 -15.5t50.5 -6.5q54 0 84.5 18t30.5 45t-27.5 43t-108.5 38q-90 23 -136 53.5t-46 80.5q0 76 104 117q-69 33 -69 101q0 50 52.5 88.5t138.5 38.5q67 0 121 -26q60 -31 60 -77q0 -22 -13 -36t-33 -14
q-23 0 -37.5 13t-14.5 34q0 16 5 26l-11 6q-35 15 -77 15q-54 0 -84.5 -18t-30.5 -46q0 -27 27 -42.5t109 -37.5q91 -24 136.5 -54t45.5 -80q0 -74 -102 -117q67 -31 67 -99q0 -53 -52.5 -91t-138.5 -38q-99 0 -151 46q-30 27 -30 57q0 21 13 35.5t33 14.5zM265 407l-48 12
q-87 -31 -87 -84q0 -27 30 -46t110 -38l46 -12q89 32 89 84q0 27 -30 46t-110 38z" />
    <glyph glyph-name="ordfeminine.lin" horiz-adv-x="344" 
d="M122 472q-37 0 -60.5 19.5t-23.5 52.5q0 35 27.5 56t71.5 21q39 0 71 -10v31q0 28 -19 42q-17 12 -46 12q-25 0 -36 -8q3 -6 3 -15q0 -12 -8 -20t-20 -8q-13 0 -20.5 8t-7.5 22q0 24 25.5 42t70.5 18q43 0 69 -17q35 -23 35 -71v-131h40v-39h-85v31q-38 -36 -87 -36z
M47 363v44h247v-44h-247zM135 509q41 0 73 32v41q-31 9 -65 9q-27 0 -42 -11.5t-15 -31.5q0 -39 49 -39z" />
    <glyph glyph-name="ordmasculine.lin" horiz-adv-x="351" 
d="M57 363v44h237v-44h-237zM176 471q-59 0 -96 38.5t-37 93.5t37 94t96 39t95.5 -38.5t36.5 -94.5q0 -55 -37 -93.5t-95 -38.5zM176 511q37 0 60 26t23 66q0 41 -23 67t-60 26t-60.5 -26t-23.5 -67q0 -40 23.5 -66t60.5 -26z" />
    <glyph glyph-name="degree.lin" horiz-adv-x="302" 
d="M151 476q-55 0 -92 38t-37 92t37 92t92 38t91 -38t36 -92t-36 -92t-91 -38zM151 521q34 0 56.5 24.5t22.5 60.5t-22.5 60t-56.5 24q-35 0 -57.5 -24t-22.5 -60t22.5 -60.5t57.5 -24.5z" />
    <glyph glyph-name="percent.lin" horiz-adv-x="646" 
d="M326 134q0 60 42 102.5t102 42.5t101.5 -42.5t41.5 -102.5t-41.5 -103t-101.5 -43t-102 43t-42 103zM32 524q0 60 42 103t102 43t101.5 -43t41.5 -103t-41.5 -102.5t-101.5 -42.5t-102 42.5t-42 102.5zM111 -11l-39 27l231 325l231 328l40 -27q-6 -7 -43 -60l-96 -136
l-94 -132zM85 524q0 -41 26.5 -70t64.5 -29t64 29t26 70t-26 70t-64 29t-64.5 -29t-26.5 -70zM379 134q0 -41 26.5 -70t64.5 -29q37 0 63.5 29t26.5 70t-26.5 70t-63.5 29q-38 0 -64.5 -29t-26.5 -70z" />
    <glyph glyph-name="perthousand.lin" horiz-adv-x="985" 
d="M326 134q0 60 42 102.5t102 42.5t101.5 -42.5t41.5 -102.5t-41.5 -103t-101.5 -43t-102 43t-42 103zM666 134q0 60 41.5 102.5t101.5 42.5t102 -42.5t42 -102.5t-42 -103t-102 -43t-101.5 43t-41.5 103zM32 524q0 60 42 103t102 43t101.5 -43t41.5 -103t-41.5 -102.5
t-101.5 -42.5t-102 42.5t-42 102.5zM111 -11l-39 27l231 325l231 328l40 -27q-6 -7 -43 -60l-96 -136l-94 -132zM85 524q0 -41 26.5 -70t64.5 -29t64 29t26 70t-26 70t-64 29t-64.5 -29t-26.5 -70zM379 134q0 -41 26.5 -70t64.5 -29q37 0 63.5 29t26.5 70t-26.5 70t-63.5 29
q-38 0 -64.5 -29t-26.5 -70zM719 134q0 -41 26.5 -70t63.5 -29q38 0 64.5 29t26.5 70t-26.5 70t-64.5 29q-37 0 -63.5 -29t-26.5 -70z" />
    <glyph glyph-name="quotedbl.lin" horiz-adv-x="338" 
d="M239 485l-33 179q-7 31 7 51t40 20t40.5 -19.5t7.5 -51.5l-34 -179h-28zM69 485l-33 179q-7 31 7 51t40 20t40 -19.5t8 -51.5l-34 -179h-28z" />
    <glyph glyph-name="quotesingle.lin" horiz-adv-x="168" 
d="M69 485l-33 179q-7 31 7 51t40 20t40 -19.5t8 -51.5l-34 -179h-28z" />
    <glyph glyph-name="plus.lin" horiz-adv-x="416" 
d="M176 169v136h-134v61h134v136h63v-136h135v-61h-135v-136h-63z" />
    <glyph glyph-name="minus.lin" horiz-adv-x="416" 
d="M42 305v61h332v-61h-332z" />
    <glyph glyph-name="divide.lin" horiz-adv-x="416" 
d="M374 305h-332v61h332v-61zM208 423q-20 0 -34.5 15t-14.5 35t14.5 35t34.5 15t34.5 -15t14.5 -35t-14.5 -35t-34.5 -15zM208 149q-20 0 -34.5 14.5t-14.5 34.5t14.5 35t34.5 15t34.5 -15t14.5 -35t-14.5 -34.5t-34.5 -14.5z" />
    <glyph glyph-name="equal.lin" horiz-adv-x="416" 
d="M42 379v61h332v-61h-332zM42 218v61h332v-61h-332z" />
    <glyph glyph-name="multiply.lin" horiz-adv-x="416" 
d="M312 183l-105 108l-104 -107l-44 44l105 107l-106 107l45 45l105 -108l104 108l44 -45l-105 -106l105 -108z" />
    <glyph glyph-name="less.lin" horiz-adv-x="389" 
d="M292 144l-251 170v33l251 170l33 -48l-204 -139l204 -138z" />
    <glyph glyph-name="greater.lin" horiz-adv-x="389" 
d="M98 144l-34 48l204 138l-204 139l34 48l251 -170v-33z" />
    <glyph glyph-name="plusminus.lin" horiz-adv-x="416" 
d="M176 223v135h-134v62h134v135h63v-135h135v-62h-135v-135h-63zM42 83v61h332v-61h-332z" />
    <glyph glyph-name="zero.tab" horiz-adv-x="530" 
d="M265 -12q-98 0 -160 93.5t-62 246.5q0 156 61.5 249t160.5 93q100 0 161 -93t61 -249q0 -153 -62 -246.5t-160 -93.5zM265 601q-67 0 -106 -74t-39 -197q0 -124 39 -198.5t106 -74.5q68 0 107 74.5t39 198.5q0 123 -39 197t-107 74z" />
    <glyph glyph-name="one.tab" horiz-adv-x="530" 
d="M75 0v66h163v515l-155 -42l-16 66l205 56h40v-595h160v-66h-397z" />
    <glyph glyph-name="two.tab" horiz-adv-x="530" 
d="M463 488q0 -38 -10.5 -68.5t-36.5 -59t-46.5 -45.5t-64.5 -50q-142 -103 -172 -201h272v102h67v-166h-410l-20 34q24 90 80 155.5t138 126.5q46 34 67.5 53.5t40.5 51.5t19 68q0 49 -38 81.5t-91 32.5q-44 0 -76 -14.5t-45 -36.5l-3 -7q32 -11 32 -48q0 -22 -15 -37
t-37 -15q-27 0 -42.5 18.5t-15.5 50.5q0 34 19 65q24 40 73 65.5t115 25.5q84 0 142 -50.5t58 -131.5z" />
    <glyph glyph-name="three.tab" horiz-adv-x="530" 
d="M251 -12q-60 0 -113 24t-80 62q-21 31 -21 62q0 27 16 45.5t40 18.5q21 0 36 -15.5t15 -36.5q0 -30 -26 -42l5 -5q46 -48 128 -48q67 0 109.5 36.5t42.5 86.5q0 76 -79 111q-48 21 -116 21h-28v66h32q67 0 114 29q61 36 61 98q0 49 -37 76t-97 27q-75 0 -113 -40l-4 -5
q26 -16 26 -42q0 -21 -15 -36t-37 -15t-38.5 17.5t-16.5 44.5q0 29 20 58q25 36 72 60t109 24q88 0 146.5 -46t58.5 -122q0 -87 -85 -133q-31 -17 -68 -25q37 -6 68 -21q46 -22 73.5 -60t27.5 -87q0 -82 -64 -135t-162 -53z" />
    <glyph glyph-name="four.tab" horiz-adv-x="530" 
d="M201 0v62h114v130h-289l-15 32l329 451l55 -41l-278 -380h198v139l74 32v-171h108v-62h-108v-129h87v-63h-275z" />
    <glyph glyph-name="five.tab" horiz-adv-x="530" 
d="M248 -12q-108 0 -165 54q-33 28 -33 66q0 23 15 40t40 17q21 0 36 -15.5t15 -36.5t-12 -33h1q34 -25 104 -25q73 0 117 43.5t44 111.5q0 60 -42 99.5t-116 39.5t-140 -32l-33 16l32 325h333v-72h-272l-19 -186q51 17 107 17q96 0 160 -55.5t64 -150.5q0 -101 -68 -162
t-168 -61z" />
    <glyph glyph-name="six.tab" horiz-adv-x="530" 
d="M408 499q-23 0 -38 15.5t-15 36.5q0 17 11 32q-24 21 -70 21q-74 0 -123.5 -79t-54.5 -205q11 17 28 32q56 53 134 53q92 0 150 -58t58 -148q0 -89 -61 -150t-152 -61q-96 0 -158 65q-71 77 -71 233q0 189 75.5 286.5t180.5 97.5q71 0 120 -39q38 -32 38 -75
q0 -27 -15 -42t-37 -15zM276 54q58 0 97.5 41t39.5 102q0 62 -39.5 102t-99.5 40q-61 0 -102 -41t-41 -100t43 -102q42 -42 102 -42z" />
    <glyph glyph-name="seven.tab" horiz-adv-x="530" 
d="M131 0l271 594h-289v-107h-70v171h438l14 -30l-283 -628h-81z" />
    <glyph glyph-name="eight.tab" horiz-adv-x="530" 
d="M265 54q62 0 103 35.5t41 90.5q0 53 -42 91t-102 38t-102 -38t-42 -91q0 -55 41 -90.5t103 -35.5zM265 670q87 0 146 -48t59 -131q0 -49 -33 -90.5t-86 -58.5q53 -13 93.5 -59.5t40.5 -105.5q0 -83 -62 -136t-158 -53t-158 53t-62 136q0 59 40.5 105.5t93.5 59.5
q-53 17 -86 58.5t-33 90.5q0 83 59 131t146 48zM265 371q54 0 91.5 34t37.5 82q0 51 -36.5 84t-92.5 33t-92.5 -33t-36.5 -84q0 -48 37.5 -82t91.5 -34z" />
    <glyph glyph-name="nine.tab" horiz-adv-x="530" 
d="M483 372q0 -189 -74 -286.5t-177 -97.5q-73 0 -123 39q-42 34 -42 74q0 27 15 42t37 15q23 0 37.5 -15.5t14.5 -36.5q0 -20 -11 -33l4 -3q23 -17 74 -17q71 0 119 77t53 201q-7 -12 -26 -31q-59 -54 -135 -54q-92 0 -149.5 59t-57.5 150t60.5 153t151.5 62q96 0 158 -65
q71 -77 71 -233zM253 604q-58 0 -97.5 -41.5t-39.5 -104.5q0 -64 40 -105t100 -41t101 42t41 102q0 62 -42 104q-42 44 -103 44z" />
    <glyph glyph-name="period.tab" horiz-adv-x="265" 
d="M133 -9q-27 0 -45 18.5t-18 45.5q0 28 18 46.5t45 18.5t45 -18.5t18 -46.5q0 -27 -18 -45.5t-45 -18.5z" />
    <glyph glyph-name="comma.tab" horiz-adv-x="265" 
d="M48 -156l-19 27q47 35 69.5 69t23.5 58q-22 4 -37.5 21.5t-15.5 39.5q0 24 18.5 41.5t43.5 17.5q28 0 47 -21t19 -58q0 -49 -36 -101.5t-113 -93.5z" />
    <glyph glyph-name="colon.tab" horiz-adv-x="265" 
d="M133 -9q-27 0 -45 18.5t-18 45.5t18 45.5t45 18.5t45 -18.5t18 -45.5t-18 -45.5t-45 -18.5zM133 256q-27 0 -45 18.5t-18 45.5t18 45.5t45 18.5t45 -18.5t18 -45.5t-18 -45.5t-45 -18.5z" />
    <glyph glyph-name="semicolon.tab" horiz-adv-x="265" 
d="M49 -155l-19 28q89 65 93 125q-22 4 -37.5 21t-15.5 39q0 24 18 41.5t43 17.5q28 0 47 -21t19 -58q0 -48 -36 -100t-112 -93zM133 256q-27 0 -45 18.5t-18 45.5t18 45.5t45 18.5t45 -18.5t18 -45.5t-18 -45.5t-45 -18.5z" />
    <glyph glyph-name="twodotleader.tab" horiz-adv-x="530" 
d="M133 -9q-27 0 -45 18.5t-18 45.5q0 28 18 46.5t45 18.5t45 -18.5t18 -46.5q0 -27 -18 -45.5t-45 -18.5zM398 -9q-27 0 -45 18.5t-18 45.5q0 28 18 46.5t45 18.5t45 -18.5t18 -46.5q0 -27 -18 -45.5t-45 -18.5z" />
    <glyph glyph-name="periodcentered.tab" horiz-adv-x="265" 
d="M133 189q-27 0 -45 19t-18 46t18 46t45 19t45 -19t18 -46t-18 -46t-45 -19z" />
    <glyph glyph-name="slash.tab" horiz-adv-x="530" 
d="M54 -211l-58 30l443 925l58 -29z" />
    <glyph glyph-name="bar.tab" horiz-adv-x="265" 
d="M102 -200v932h62v-932h-62z" />
    <glyph glyph-name="underscore.tab" horiz-adv-x="530" 
d="M-6 -148v67h542v-67h-542z" />
    <glyph glyph-name="dollar.tab" horiz-adv-x="530" 
d="M255 -102l-60 5l9 102q-71 12 -117.5 51.5t-46.5 81.5q0 27 16 44.5t39 17.5q21 0 35.5 -14t14.5 -33q0 -25 -17 -45q26 -29 84 -42l22 245q-75 28 -117.5 68.5t-42.5 108.5q0 72 52 120t137 50l8 90l60 -5l-8 -90q68 -11 110 -46.5t41 -80.5q0 -26 -14.5 -41.5
t-36.5 -15.5q-23 0 -37.5 15t-14.5 36q0 18 14 38q-22 23 -71 34l-20 -229q86 -29 134 -70.5t48 -112.5q0 -81 -60 -129.5t-152 -50.5zM405 174q0 44 -29 71t-88 48l-21 -232q62 2 100 32.5t38 80.5zM144 494q0 -71 96 -112l19 214q-50 -2 -82.5 -31.5t-32.5 -70.5z" />
    <glyph glyph-name="sterling.tab" horiz-adv-x="530" 
d="M27 31q0 25 25.5 43.5t79.5 17.5q42 54 42 135q0 3 -0.5 10.5t-0.5 11.5h-106v61h93l-10 33q-29 83 -29 141q0 79 53 132.5t132 53.5q69 0 115 -36t46 -85q0 -24 -15.5 -41t-37.5 -17q-23 0 -37.5 14t-14.5 35t14 37q-22 29 -74 29q-47 0 -79.5 -34.5t-32.5 -87.5
q0 -51 25 -128l13 -46h164v-61h-154q1 -7 1 -22q0 -88 -41 -134q27 -1 85 -17q64 -21 92 -21q32 0 48 14t32 50l53 -24q-29 -106 -130 -106q-41 0 -112 26q-58 20 -104 21q-17 -23 -40.5 -36t-44.5 -13q-24 0 -37 12t-13 32z" />
    <glyph glyph-name="Euro.tab" horiz-adv-x="530" 
d="M391 507q0 30 27 47q-33 51 -99 51q-59 0 -99 -47t-55 -132h175v-59h-182q-1 -13 -1 -41q0 -31 1 -46h182v-61h-173q16 -76 54 -120t96 -44q73 0 136 77l44 -44q-74 -101 -183 -101q-85 0 -143 63t-78 168h-64v62h56q-2 30 -2 46q0 27 1 40h-55v62h63q21 113 84 177.5
t148 64.5q73 0 124 -46.5t51 -103.5q0 -27 -15.5 -45.5t-42.5 -18.5q-21 0 -35.5 15t-14.5 36z" />
    <glyph glyph-name="yen.tab" horiz-adv-x="530" 
d="M139 0v60h90v83h-146v58h146v64h-146v59h125l-144 271h-61v63h211v-62h-74l127 -248l126 248h-75v62h210v-63h-63l-143 -271h125v-59h-146v-64h146v-58h-146v-83h90v-60h-252z" />
    <glyph glyph-name="cent.tab" horiz-adv-x="530" 
d="M457 227l-6 -67q-64 -42 -151 -42h-20l-12 -138l-57 5l13 143q-78 21 -124.5 79.5t-46.5 135.5q0 87 60.5 150.5t150.5 70.5l10 108l57 -5l-10 -106q62 -10 104.5 -46.5t42.5 -78.5q0 -25 -15 -42t-39 -17q-17 0 -30.5 12.5t-13.5 31.5q0 23 21 39q-19 34 -77 44
l-29 -325q7 -1 22 -1q72 0 150 49zM126 341q0 -52 28 -92.5t78 -58.5l27 315q-57 -8 -95 -50t-38 -114z" />
    <glyph glyph-name="numbersign.tab" horiz-adv-x="530" 
d="M54 413v58h115l28 186h64l-28 -186h106l28 186h64l-28 -186h114v-58h-123l-26 -178h109l-2 -58h-116l-26 -177h-64l26 177h-105l-26 -177h-64l26 177h-112v58h120l27 178h-107zM223 415l-27 -181h110l26 181h-109z" />
    <glyph glyph-name="paragraph.tab" horiz-adv-x="530" 
d="M318 62h48v534h-48v-534zM22 451q0 94 63.5 150.5t165.5 56.5h249v-66h-71v-526h71v-66h-326v66h83v172q-11 -1 -20 -1q-93 0 -154 57.5t-61 156.5z" />
    <glyph glyph-name="section.tab" horiz-adv-x="530" 
d="M120 141q23 0 37 -13t14 -35q0 -15 -5 -24q10 -9 37.5 -15.5t50.5 -6.5q54 0 84 18t30 45t-27 43t-108 38q-90 23 -136 53.5t-46 80.5q0 75 104 117q-69 33 -69 101q0 50 52.5 88.5t138.5 38.5q68 0 120 -26q61 -31 61 -77q0 -22 -13.5 -36t-33.5 -14q-23 0 -37 13
t-14 34q0 15 4 26l-11 6q-33 15 -76 15q-54 0 -84 -18t-30 -46q0 -27 26.5 -42.5t108.5 -37.5q91 -24 136.5 -54t45.5 -80q0 -74 -102 -117q66 -31 66 -99q0 -53 -52 -91t-138 -38q-99 0 -150 46q-31 26 -31 57q0 21 13.5 35.5t33.5 14.5zM263 407l-48 12q-86 -31 -86 -84
q0 -28 29.5 -46.5t109.5 -37.5l46 -12q88 32 88 84q0 28 -29.5 46.5t-109.5 37.5z" />
    <glyph glyph-name="degree.tab" horiz-adv-x="530" 
d="M263 384q-78 0 -127.5 52.5t-49.5 127.5t49.5 127.5t127.5 52.5t127.5 -52.5t49.5 -127.5t-49.5 -127.5t-127.5 -52.5zM263 696q-55 0 -90 -38t-35 -94t35 -94t90 -38t90 38t35 94t-35 94t-90 38z" />
    <glyph glyph-name="percent.tab" horiz-adv-x="530" 
d="M25 524q0 63 33 104.5t85 41.5q51 0 84.5 -41.5t33.5 -104.5q0 -62 -33.5 -103.5t-84.5 -41.5q-52 0 -85 41.5t-33 103.5zM269 134q0 62 33.5 103.5t84.5 41.5q50 0 83.5 -41.5t33.5 -103.5t-33.5 -104t-83.5 -42q-51 0 -84.5 41.5t-33.5 104.5zM90 -10l-39 24l196 324
l196 329l38 -24l-197 -328zM75 524q0 -43 19 -72t49 -29t49 29t19 72q0 44 -19 73t-49 29t-49 -29.5t-19 -72.5zM321 134q0 -43 18 -71.5t48 -28.5q29 0 47 28.5t18 71.5t-18 71t-47 28q-30 0 -48 -28t-18 -71z" />
    <glyph glyph-name="quotedbl.tab" horiz-adv-x="530" 
d="M150 440l-34 221q-6 34 7.5 54.5t40.5 20.5t40.5 -20t8.5 -55l-35 -221h-28zM351 440l-34 221q-6 34 7.5 54.5t40.5 20.5t41 -20.5t8 -54.5l-35 -221h-28z" />
    <glyph glyph-name="quotesingle.tab" horiz-adv-x="265" 
d="M118 440l-35 221q-5 34 8.5 54.5t40.5 20.5q26 0 40 -20.5t9 -54.5l-35 -221h-28z" />
    <glyph glyph-name="plus.tab" horiz-adv-x="530" 
d="M234 150v156h-155v61h155v156h62v-156h155v-61h-155v-156h-62z" />
    <glyph glyph-name="minus.tab" horiz-adv-x="530" 
d="M79 306v61h372v-61h-372z" />
    <glyph glyph-name="divide.tab" horiz-adv-x="530" 
d="M451 306h-372v61h372v-61zM265 442q-20 0 -35 15.5t-15 36.5q0 20 15 35.5t36 15.5q19 0 34 -15.5t15 -35.5q0 -21 -15 -36.5t-35 -15.5zM265 128q-20 0 -35 15.5t-15 35.5q0 21 15 36t36 15q20 0 34.5 -15t14.5 -36q0 -20 -15 -35.5t-35 -15.5z" />
    <glyph glyph-name="equal.tab" horiz-adv-x="530" 
d="M79 391v62h372v-62h-372zM79 207v62h372v-62h-372z" />
    <glyph glyph-name="multiply.tab" horiz-adv-x="530" 
d="M389 164l-125 128l-123 -127l-45 44l125 127l-125 127l45 45l124 -128l124 128l44 -45l-124 -127l125 -127z" />
    <glyph glyph-name="less.tab" horiz-adv-x="530" 
d="M381 126l-290 193v24l290 194l34 -48l-237 -158l237 -157z" />
    <glyph glyph-name="greater.tab" horiz-adv-x="530" 
d="M149 537l290 -194v-24l-290 -193l-34 48l237 157l-237 158z" />
    <glyph glyph-name="plusminus.tab" horiz-adv-x="530" 
d="M234 215v155h-155v62h155v155h62v-155h155v-62h-155v-155h-62zM79 70v62h372v-62h-372z" />
    <glyph glyph-name="zero.idx_P2D" horiz-adv-x="1100" 
d="M550 795q135 0 248.5 -66.5t178.5 -180.5t65 -248t-65 -248t-178.5 -180.5t-248.5 -66.5t-248.5 66.5t-178.5 180.5t-65 248t65 248t178.5 180.5t248.5 66.5zM550 749q-186 0 -313 -131.5t-127 -317.5t127 -317.5t313 -131.5t313 131.5t127 317.5t-127 317.5t-313 131.5z
M549 64q-79 0 -134.5 68.5t-55.5 173.5q0 107 55.5 175t136.5 68q80 0 135 -68t55 -174q0 -107 -55.5 -175t-136.5 -68zM550 124q56 0 90 51t34 131q0 81 -34 132t-90 51q-57 0 -91 -50.5t-34 -131.5t34.5 -132t90.5 -51z" />
    <glyph glyph-name="one.idx_P2D" horiz-adv-x="1100" 
d="M550 795q135 0 248.5 -66.5t178.5 -180.5t65 -248t-65 -248t-178.5 -180.5t-248.5 -66.5t-248.5 66.5t-178.5 180.5t-65 248t65 248t178.5 180.5t248.5 66.5zM550 749q-186 0 -313 -131.5t-127 -317.5t127 -317.5t313 -131.5t313 131.5t127 317.5t-127 317.5t-313 131.5z
M690 73h-275v58h106v342l-100 -21l-13 57l146 33h32v-411h104v-58z" />
    <glyph glyph-name="two.idx_P2D" horiz-adv-x="1100" 
d="M550 795q135 0 248.5 -66.5t178.5 -180.5t65 -248t-65 -248t-178.5 -180.5t-248.5 -66.5t-248.5 66.5t-178.5 180.5t-65 248t65 248t178.5 180.5t248.5 66.5zM550 749q-186 0 -313 -131.5t-127 -317.5t127 -317.5t313 -131.5t313 131.5t127 317.5t-127 317.5t-313 131.5z
M394 433q0 27 15 49q19 30 56.5 48.5t87.5 18.5q64 0 109 -37.5t45 -95.5q0 -51 -28.5 -83.5t-86.5 -70.5q-102 -67 -132 -134h200v75h56v-130h-317l-18 29q24 69 67.5 115t103.5 87q47 32 67.5 55.5t20.5 57.5q0 32 -26.5 53t-65.5 21q-56 0 -82 -26l-6 -7q23 -12 23 -38
q0 -18 -12.5 -30t-29.5 -12q-22 0 -34.5 15.5t-12.5 39.5z" />
    <glyph glyph-name="three.idx_P2D" horiz-adv-x="1100" 
d="M550 795q135 0 248.5 -66.5t178.5 -180.5t65 -248t-65 -248t-178.5 -180.5t-248.5 -66.5t-248.5 66.5t-178.5 180.5t-65 248t65 248t178.5 180.5t248.5 66.5zM550 749q-186 0 -313 -131.5t-127 -317.5t127 -317.5t313 -131.5t313 131.5t127 317.5t-127 317.5t-313 131.5z
M385 171q0 21 13 35.5t32 14.5q17 0 29 -12.5t12 -29.5q0 -20 -14 -29q25 -28 91 -28q44 0 73.5 22.5t29.5 56.5q0 49 -51 72q-33 14 -83 14h-21v55h24q51 0 84 22q35 24 35 62q0 32 -25.5 48.5t-65.5 16.5q-51 0 -75 -22q14 -10 14 -29q0 -17 -12.5 -29t-29.5 -12
t-30.5 14.5t-13.5 36.5q0 23 17 43q41 54 133 54q66 0 110 -33.5t44 -86.5q0 -57 -51 -90q-24 -16 -48 -20q26 -6 46 -18q64 -36 64 -101q0 -58 -48.5 -95t-120.5 -37q-91 0 -139 53q-23 25 -23 52z" />
    <glyph glyph-name="four.idx_P2D" horiz-adv-x="1100" 
d="M550 795q135 0 248.5 -66.5t178.5 -180.5t65 -248t-65 -248t-178.5 -180.5t-248.5 -66.5t-248.5 66.5t-178.5 180.5t-65 248t65 248t178.5 180.5t248.5 66.5zM550 749q-186 0 -313 -131.5t-127 -317.5t127 -317.5t313 -131.5t313 131.5t127 317.5t-127 317.5t-313 131.5z
M491 73v53h83v84h-216l-15 28l249 316l48 -36l-206 -258h140v90l62 25v-114h77v-53h-77v-81h60v-54h-205z" />
    <glyph glyph-name="five.idx_P2D" horiz-adv-x="1100" 
d="M550 795q135 0 248.5 -66.5t178.5 -180.5t65 -248t-65 -248t-178.5 -180.5t-248.5 -66.5t-248.5 66.5t-178.5 180.5t-65 248t65 248t178.5 180.5t248.5 66.5zM550 749q-186 0 -313 -131.5t-127 -317.5t127 -317.5t313 -131.5t313 131.5t127 317.5t-127 317.5t-313 131.5z
M546 64q-66 0 -111.5 27.5t-45.5 61.5q0 19 12 32t32 13q18 0 30 -12.5t12 -28.5q0 -14 -7 -21q19 -15 75 -15q48 0 75 29t27 74q0 40 -26 65.5t-75 25.5q-65 0 -107 -22l-28 16l22 231h249v-61h-196l-12 -116q32 10 81 10q67 0 111.5 -40.5t44.5 -108.5q0 -72 -46.5 -116
t-116.5 -44z" />
    <glyph glyph-name="six.idx_P2D" horiz-adv-x="1100" 
d="M550 795q135 0 248.5 -66.5t178.5 -180.5t65 -248t-65 -248t-178.5 -180.5t-248.5 -66.5t-248.5 66.5t-178.5 180.5t-65 248t65 248t178.5 180.5t248.5 66.5zM550 749q-186 0 -313 -131.5t-127 -317.5t127 -317.5t313 -131.5t313 131.5t127 317.5t-127 317.5t-313 131.5z
M696 465q0 -21 -12 -32.5t-30 -11.5q-19 0 -30.5 12t-11.5 28q0 12 5 21q-22 10 -47 10q-55 0 -92.5 -51.5t-39.5 -133.5q19 25 51 41t68 16q70 0 116 -42.5t46 -105.5q0 -64 -47.5 -108t-118.5 -44q-74 0 -123 49q-55 54 -55 169q0 128 57 197.5t139 69.5q49 0 86 -22
q39 -26 39 -62zM445 217q0 -39 32 -68q33 -28 77 -28q42 0 70.5 27t28.5 67t-29 66t-74 26q-44 0 -74.5 -26t-30.5 -64z" />
    <glyph glyph-name="seven.idx_P2D" horiz-adv-x="1100" 
d="M550 795q135 0 248.5 -66.5t178.5 -180.5t65 -248t-65 -248t-178.5 -180.5t-248.5 -66.5t-248.5 66.5t-178.5 180.5t-65 248t65 248t178.5 180.5t248.5 66.5zM550 749q-186 0 -313 -131.5t-127 -317.5t127 -317.5t313 -131.5t313 131.5t127 317.5t-127 317.5t-313 131.5z
M526 73h-69l196 412h-191v-82h-59v137h312l14 -31z" />
    <glyph glyph-name="eight.idx_P2D" horiz-adv-x="1100" 
d="M550 795q135 0 248.5 -66.5t178.5 -180.5t65 -248t-65 -248t-178.5 -180.5t-248.5 -66.5t-248.5 66.5t-178.5 180.5t-65 248t65 248t178.5 180.5t248.5 66.5zM550 749q-186 0 -313 -131.5t-127 -317.5t127 -317.5t313 -131.5t313 131.5t127 317.5t-127 317.5t-313 131.5z
M550 66q-77 0 -123.5 38t-46.5 95q0 41 28 73.5t68 42.5q-40 12 -63 40.5t-23 62.5q0 58 45.5 93.5t114.5 35.5q68 0 113.5 -36t45.5 -93q0 -34 -23.5 -62.5t-62.5 -40.5q41 -10 68.5 -42.5t27.5 -73.5q0 -57 -47 -95t-122 -38zM550 338q38 0 65 22.5t27 54.5q0 33 -26.5 55
t-65.5 22q-41 0 -67 -21.5t-26 -55.5q0 -32 27.5 -54.5t65.5 -22.5zM550 122q45 0 74 23.5t29 58.5q0 34 -30 59t-73 25q-44 0 -74 -25t-30 -59q0 -35 29 -58.5t75 -23.5z" />
    <glyph glyph-name="nine.idx_P2D" horiz-adv-x="1100" 
d="M550 795q135 0 248.5 -66.5t178.5 -180.5t65 -248t-65 -248t-178.5 -180.5t-248.5 -66.5t-248.5 66.5t-178.5 180.5t-65 248t65 248t178.5 180.5t248.5 66.5zM550 749q-186 0 -313 -131.5t-127 -317.5t127 -317.5t313 -131.5t313 131.5t127 317.5t-127 317.5t-313 131.5z
M404 148q0 21 12 32.5t29 11.5q19 0 30.5 -12t11.5 -28q0 -12 -6 -20q17 -11 51 -11q55 0 92.5 50t38.5 132q-19 -24 -51.5 -39.5t-67.5 -15.5q-70 0 -115.5 41.5t-45.5 106.5t47 109t119 44q73 0 121 -48q56 -55 56 -171q0 -129 -55.5 -197.5t-139.5 -68.5q-70 0 -107 39
q-20 20 -20 45zM656 394q0 41 -31 70q-32 29 -77 29q-43 0 -71.5 -27.5t-28.5 -67.5q0 -42 29 -68t75 -26q44 0 74 26t30 64z" />
    <glyph glyph-name="space.tab" horiz-adv-x="265" 
 />
    <glyph glyph-name="NUL" horiz-adv-x="0" 
 />
    <glyph glyph-name="hfjslug" horiz-adv-x="694" 
d="M644 -200h-208l-8 14h-163l-8 -14h-207v303q14 0 23 9.5t9 22.5t-9.5 22.5t-22.5 9.5v554h100l30 79h334l29 -79h101v-921zM400 563v-172h15v78h38v14h-38v66h43v14h-58zM184 563v-172h15v79h47v-79h15v172h-15v-79h-47v79h-15zM460 394q10 -4 21 -4q31 0 31 36v137h-16
v-137q0 -22 -16 -22q-8 0 -20 5v-15zM371 465l-13 3q-4 -18 -8 -30h-1l-16 31q23 21 23 42q0 12 -7 21.5t-20 9.5q-12 0 -20 -9.5t-8 -21.5q0 -13 14 -39q-23 -18 -23 -47q0 -16 8 -26.5t21 -10.5q19 0 29 24h1l12 -24l12 6l-17 32q6 14 13 39zM523 323v-46h8v12l8 8l15 -20
h10l-20 26l18 20h-10l-20 -24h-1v24h-8zM488 292l10 -15h9l-12 17q10 4 10 14q0 15 -17 15h-20v-46h8v15h12zM426 276q10 0 17 7t7 17q0 9 -7 16.5t-17 7.5t-17 -7.5t-7 -16.5q0 -10 7 -17t17 -7zM370 301l-13 22h-9l18 -29v-17h8v17l18 29h-9zM193 323v-46h34v7h-26v13h23
v7h-23v12h26v7h-34zM132 323v-46h8v32l25 -32h7v46h-8v-32l-25 32h-7zM241 323l14 -47h8l11 34h1l11 -34h8l14 47h-8l-10 -35h-1l-11 35h-7l-11 -35h-1l-10 35h-8zM327 479q-12 22 -12 32q0 19 14 19q13 0 13 -19q0 -15 -15 -32zM342 423q-8 -21 -20 -21q-16 0 -16 25
q0 19 16 35zM487 299h-11v17h11q10 0 10 -8q0 -9 -10 -9zM426 283q-16 0 -16 17q0 6 4.5 11.5t11.5 5.5t11.5 -5.5t4.5 -11.5q0 -17 -16 -17z" />
    <glyph glyph-name="A.sc" horiz-adv-x="582" 
d="M149 508h285v-59h-75l146 -389h62v-60h-211v59h79l-41 109h-209l-40 -109h79v-59h-209v60h62l146 389h-74v59zM289 453l-82 -225h165z" />
    <glyph glyph-name="B.sc" horiz-adv-x="530" 
d="M199 59h98q53 0 82 23.5t29 62.5q0 86 -122 86h-87v-172zM199 285h84q54 0 82.5 23t28.5 62q0 38 -28 58.5t-82 20.5h-85v-164zM294 0h-251v60h86v389h-86v59h242q91 0 135.5 -36t44.5 -93q0 -90 -95 -118q109 -29 109 -121q0 -63 -48 -101.5t-137 -38.5z" />
    <glyph glyph-name="C.sc" horiz-adv-x="556" 
d="M465 121l42 -47q-81 -84 -201 -84q-115 0 -188 75.5t-73 188.5t75.5 189.5t190.5 76.5q79 0 135.5 -40.5t56.5 -88.5q0 -26 -14.5 -42t-37.5 -16t-36.5 13t-13.5 35t17 33q-34 43 -110 43q-83 0 -137 -57t-54 -145t54 -144.5t135 -56.5q90 0 159 67z" />
    <glyph glyph-name="D.sc" horiz-adv-x="604" 
d="M199 60h73q105 0 160.5 54t55.5 146q0 88 -60 138.5t-162 50.5h-67v-389zM263 0h-220v60h86v389h-86v59h223q135 0 214 -67t79 -182q0 -118 -78 -188.5t-218 -70.5z" />
    <glyph glyph-name="E.sc" horiz-adv-x="512" 
d="M456 0h-413v60h86v389h-86v59h413v-151h-66v92h-191v-164h165v-59h-165v-167h192v91h65v-150z" />
    <glyph glyph-name="F.sc" horiz-adv-x="491" 
d="M289 0h-246v60h86v389h-86v59h411v-151h-66v92h-189v-170h162v-58h-162v-161h90v-60z" />
    <glyph glyph-name="G.sc" horiz-adv-x="589" 
d="M311 457q-86 0 -140 -58t-54 -147q0 -87 55 -143t133 -56q83 0 144 43v101h-137v58h205v-255h-66v41q-67 -50 -157 -50q-101 0 -175 71.5t-74 188.5q0 118 78 193t192 75q85 0 141 -38.5t56 -85.5q0 -25 -14 -40.5t-37 -15.5q-22 0 -36 12.5t-14 33.5q0 20 15 33
q-41 39 -115 39z" />
    <glyph glyph-name="H.sc" horiz-adv-x="668" 
d="M43 0v60h86v389h-86v59h243v-59h-87v-163h270v163h-87v59h243v-59h-86v-389h86v-60h-243v60h87v165h-270v-165h87v-60h-243z" />
    <glyph glyph-name="I.sc" horiz-adv-x="333" 
d="M290 0h-247v60h89v389h-89v59h247v-59h-89v-389h89v-60z" />
    <glyph glyph-name="J.sc" horiz-adv-x="447" 
d="M180 54q40 0 64 25q29 32 29 101v269h-89v59h238v-59h-80v-271q0 -95 -47 -144q-44 -44 -115 -44q-65 0 -110 38.5t-45 93.5q0 28 15 45.5t40 17.5q19 0 33 -13t14 -33q0 -14 -7.5 -25.5t-19.5 -14.5q5 -16 26 -30.5t54 -14.5z" />
    <glyph glyph-name="K.sc" horiz-adv-x="587" 
d="M496 448l-166 -165l155 -223h83v-60h-126l-162 237l-80 -78v-99h85v-60h-242v60h88v389h-88v59h235v-59h-78v-213l216 213h-75v59h219v-60h-64z" />
    <glyph glyph-name="L.sc" horiz-adv-x="483" 
d="M385 60v97h66v-157h-408v60h86v389h-86v59h245v-59h-89v-389h186z" />
    <glyph glyph-name="M.sc" horiz-adv-x="742" 
d="M534 508h154v-59h-86l19 -389h86v-60h-242v60h86l-12 332l-159 -315h-20l-160 315l-12 -332h88v-60h-241v60h86l17 389h-86v59h156l164 -323z" />
    <glyph glyph-name="N.sc" horiz-adv-x="656" 
d="M190 508l284 -371v312h-86v59h238v-59h-86v-452h-44l-300 395v-332h85v-60h-238v60h86v389h-86v59h147z" />
    <glyph glyph-name="O.sc" horiz-adv-x="614" 
d="M307 521q115 0 188 -76.5t73 -188.5q0 -114 -73 -190t-189 -76q-115 0 -188 76t-73 190q0 112 73.5 188.5t188.5 76.5zM306 54q84 0 137.5 56t53.5 145q0 88 -53.5 145t-136.5 57t-136.5 -56.5t-53.5 -145.5t53.5 -145t135.5 -56z" />
    <glyph glyph-name="P.sc" horiz-adv-x="498" 
d="M43 508h227q83 0 138 -44t55 -117q0 -80 -53.5 -124.5t-143.5 -44.5q-53 0 -67 1v-119h88v-60h-244v60h86v389h-86v59zM271 237q57 0 89.5 29.5t32.5 79.5q0 47 -35 75t-89 28h-70v-210q28 -2 72 -2z" />
    <glyph glyph-name="Q.sc" horiz-adv-x="614" 
d="M505 -110q-26 0 -52.5 8.5t-40.5 16.5t-40.5 26.5l-32.5 22.5q-28 18 -74 28q-89 19 -141 69q-79 74 -79 195q0 112 73.5 188.5t188.5 76.5t188 -76.5t73 -188.5q0 -92 -50 -160t-133 -90q14 -6 35 -19q48 -32 81 -32q32 0 67 24l32 -55q-38 -34 -95 -34zM306 54
q82 0 136.5 57t54.5 144q0 88 -53.5 145t-136.5 57t-136.5 -56.5t-53.5 -145.5q0 -91 58 -149q52 -52 131 -52z" />
    <glyph glyph-name="Q.sc_alt" horiz-adv-x="614" 
d="M459 -85l-58 91q-46 -16 -95 -16q-115 0 -188 76t-73 190q0 112 73.5 188.5t188.5 76.5t188 -76.5t73 -188.5q0 -70 -29 -128t-82 -94l55 -86zM306 54q30 0 59 8l-53 85l53 35l57 -91q75 57 75 164q0 88 -53.5 145t-136.5 57t-136.5 -56.5t-53.5 -145.5t53.5 -145
t135.5 -56z" />
    <glyph glyph-name="R.sc" horiz-adv-x="545" 
d="M271 449h-72v-187q38 -2 71 -2q58 0 93.5 25.5t35.5 71.5q0 44 -34 68t-94 24zM199 201v-141h85v-60h-241v60h86v389h-86v59h231q90 0 142.5 -39.5t52.5 -110.5q0 -50 -28.5 -86.5t-76.5 -53.5l94 -158h76v-60h-126l-113 202q-17 -2 -36 -2q-42 0 -60 1z" />
    <glyph glyph-name="S.sc" horiz-adv-x="470" 
d="M316 405q0 18 10 32q-25 23 -87 23q-47 0 -75.5 -20.5t-28.5 -55.5q0 -42 63 -71q10 -5 52 -21q37 -13 53 -19.5t44 -21t41 -28.5t23.5 -35.5t10.5 -48.5q0 -70 -52.5 -109.5t-135.5 -39.5q-79 0 -133 34.5t-54 79.5q0 26 13 41t35 15q21 0 35.5 -13.5t14.5 -32.5
q0 -18 -11 -35q32 -30 102 -30q54 0 85.5 22t31.5 62q0 14 -8 27t-16.5 20.5t-28.5 17.5t-29 13.5t-34 12.5q-45 16 -67.5 26t-51.5 28t-41.5 42.5t-12.5 57.5q0 63 49 102t129 39q73 0 122 -31.5t49 -77.5q0 -23 -13.5 -37t-32.5 -14q-23 0 -37 13.5t-14 32.5z" />
    <glyph glyph-name="T.sc" horiz-adv-x="533" 
d="M143 0v60h88v389h-129v-95h-65v154h459v-154h-66v95h-129v-389h88v-60h-246z" />
    <glyph glyph-name="U.sc" horiz-adv-x="614" 
d="M306 -7q-93 0 -145 50t-52 146v260h-81v59h235v-59h-85v-259q0 -65 34.5 -100.5t94.5 -35.5q61 0 95.5 35t34.5 99v261h-85v59h235v-59h-81v-257q0 -96 -53.5 -147.5t-146.5 -51.5z" />
    <glyph glyph-name="V.sc" horiz-adv-x="562" 
d="M258 -8l-186 457h-62v59h213v-59h-77l137 -351l138 351h-77v59h208v-59h-61l-187 -457h-46z" />
    <glyph glyph-name="W.sc" horiz-adv-x="785" 
d="M222 -10l-140 459h-71v59h225v-59h-80l98 -336l125 329h33l125 -328l97 335h-80v59h220v-59h-71l-140 -459h-45l-126 331l-125 -331h-45z" />
    <glyph glyph-name="X.sc" horiz-adv-x="574" 
d="M550 61v-61h-216v59h70l-120 162l-121 -162h78v-59h-218v61h66l155 199l-145 189h-67v59h217v-59h-70l109 -150l110 150h-70v59h214v-59h-71l-143 -189l156 -199h66z" />
    <glyph glyph-name="Y.sc" horiz-adv-x="529" 
d="M523 508v-59h-66l-158 -258v-131h88v-60h-245v60h87v131l-157 258h-66v59h217v-59h-76l119 -202l120 202h-77v59h214z" />
    <glyph glyph-name="Z.sc" horiz-adv-x="498" 
d="M44 0v39l312 411h-236v-93h-63v151h398v-38l-312 -411h250v92h64v-151h-413z" />
    <glyph glyph-name="Aacute.sc" horiz-adv-x="582" 
d="M149 508h285v-59h-75l146 -389h62v-60h-211v59h79l-41 109h-209l-40 -109h79v-59h-209v60h62l146 389h-74v59zM289 453l-82 -225h165zM261 573l-19 24l121 126q21 23 43 23q16 0 28 -12t12 -31q0 -23 -34 -44z" />
    <glyph glyph-name="Abreve.sc" horiz-adv-x="582" 
d="M149 508h285v-59h-75l146 -389h62v-60h-211v59h79l-41 109h-209l-40 -109h79v-59h-209v60h62l146 389h-74v59zM289 578q-55 0 -97 36.5t-62 99.5l49 21q16 -42 46 -65t64 -23q36 0 65 24t45 64l49 -21q-19 -63 -61.5 -99.5t-97.5 -36.5zM289 453l-82 -225h165z" />
    <glyph glyph-name="Acircumflex.sc" horiz-adv-x="582" 
d="M149 508h285v-59h-75l146 -389h62v-60h-211v59h79l-41 109h-209l-40 -109h79v-59h-209v60h62l146 389h-74v59zM167 570l-31 37l154 147l154 -147l-31 -37l-123 93zM289 453l-82 -225h165z" />
    <glyph glyph-name="Adieresis.sc" horiz-adv-x="582" 
d="M149 508h285v-59h-75l146 -389h62v-60h-211v59h79l-41 109h-209l-40 -109h79v-59h-209v60h62l146 389h-74v59zM289 453l-82 -225h165zM378 589q-24 0 -40.5 17t-16.5 40q0 24 17 41t40 17q24 0 40 -17t16 -41q0 -23 -16.5 -40t-39.5 -17zM203 589q-23 0 -39.5 17
t-16.5 40q0 24 17 41t40 17t39.5 -17t16.5 -41q0 -23 -16.5 -40t-40.5 -17z" />
    <glyph glyph-name="AE.sc" horiz-adv-x="709" 
d="M242 0v59h84v113h-153l-58 -113h74v-59h-199v60h55l203 389h-68v59h472v-151h-65v92h-191v-164h165v-59h-165v-167h191v91h66v-150h-411zM315 449l-112 -218h123v218h-11z" />
    <glyph glyph-name="AEacute.sc" horiz-adv-x="709" 
d="M242 0v59h84v113h-153l-58 -113h74v-59h-199v60h55l203 389h-68v59h472v-151h-65v92h-191v-164h165v-59h-165v-167h191v91h66v-150h-411zM315 449l-112 -218h123v218h-11zM356 573l-19 24l121 126q21 23 43 23q17 0 28.5 -12t11.5 -31q0 -23 -34 -44z" />
    <glyph glyph-name="Agrave.sc" horiz-adv-x="582" 
d="M149 508h285v-59h-75l146 -389h62v-60h-211v59h79l-41 109h-209l-40 -109h79v-59h-209v60h62l146 389h-74v59zM289 453l-82 -225h165zM320 573l-151 86q-34 21 -34 44q0 19 11.5 31t28.5 12q20 0 43 -23l120 -126z" />
    <glyph glyph-name="Amacron.sc" horiz-adv-x="582" 
d="M149 508h285v-59h-75l146 -389h62v-60h-211v59h79l-41 109h-209l-40 -109h79v-59h-209v60h62l146 389h-74v59zM138 605v63h304v-63h-304zM289 453l-82 -225h165z" />
    <glyph glyph-name="Aogonek.sc" horiz-adv-x="582" 
d="M473 -201q-51 0 -78.5 25.5t-27.5 67.5q0 63 64 108h-75v59h79l-41 109h-209l-40 -109h79v-59h-209v60h62l146 389h-74v59h285v-59h-75l146 -389h62v-60h-65q-72 -39 -72 -92q0 -52 55 -52q40 0 78 19l-4 -53q-31 -23 -86 -23zM289 453l-82 -225h165z" />
    </font>
</defs>
</svg>
