<?xml version="1.0" encoding="utf-8"?>
<!-- Generator: Adobe Illustrator 17.0.0, SVG Export Plug-In . SVG Version: 6.00 Build 0)  -->
<!DOCTYPE svg PUBLIC "-//W3C//DTD SVG 1.1//EN" "http://www.w3.org/Graphics/SVG/1.1/DTD/svg11.dtd">
<svg version="1.1" id="Шар_0_xA0_Зображення_1_"
	 xmlns="http://www.w3.org/2000/svg" xmlns:xlink="http://www.w3.org/1999/xlink" x="0px" y="0px" width="100px" height="100px"
	 viewBox="0 0 100 100" style="enable-background:new 0 0 100 100;" xml:space="preserve">
<g>
	<path d="M10,46c0-2,0-4,0-6c1.672-8.57,3.793-17.28,11.247-22.545C26.903,13.461,33.707,11.092,40,8c3.333,0,6.667,0,10,0
		c1.045,0.342,2.066,0.823,3.138,1.006c12.078,2.051,20.604,8.43,25.541,19.86C82.08,36.738,86.201,44.3,90,52c0,0.667,0,1.333,0,2
		c-1.261,1.253-2.307,2.991-3.825,3.666c-4.312,1.916-5.651,5.061-5.04,9.485c0.202,1.462,0.089,2.981,0.009,4.467
		c-0.333,6.159-4.22,10.838-10.388,11.379C64.792,83.521,61.166,86.104,60,92c-12.333,0-24.667,0-37,0
		c0.221-8.189,0.489-16.544-3.829-23.823C15.014,61.169,11.283,54.13,10,46z M31.818,30.977c-4.438,6.743-4.273,6.622,0.241,12.78
		c0.836,1.14,0.159,3.884-0.593,5.535c-0.598,1.313-2.375,2.089-3.731,3.187c1.701,3.037,3.216,5.741,4.701,8.393
		c7.151-2.763,6.728-2.521,10.416,3.915c0.976,1.703,5.417,1.693,8.303,1.865c0.887,0.053,2.474-1.774,2.742-2.965
		c1.009-4.492,2.654-5.748,7.164-4.061c2.706,1.013,3.985,0.226,5.033-2.136c0.845-1.906,1.907-3.715,2.803-5.433
		c-6.872-6.049-6.917-7.031-0.836-13.067c-0.979-1.818-1.971-3.713-3.016-5.58c-0.475-0.848-1.052-1.639-1.547-2.401
		c-8.118,2.457-8.118,2.457-10.874-6.007c-2.327,0-4.803-0.035-7.276,0.018c-0.957,0.02-1.91,0.237-2.789,0.355
		C41.467,31.971,41.776,34.752,31.818,30.977z"/>
	<path d="M56.753,46.133c-0.153,4.582-4.153,8.366-8.811,8.335c-4.821-0.032-8.923-4.243-8.714-8.944
		c0.203-4.563,4.261-8.423,8.823-8.391C52.803,37.166,56.911,41.414,56.753,46.133z"/>
</g>
</svg>
