<?xml version="1.0" encoding="utf-8"?>
<!-- Generator: Adobe Illustrator 17.0.0, SVG Export Plug-In . SVG Version: 6.00 Build 0)  -->
<!DOCTYPE svg PUBLIC "-//W3C//DTD SVG 1.1//EN" "http://www.w3.org/Graphics/SVG/1.1/DTD/svg11.dtd">
<svg version="1.1" id="Шар_0_xA0_Зображення_1_"
	 xmlns="http://www.w3.org/2000/svg" xmlns:xlink="http://www.w3.org/1999/xlink" x="0px" y="0px" width="100px" height="100px"
	 viewBox="0 0 100 100" style="enable-background:new 0 0 100 100;" xml:space="preserve">
<g>
	<path d="M101,3c0,32.667,0,65.333,0,98c-33.333,0-66.667,0-100,0c0-19.667,0-39.333,0-59c1.115,0.324,2.291,0.515,3.334,0.994
		c10.676,4.905,20.033,3.041,28.089-5.435c8.949-9.415,19.168-11.088,30.675-5.15c6.98,3.601,11.726,1.692,16.462-4.698
		C86.036,18.976,93.793,11.192,101,3z M9.127,71.488c0,7.7,0,14.443,0,21.278c28.117,0,55.941,0,83.575,0
		c0-13.209,0-26.012,0-38.814c-2.892,1.561-4.879,3.583-6.574,5.826c-2.274,3.009-4.512,3.306-8.011,1.596
		c-7.104-3.473-14.518-6.312-21.956-9.478c-5.43,7.617-10.783,14.817-15.768,22.264c-2.15,3.211-4.114,4.353-8.125,3.117
		C24.843,74.989,17.184,73.456,9.127,71.488z"/>
</g>
</svg>
