<?xml version="1.0" encoding="utf-8"?>
<!-- Generator: Adobe Illustrator 17.0.0, SVG Export Plug-In . SVG Version: 6.00 Build 0)  -->
<!DOCTYPE svg PUBLIC "-//W3C//DTD SVG 1.1//EN" "http://www.w3.org/Graphics/SVG/1.1/DTD/svg11.dtd">
<svg version="1.1" id="Шар_0_xA0_Зображення_1_"
	 xmlns="http://www.w3.org/2000/svg" xmlns:xlink="http://www.w3.org/1999/xlink" x="0px" y="0px" width="100px" height="100px"
	 viewBox="0 0 100 100" style="enable-background:new 0 0 100 100;" xml:space="preserve">
<g>
	<path d="M34,0c0.867,0.461,1.687,1.072,2.608,1.362c13.113,4.132,22.44,12.47,27.739,25.154c0.746,1.785,1.437,4.388,0.659,5.772
		c-0.672,1.194-3.472,1.191-5.795,1.848c-0.572,3.663-3.459,4.881-7.73,4.683c-8.407-0.389-16.845-0.882-25.237-0.531
		c-5.936,0.249-10.986-0.906-16.037-4.049C7.27,32.412,3.432,32.032,0,31c0-6.667,0-13.333,0-20c2.409-0.111,5.076,0.411,7.18-0.447
		C15.218,7.276,23.075,3.555,31,0C32,0,33,0,34,0z M53.92,26.559c-3.133-6.161-8.962-10.542-16.887-12.18
		c-3.514-0.726-6.477-0.15-7.372,3.744c-0.931,4.049,1.682,5.774,5.209,6.233C41.441,25.209,48.035,25.887,53.92,26.559z"/>
	<path d="M58,100c-11.709-4.696-23.424-9.38-35.122-14.104c-1.692-0.683-3.749-1.179-4.839-2.448
		c-1.234-1.436-2.343-3.791-2.031-5.471c0.226-1.214,2.822-2.056,4.438-2.921c1.365-0.731,2.791-1.451,4.279-1.824
		c1.979-0.497,4.176-1.239,6.04-0.818c2.864,0.648,5.524,2.196,8.527,3.471c-0.175,1.231-0.327,2.324-0.485,3.417
		c-0.827,5.697,0.949,9.328,6.343,9.941c8.642,0.981,17.576,2.788,25.745-2.301c0.954-0.594,1.734-1.465,1.887-1.597
		c-7.347,0.22-15.268,0.575-23.192,0.641c-3.503,0.029-7.159-0.973-7.171-5.247c-0.012-4.387,3.846-4.594,7.219-5.229
		c7.626-1.437,15.158-3.419,22.815-4.623c4.275-0.672,8.871-0.955,13.058-0.107C90.489,71.788,95.183,74.198,100,76
		c0,0.667,0,1.333,0,2c-2.229,5.512-4.459,11.024-6.091,15.059c-4.938,0-9.151-0.795-12.907,0.177
		C74.519,94.912,68.319,97.686,62,100C60.667,100,59.333,100,58,100z"/>
	<path d="M66.794,34.475c4.727,7.101,2.077,14.632-5.29,16.168c0,4.159,0.024,8.445-0.009,12.731c-0.02,2.684,0.2,5.665-3.721,5.747
		c-3.889,0.081-3.932-2.773-3.938-5.545c-0.009-4.305-0.003-8.61-0.003-12.831c-6.083-1.453-7.394-3.223-7.439-10.565
		c3.095,0.619,6.238,0.754,8.939,1.917c3.098,1.335,4.018,1.067,5.241-2.343C61.372,37.528,64.651,36.191,66.794,34.475z"/>
</g>
</svg>
