<?xml version="1.0" encoding="utf-8"?>
<!-- Generator: Adobe Illustrator 17.0.0, SVG Export Plug-In . SVG Version: 6.00 Build 0)  -->
<!DOCTYPE svg PUBLIC "-//W3C//DTD SVG 1.1//EN" "http://www.w3.org/Graphics/SVG/1.1/DTD/svg11.dtd">
<svg version="1.1" id="Шар_1_xA0_Зображення_1_"
	 xmlns="http://www.w3.org/2000/svg" xmlns:xlink="http://www.w3.org/1999/xlink" x="0px" y="0px" width="100px" height="100px"
	 viewBox="0 0 100 100" style="enable-background:new 0 0 100 100;" xml:space="preserve">
<path d="M21,94.01c1.897-3.149,4.605-4.124,8.312-4.082c16.454,0.189,32.912,0.191,49.365-0.002
	c3.715-0.043,6.407,0.964,8.323,4.083c0,1.987,0,3.975,0,5.981c-22,0-44,0-66,0C21,97.984,21,95.997,21,94.01z"/>
<path d="M21,44.01c1.567-5.883,3.171-11.743,10.183-16.056c2.097,8.845,4.046,17.061,5.896,24.863
	c-4.16,1.967-7.964,3.765-12.335,5.832C23.575,55.013,22.287,51.011,21,47.01C21,46.01,21,45.01,21,44.01z"/>
<path d="M45,0.01c2.924,6.442-1.802,14.399-9.059,14.765c-2.1,0.106-4.482-0.75-6.352-1.829c-2.485-1.434-2.003-5.463,0.68-6.914
	C34.134,3.94,38.086,2.009,42,0.01C43,0.01,44,0.01,45,0.01z"/>
<path d="M24.811,71.837c0.065-6.256,3.283-11.041,8.834-13.135c4.941-1.864,9.478-0.642,13.56,4.402
	c1.854,2.291,3.252,1.989,5.447,0.957c5.995-2.821,12.049-5.522,18.156-8.092c1.165-0.49,2.675-0.161,4.026-0.21
	c-0.816,1.185-1.367,2.915-2.494,3.465c-6.1,2.975-12.282,5.803-18.563,8.373c-2.668,1.092-3.635,2.448-3.735,5.42
	c-0.26,7.711-5.937,13.175-12.885,13.004C30.127,85.847,24.73,79.647,24.811,71.837z"/>
<path d="M41.328,45.74c-2.835-7.399-5.619-14.157-7.902-21.081c-0.425-1.291,1.141-3.256,1.849-4.883
	c0.107-0.245,0.537-0.377,0.843-0.502c16.8-6.878,12.523-9.195,19.126,7.371c1.407,3.53,2.667,7.119,4.169,11.147
	C53.423,40.425,47.696,42.942,41.328,45.74z"/>
<path d="M48.572,84.415c1.209-0.791,2.332-1.783,3.641-2.34c6.243-2.66,12.478-5.355,18.83-7.733
	c4.46-1.669,8.501,0.788,9.479,5.318c0.865,4.008-0.92,6.32-5.03,6.338c-8.624,0.039-17.248,0.012-25.872,0.012
	C49.27,85.478,48.921,84.946,48.572,84.415z"/>
<path d="M60.433,41.905c2.602,5.408,0.431,10.116-5.506,12.697c-5.694,2.475-9.611,0.969-11.93-4.979
	C48.679,47.108,54.387,44.581,60.433,41.905z"/>
</svg>
